%TF.GenerationSoftware,KiCad,Pcbnew,8.0.4*%
%TF.CreationDate,2024-08-15T19:07:05-07:00*%
%TF.ProjectId,RoboBuddy_NoSIlkScreen,526f626f-4275-4646-9479-5f4e6f53496c,rev?*%
%TF.SameCoordinates,Original*%
%TF.FileFunction,Copper,L1,Top*%
%TF.FilePolarity,Positive*%
%FSLAX46Y46*%
G04 Gerber Fmt 4.6, Leading zero omitted, Abs format (unit mm)*
G04 Created by KiCad (PCBNEW 8.0.4) date 2024-08-15 19:07:05*
%MOMM*%
%LPD*%
G01*
G04 APERTURE LIST*
G04 Aperture macros list*
%AMRoundRect*
0 Rectangle with rounded corners*
0 $1 Rounding radius*
0 $2 $3 $4 $5 $6 $7 $8 $9 X,Y pos of 4 corners*
0 Add a 4 corners polygon primitive as box body*
4,1,4,$2,$3,$4,$5,$6,$7,$8,$9,$2,$3,0*
0 Add four circle primitives for the rounded corners*
1,1,$1+$1,$2,$3*
1,1,$1+$1,$4,$5*
1,1,$1+$1,$6,$7*
1,1,$1+$1,$8,$9*
0 Add four rect primitives between the rounded corners*
20,1,$1+$1,$2,$3,$4,$5,0*
20,1,$1+$1,$4,$5,$6,$7,0*
20,1,$1+$1,$6,$7,$8,$9,0*
20,1,$1+$1,$8,$9,$2,$3,0*%
G04 Aperture macros list end*
%TA.AperFunction,SMDPad,CuDef*%
%ADD10RoundRect,0.100000X0.100000X-0.130000X0.100000X0.130000X-0.100000X0.130000X-0.100000X-0.130000X0*%
%TD*%
%TA.AperFunction,ComponentPad*%
%ADD11C,1.000000*%
%TD*%
%TA.AperFunction,SMDPad,CuDef*%
%ADD12RoundRect,0.100000X-0.130000X-0.100000X0.130000X-0.100000X0.130000X0.100000X-0.130000X0.100000X0*%
%TD*%
%TA.AperFunction,SMDPad,CuDef*%
%ADD13RoundRect,0.100000X0.130000X0.100000X-0.130000X0.100000X-0.130000X-0.100000X0.130000X-0.100000X0*%
%TD*%
%TA.AperFunction,SMDPad,CuDef*%
%ADD14RoundRect,0.050000X-0.387500X-0.050000X0.387500X-0.050000X0.387500X0.050000X-0.387500X0.050000X0*%
%TD*%
%TA.AperFunction,SMDPad,CuDef*%
%ADD15RoundRect,0.050000X-0.050000X-0.387500X0.050000X-0.387500X0.050000X0.387500X-0.050000X0.387500X0*%
%TD*%
%TA.AperFunction,HeatsinkPad*%
%ADD16R,3.200000X3.200000*%
%TD*%
%TA.AperFunction,SMDPad,CuDef*%
%ADD17R,1.400000X1.200000*%
%TD*%
%TA.AperFunction,SMDPad,CuDef*%
%ADD18RoundRect,0.150000X-0.650000X-0.150000X0.650000X-0.150000X0.650000X0.150000X-0.650000X0.150000X0*%
%TD*%
%TA.AperFunction,SMDPad,CuDef*%
%ADD19RoundRect,0.087500X-0.225000X-0.087500X0.225000X-0.087500X0.225000X0.087500X-0.225000X0.087500X0*%
%TD*%
%TA.AperFunction,SMDPad,CuDef*%
%ADD20RoundRect,0.087500X-0.087500X-0.225000X0.087500X-0.225000X0.087500X0.225000X-0.087500X0.225000X0*%
%TD*%
%TA.AperFunction,SMDPad,CuDef*%
%ADD21RoundRect,0.375000X-0.375000X0.625000X-0.375000X-0.625000X0.375000X-0.625000X0.375000X0.625000X0*%
%TD*%
%TA.AperFunction,SMDPad,CuDef*%
%ADD22RoundRect,0.500000X-1.400000X0.500000X-1.400000X-0.500000X1.400000X-0.500000X1.400000X0.500000X0*%
%TD*%
%TA.AperFunction,SMDPad,CuDef*%
%ADD23C,1.000000*%
%TD*%
%TA.AperFunction,ViaPad*%
%ADD24C,0.600000*%
%TD*%
%TA.AperFunction,Conductor*%
%ADD25C,0.200000*%
%TD*%
G04 APERTURE END LIST*
D10*
%TO.P,C15,1*%
%TO.N,+3.3V*%
X141000000Y-98620000D03*
%TO.P,C15,2*%
%TO.N,GND*%
X141000000Y-97980000D03*
%TD*%
D11*
%TO.P,GP10,1*%
%TO.N,/GPIO_10*%
X137260000Y-84860000D03*
%TD*%
D12*
%TO.P,C7,1*%
%TO.N,+3.3V*%
X151180000Y-80700000D03*
%TO.P,C7,2*%
%TO.N,GND*%
X151820000Y-80700000D03*
%TD*%
%TO.P,R1,1*%
%TO.N,/Pad*%
X140380000Y-79100000D03*
%TO.P,R1,2*%
%TO.N,+3.3V*%
X141020000Y-79100000D03*
%TD*%
D13*
%TO.P,R2,1*%
%TO.N,Net-(C13-Pad2)*%
X146665000Y-95500000D03*
%TO.P,R2,2*%
%TO.N,/XOUT*%
X146025000Y-95500000D03*
%TD*%
D11*
%TO.P,SDA,1*%
%TO.N,/SDA_OLED*%
X158750000Y-95500000D03*
%TD*%
D12*
%TO.P,R6,1*%
%TO.N,+3.3V*%
X136980000Y-93800000D03*
%TO.P,R6,2*%
%TO.N,/SCL_GRYO{slash}MOSI_SD*%
X137620000Y-93800000D03*
%TD*%
D13*
%TO.P,R4,1*%
%TO.N,/USB_D-*%
X148820000Y-84800000D03*
%TO.P,R4,2*%
%TO.N,Net-(U1-USB_DM)*%
X148180000Y-84800000D03*
%TD*%
D10*
%TO.P,C16,1*%
%TO.N,GND*%
X137300000Y-79620000D03*
%TO.P,C16,2*%
%TO.N,Net-(J3-VSS)*%
X137300000Y-78980000D03*
%TD*%
D13*
%TO.P,R9,1*%
%TO.N,/CS_SD*%
X140520000Y-82200000D03*
%TO.P,R9,2*%
%TO.N,+3.3V*%
X139880000Y-82200000D03*
%TD*%
D11*
%TO.P,GP19,1*%
%TO.N,/GPIO_19*%
X153750000Y-91750000D03*
%TD*%
D13*
%TO.P,R8,1*%
%TO.N,/SCL_GRYO{slash}MOSI_SD*%
X137475000Y-81400000D03*
%TO.P,R8,2*%
%TO.N,+3.3V*%
X136835000Y-81400000D03*
%TD*%
D11*
%TO.P,GP11,1*%
%TO.N,/speaker*%
X137270000Y-86920000D03*
%TD*%
D13*
%TO.P,R5,1*%
%TO.N,/SDA_GYRO{slash}SCK_SD*%
X137620000Y-93100000D03*
%TO.P,R5,2*%
%TO.N,+3.3V*%
X136980000Y-93100000D03*
%TD*%
D14*
%TO.P,U1,1,IOVDD*%
%TO.N,+3.3V*%
X142625000Y-86837500D03*
%TO.P,U1,2,GPIO0*%
%TO.N,unconnected-(U1-GPIO0-Pad2)*%
X142625000Y-87237500D03*
%TO.P,U1,3,GPIO1*%
%TO.N,unconnected-(U1-GPIO1-Pad3)*%
X142625000Y-87637500D03*
%TO.P,U1,4,GPIO2*%
%TO.N,unconnected-(U1-GPIO2-Pad4)*%
X142625000Y-88037500D03*
%TO.P,U1,5,GPIO3*%
%TO.N,unconnected-(U1-GPIO3-Pad5)*%
X142625000Y-88437500D03*
%TO.P,U1,6,GPIO4*%
%TO.N,unconnected-(U1-GPIO4-Pad6)*%
X142625000Y-88837500D03*
%TO.P,U1,7,GPIO5*%
%TO.N,unconnected-(U1-GPIO5-Pad7)*%
X142625000Y-89237500D03*
%TO.P,U1,8,GPIO6*%
%TO.N,unconnected-(U1-GPIO6-Pad8)*%
X142625000Y-89637500D03*
%TO.P,U1,9,GPIO7*%
%TO.N,unconnected-(U1-GPIO7-Pad9)*%
X142625000Y-90037500D03*
%TO.P,U1,10,IOVDD*%
%TO.N,+3.3V*%
X142625000Y-90437500D03*
%TO.P,U1,11,GPIO8*%
%TO.N,unconnected-(U1-GPIO8-Pad11)*%
X142625000Y-90837500D03*
%TO.P,U1,12,GPIO9*%
%TO.N,/GPIO_9*%
X142625000Y-91237500D03*
%TO.P,U1,13,GPIO10*%
%TO.N,/GPIO_10*%
X142625000Y-91637500D03*
%TO.P,U1,14,GPIO11*%
%TO.N,/speaker*%
X142625000Y-92037500D03*
D15*
%TO.P,U1,15,GPIO12*%
%TO.N,/MISO_SD*%
X143462500Y-92875000D03*
%TO.P,U1,16,GPIO13*%
%TO.N,/CS_SD*%
X143862500Y-92875000D03*
%TO.P,U1,17,GPIO14*%
%TO.N,/SDA_GYRO{slash}SCK_SD*%
X144262500Y-92875000D03*
%TO.P,U1,18,GPIO15*%
%TO.N,/SCL_GRYO{slash}MOSI_SD*%
X144662500Y-92875000D03*
%TO.P,U1,19,TESTEN*%
%TO.N,/TESTEN*%
X145062500Y-92875000D03*
%TO.P,U1,20,XIN*%
%TO.N,/XIN*%
X145462500Y-92875000D03*
%TO.P,U1,21,XOUT*%
%TO.N,/XOUT*%
X145862500Y-92875000D03*
%TO.P,U1,22,IOVDD*%
%TO.N,+3.3V*%
X146262500Y-92875000D03*
%TO.P,U1,23,DVDD*%
%TO.N,+1V1*%
X146662500Y-92875000D03*
%TO.P,U1,24,SWCLK*%
%TO.N,/SWCLK*%
X147062500Y-92875000D03*
%TO.P,U1,25,SWD*%
%TO.N,/SWD*%
X147462500Y-92875000D03*
%TO.P,U1,26,RUN*%
%TO.N,/RUN*%
X147862500Y-92875000D03*
%TO.P,U1,27,GPIO16*%
%TO.N,/SDA_OLED*%
X148262500Y-92875000D03*
%TO.P,U1,28,GPIO17*%
%TO.N,/SCL_OLED*%
X148662500Y-92875000D03*
D14*
%TO.P,U1,29,GPIO18*%
%TO.N,/GPIO_18*%
X149500000Y-92037500D03*
%TO.P,U1,30,GPIO19*%
%TO.N,/GPIO_19*%
X149500000Y-91637500D03*
%TO.P,U1,31,GPIO20*%
%TO.N,unconnected-(U1-GPIO20-Pad31)*%
X149500000Y-91237500D03*
%TO.P,U1,32,GPIO21*%
%TO.N,unconnected-(U1-GPIO21-Pad32)*%
X149500000Y-90837500D03*
%TO.P,U1,33,IOVDD*%
%TO.N,+3.3V*%
X149500000Y-90437500D03*
%TO.P,U1,34,GPIO22*%
%TO.N,unconnected-(U1-GPIO22-Pad34)*%
X149500000Y-90037500D03*
%TO.P,U1,35,GPIO23*%
%TO.N,unconnected-(U1-GPIO23-Pad35)*%
X149500000Y-89637500D03*
%TO.P,U1,36,GPIO24*%
%TO.N,unconnected-(U1-GPIO24-Pad36)*%
X149500000Y-89237500D03*
%TO.P,U1,37,GPIO25*%
%TO.N,unconnected-(U1-GPIO25-Pad37)*%
X149500000Y-88837500D03*
%TO.P,U1,38,GPIO26_ADC0*%
%TO.N,/GPIO_26_ADC0*%
X149500000Y-88437500D03*
%TO.P,U1,39,GPIO27_ADC1*%
%TO.N,unconnected-(U1-GPIO27_ADC1-Pad39)*%
X149500000Y-88037500D03*
%TO.P,U1,40,GPIO28_ADC2*%
%TO.N,unconnected-(U1-GPIO28_ADC2-Pad40)*%
X149500000Y-87637500D03*
%TO.P,U1,41,GPIO29_ADC3*%
%TO.N,unconnected-(U1-GPIO29_ADC3-Pad41)*%
X149500000Y-87237500D03*
%TO.P,U1,42,IOVDD*%
%TO.N,+3.3V*%
X149500000Y-86837500D03*
D15*
%TO.P,U1,43,ADC_AVDD*%
X148662500Y-86000000D03*
%TO.P,U1,44,VREG_IN*%
X148262500Y-86000000D03*
%TO.P,U1,45,VREG_VOUT*%
%TO.N,+1V1*%
X147862500Y-86000000D03*
%TO.P,U1,46,USB_DM*%
%TO.N,Net-(U1-USB_DM)*%
X147462500Y-86000000D03*
%TO.P,U1,47,USB_DP*%
%TO.N,Net-(U1-USB_DP)*%
X147062500Y-86000000D03*
%TO.P,U1,48,USB_VDD*%
%TO.N,+3.3V*%
X146662500Y-86000000D03*
%TO.P,U1,49,IOVDD*%
X146262500Y-86000000D03*
%TO.P,U1,50,DVDD*%
%TO.N,+1V1*%
X145862500Y-86000000D03*
%TO.P,U1,51,QSPI_SD3*%
%TO.N,/QSPI_SD3*%
X145462500Y-86000000D03*
%TO.P,U1,52,QSPI_SCLK*%
%TO.N,/QSPI_SCLK*%
X145062500Y-86000000D03*
%TO.P,U1,53,QSPI_SD0*%
%TO.N,/QSPI_SD0*%
X144662500Y-86000000D03*
%TO.P,U1,54,QSPI_SD2*%
%TO.N,/QSPI_SD2*%
X144262500Y-86000000D03*
%TO.P,U1,55,QSPI_SD1*%
%TO.N,/QSPI_SD1*%
X143862500Y-86000000D03*
%TO.P,U1,56,QSPI_SS*%
%TO.N,+3.3V*%
X143462500Y-86000000D03*
D16*
%TO.P,U1,57,GND*%
%TO.N,GND*%
X146062500Y-89437500D03*
%TD*%
D10*
%TO.P,R7,1*%
%TO.N,/SDA_GYRO{slash}SCK_SD*%
X138900000Y-81300000D03*
%TO.P,R7,2*%
%TO.N,+3.3V*%
X138900000Y-80660000D03*
%TD*%
D12*
%TO.P,C5,1*%
%TO.N,+3.3V*%
X151180000Y-79100000D03*
%TO.P,C5,2*%
%TO.N,GND*%
X151820000Y-79100000D03*
%TD*%
D10*
%TO.P,C13,1*%
%TO.N,GND*%
X151750000Y-96320000D03*
%TO.P,C13,2*%
%TO.N,Net-(C13-Pad2)*%
X151750000Y-95680000D03*
%TD*%
D11*
%TO.P,3.3v,1*%
%TO.N,+3.3V*%
X158750000Y-91000000D03*
%TD*%
D12*
%TO.P,C3,1*%
%TO.N,+3.3V*%
X149580000Y-84800000D03*
%TO.P,C3,2*%
%TO.N,GND*%
X150220000Y-84800000D03*
%TD*%
%TO.P,R3,1*%
%TO.N,/USB_D+*%
X146680000Y-84500000D03*
%TO.P,R3,2*%
%TO.N,Net-(U1-USB_DP)*%
X147320000Y-84500000D03*
%TD*%
D17*
%TO.P,Y1,1,1*%
%TO.N,/XIN*%
X148150000Y-97600000D03*
%TO.P,Y1,2,2*%
%TO.N,GND*%
X150350000Y-97600000D03*
%TO.P,Y1,3,3*%
%TO.N,Net-(C13-Pad2)*%
X150350000Y-95900000D03*
%TO.P,Y1,4,4*%
%TO.N,GND*%
X148150000Y-95900000D03*
%TD*%
D11*
%TO.P,SCL,1*%
%TO.N,/SCL_OLED*%
X158750000Y-97750000D03*
%TD*%
D18*
%TO.P,U3,1,~{CS}*%
%TO.N,+3.3V*%
X142500000Y-79200000D03*
%TO.P,U3,2,DO(IO1)*%
%TO.N,/QSPI_SD1*%
X142500000Y-80470000D03*
%TO.P,U3,3,IO2*%
%TO.N,/QSPI_SD2*%
X142500000Y-81740000D03*
%TO.P,U3,4,GND*%
%TO.N,GND*%
X142500000Y-83010000D03*
%TO.P,U3,5,DI(IO0)*%
%TO.N,/QSPI_SD0*%
X149700000Y-83010000D03*
%TO.P,U3,6,CLK*%
%TO.N,/QSPI_SCLK*%
X149700000Y-81740000D03*
%TO.P,U3,7,IO3*%
%TO.N,/QSPI_SD3*%
X149700000Y-80470000D03*
%TO.P,U3,8,VCC*%
%TO.N,+3.3V*%
X149700000Y-79200000D03*
%TD*%
D10*
%TO.P,C12,1*%
%TO.N,GND*%
X146750000Y-98070000D03*
%TO.P,C12,2*%
%TO.N,/XIN*%
X146750000Y-97430000D03*
%TD*%
D12*
%TO.P,C1,1*%
%TO.N,VBUS*%
X153480000Y-78300000D03*
%TO.P,C1,2*%
%TO.N,GND*%
X154120000Y-78300000D03*
%TD*%
D19*
%TO.P,U4,1,SDO/SA0*%
%TO.N,unconnected-(U4-SDO{slash}SA0-Pad1)*%
X142175000Y-96250000D03*
%TO.P,U4,2,SDX*%
%TO.N,unconnected-(U4-SDX-Pad2)*%
X142175000Y-96750000D03*
%TO.P,U4,3,SCX*%
%TO.N,unconnected-(U4-SCX-Pad3)*%
X142175000Y-97250000D03*
%TO.P,U4,4,INT1*%
%TO.N,GND*%
X142175000Y-97750000D03*
D20*
%TO.P,U4,5,VDDIO*%
%TO.N,+3.3V*%
X142837500Y-97912500D03*
%TO.P,U4,6,GND*%
%TO.N,GND*%
X143337500Y-97912500D03*
%TO.P,U4,7,GND*%
X143837500Y-97912500D03*
D19*
%TO.P,U4,8,VDD*%
%TO.N,+3.3V*%
X144500000Y-97750000D03*
%TO.P,U4,9,INT2*%
%TO.N,GND*%
X144500000Y-97250000D03*
%TO.P,U4,10,NC*%
%TO.N,unconnected-(U4-NC-Pad10)*%
X144500000Y-96750000D03*
%TO.P,U4,11,NC*%
%TO.N,unconnected-(U4-NC-Pad11)*%
X144500000Y-96250000D03*
D20*
%TO.P,U4,12,CS*%
%TO.N,+3.3V*%
X143837500Y-96087500D03*
%TO.P,U4,13,SCL*%
%TO.N,/SCL_GRYO{slash}MOSI_SD*%
X143337500Y-96087500D03*
%TO.P,U4,14,SDA*%
%TO.N,/SDA_GYRO{slash}SCK_SD*%
X142837500Y-96087500D03*
%TD*%
D11*
%TO.P,GP9,1*%
%TO.N,/GPIO_9*%
X137270000Y-82790000D03*
%TD*%
D12*
%TO.P,R10,1*%
%TO.N,/MISO_SD*%
X139480000Y-83000000D03*
%TO.P,R10,2*%
%TO.N,+3.3V*%
X140120000Y-83000000D03*
%TD*%
%TO.P,C6,1*%
%TO.N,+3.3V*%
X151180000Y-79900000D03*
%TO.P,C6,2*%
%TO.N,GND*%
X151820000Y-79900000D03*
%TD*%
D10*
%TO.P,C14,1*%
%TO.N,GND*%
X139000000Y-98240000D03*
%TO.P,C14,2*%
%TO.N,+3.3V*%
X139000000Y-97600000D03*
%TD*%
D12*
%TO.P,C11,1*%
%TO.N,+3.3V*%
X151180000Y-78300000D03*
%TO.P,C11,2*%
%TO.N,GND*%
X151820000Y-78300000D03*
%TD*%
D21*
%TO.P,U2,1,GND*%
%TO.N,GND*%
X158100000Y-80050000D03*
%TO.P,U2,2,VO*%
%TO.N,+3.3V*%
X155800000Y-80050000D03*
D22*
X155800000Y-86350000D03*
D21*
%TO.P,U2,3,VI*%
%TO.N,VBUS*%
X153500000Y-80050000D03*
%TD*%
D11*
%TO.P,GP18,1*%
%TO.N,/GPIO_18*%
X152500000Y-98000000D03*
%TD*%
%TO.P,ADC0,1*%
%TO.N,/GPIO_26_ADC0*%
X158000000Y-88750000D03*
%TD*%
D23*
%TO.P,USB,1*%
%TO.N,/Pad*%
X138880000Y-79180000D03*
%TD*%
D12*
%TO.P,C2,1*%
%TO.N,+3.3V*%
X156680000Y-78300000D03*
%TO.P,C2,2*%
%TO.N,GND*%
X157320000Y-78300000D03*
%TD*%
%TO.P,C8,1*%
%TO.N,+3.3V*%
X151180000Y-83200000D03*
%TO.P,C8,2*%
%TO.N,GND*%
X151820000Y-83200000D03*
%TD*%
D24*
%TO.N,VBUS*%
X152000000Y-87600000D03*
%TO.N,GND*%
X147000000Y-88200000D03*
X146700000Y-98600000D03*
X136900000Y-88400000D03*
X147600000Y-80700000D03*
X137300000Y-79800000D03*
X142541071Y-83037651D03*
X146300000Y-82100000D03*
X152000000Y-78400000D03*
X152850000Y-84200000D03*
X143400000Y-97200000D03*
X145100000Y-88300000D03*
X151200000Y-86600000D03*
X150620000Y-85320000D03*
X158100000Y-80000000D03*
X150200000Y-97500000D03*
X139000000Y-98400000D03*
X155000000Y-78200000D03*
X148200000Y-96000000D03*
X141000000Y-97800000D03*
%TO.N,+3.3V*%
X152500000Y-81700000D03*
X154600000Y-83100000D03*
X137300000Y-80700000D03*
X141600000Y-85700000D03*
X144600000Y-79300000D03*
X139700000Y-80900000D03*
X148600000Y-86800000D03*
X146100000Y-85000000D03*
X143800000Y-89100000D03*
X139391422Y-93208578D03*
X140600000Y-87800000D03*
X145400000Y-91700000D03*
%TO.N,+1V1*%
X148440000Y-90800000D03*
%TO.N,Net-(J3-VSS)*%
X137300000Y-78300000D03*
%TO.N,/USB_D+*%
X146100000Y-84100000D03*
%TO.N,/USB_D-*%
X148900000Y-84300000D03*
%TO.N,/MISO_SD*%
X143800000Y-91400000D03*
X139400000Y-83300000D03*
%TO.N,/SCL_GRYO{slash}MOSI_SD*%
X145604835Y-78988979D03*
X140893086Y-94300000D03*
X137890000Y-93900000D03*
X138180000Y-81423617D03*
%TO.N,/SDA_GYRO{slash}SCK_SD*%
X143850361Y-80161287D03*
X138735905Y-93684095D03*
X140200263Y-93900000D03*
X138900000Y-82200000D03*
%TO.N,/CS_SD*%
X140700000Y-82200000D03*
X144540159Y-91703594D03*
%TO.N,/QSPI_SD0*%
X148100000Y-83100000D03*
X144750000Y-82250000D03*
%TO.N,/SCL_OLED*%
X149500000Y-93500000D03*
X152000000Y-93000000D03*
%TO.N,/SDA_OLED*%
X149192307Y-94238464D03*
X153250000Y-93250000D03*
%TO.N,/SWCLK*%
X146582795Y-94299998D03*
%TO.N,/SWD*%
X147382797Y-94299999D03*
%TO.N,/TESTEN*%
X141890000Y-94320000D03*
%TO.N,/RUN*%
X148250000Y-94250000D03*
%TD*%
D25*
%TO.N,VBUS*%
X153480000Y-78200000D02*
X153480000Y-80020000D01*
X153480000Y-80020000D02*
X153450000Y-80050000D01*
X152500000Y-87100000D02*
X152500000Y-85600000D01*
X152500000Y-85600000D02*
X153450000Y-84650000D01*
X152000000Y-87600000D02*
X152500000Y-87100000D01*
X153450000Y-84650000D02*
X153450000Y-80050000D01*
%TO.N,GND*%
X151200000Y-85850000D02*
X151200000Y-86600000D01*
X151820000Y-78300000D02*
X151900000Y-78300000D01*
X150450000Y-97600000D02*
X150200000Y-97500000D01*
X141000000Y-97980000D02*
X141000000Y-97800000D01*
X151900000Y-78300000D02*
X152000000Y-78400000D01*
X158050000Y-79850000D02*
X157320000Y-79120000D01*
X143550000Y-97250000D02*
X143400000Y-97100000D01*
X154120000Y-78200000D02*
X155000000Y-78200000D01*
X150220000Y-84800000D02*
X150220000Y-84920000D01*
X141000000Y-97800000D02*
X140950000Y-97750000D01*
X143400000Y-97100000D02*
X143837500Y-97537500D01*
X144500000Y-97250000D02*
X143550000Y-97250000D01*
X151820000Y-78580000D02*
X152000000Y-78400000D01*
X146300000Y-82000000D02*
X147600000Y-80700000D01*
X146300000Y-82100000D02*
X146300000Y-82000000D01*
X152850000Y-84200000D02*
X151200000Y-85850000D01*
X150470000Y-97600000D02*
X150450000Y-97600000D01*
X142175000Y-97750000D02*
X141000000Y-97800000D01*
X143837500Y-97537500D02*
X143837500Y-97912500D01*
X150200000Y-97500000D02*
X150250000Y-97600000D01*
X146750000Y-98550000D02*
X146700000Y-98600000D01*
X143337500Y-97162500D02*
X143400000Y-97100000D01*
X143400000Y-97200000D02*
X143337500Y-97162500D01*
X151820000Y-79100000D02*
X151820000Y-79900000D01*
X151820000Y-80700000D02*
X151820000Y-83200000D01*
X157320000Y-79120000D02*
X157320000Y-78250000D01*
X143337500Y-97912500D02*
X143400000Y-97200000D01*
X158100000Y-80000000D02*
X158050000Y-79850000D01*
X151820000Y-79100000D02*
X151820000Y-78580000D01*
X146750000Y-98070000D02*
X146750000Y-98550000D01*
X151820000Y-79900000D02*
X151820000Y-80700000D01*
X139000000Y-98240000D02*
X139000000Y-98400000D01*
X150220000Y-84920000D02*
X150620000Y-85320000D01*
X151750000Y-96320000D02*
X150470000Y-97600000D01*
X150250000Y-97600000D02*
X150350000Y-97600000D01*
X158050000Y-80050000D02*
X158100000Y-80000000D01*
%TO.N,+3.3V*%
X139880000Y-82200000D02*
X139880000Y-82280000D01*
X141538629Y-79200000D02*
X142500000Y-79200000D01*
X136980000Y-94880000D02*
X136980000Y-93800000D01*
X139990000Y-82390000D02*
X139990000Y-82468456D01*
X151180000Y-83200000D02*
X150950552Y-83200000D01*
X141000000Y-98620000D02*
X141720000Y-98620000D01*
X148662500Y-86000000D02*
X149200000Y-86000000D01*
X143800000Y-89796360D02*
X143158860Y-90437500D01*
X141000000Y-98620000D02*
X140500000Y-98620000D01*
X151500000Y-84100000D02*
X151180000Y-83780000D01*
X143837500Y-96087500D02*
X143837501Y-95775000D01*
X144887932Y-95775000D02*
X145600000Y-96487068D01*
X151180000Y-79100000D02*
X149800000Y-79100000D01*
X137000000Y-94900000D02*
X136980000Y-94880000D01*
X146100000Y-84800000D02*
X146100000Y-84800000D01*
X143262500Y-85800000D02*
X142600000Y-85800000D01*
X142625000Y-86837500D02*
X141837500Y-86837500D01*
X144500000Y-79200000D02*
X144600000Y-79300000D01*
X149580000Y-84800000D02*
X149580000Y-85380000D01*
X145787046Y-91700000D02*
X145400000Y-91700000D01*
X143462500Y-86000000D02*
X143262500Y-85800000D01*
X142837500Y-98762500D02*
X142837500Y-97912500D01*
X141837500Y-86837500D02*
X141400000Y-86400000D01*
X149800000Y-79100000D02*
X149700000Y-79200000D01*
X143158860Y-90437500D02*
X142625000Y-90437500D01*
X146662500Y-86000000D02*
X146262500Y-86000000D01*
X137100000Y-92100000D02*
X136980000Y-92220000D01*
X139391422Y-93208578D02*
X139408578Y-93208578D01*
X148662500Y-86000000D02*
X148662500Y-86737500D01*
X143800000Y-89100000D02*
X143800000Y-89796360D01*
X140600000Y-80138629D02*
X141538629Y-79200000D01*
X152500000Y-83701471D02*
X152101471Y-84100000D01*
X148262500Y-86000000D02*
X148662500Y-86000000D01*
X148262500Y-86000000D02*
X148262500Y-86462500D01*
X146100000Y-85000000D02*
X146100000Y-84800000D01*
X149580000Y-84570552D02*
X149580000Y-84800000D01*
X145600000Y-96487068D02*
X145600000Y-97100000D01*
X149500000Y-90437500D02*
X150637500Y-90437500D01*
X142625000Y-90437500D02*
X141637500Y-90437500D01*
X139579999Y-80660000D02*
X138900000Y-80660000D01*
X140351471Y-80748529D02*
X140600000Y-80500000D01*
X141637500Y-90437500D02*
X141600000Y-90400000D01*
X148262500Y-86462500D02*
X148600000Y-86800000D01*
X144500000Y-97750000D02*
X144500000Y-98700000D01*
X142500000Y-79200000D02*
X144500000Y-79200000D01*
X136980000Y-92220000D02*
X136980000Y-93800000D01*
X139700000Y-80900000D02*
X139851471Y-80748529D01*
X150950552Y-83200000D02*
X149580000Y-84570552D01*
X149200000Y-86000000D02*
X149400000Y-85800000D01*
X141200000Y-79100000D02*
X141438629Y-79100000D01*
X143837501Y-95775000D02*
X144887932Y-95775000D01*
X151180000Y-83780000D02*
X151180000Y-83200000D01*
X146100000Y-85000000D02*
X146262500Y-85162500D01*
X146262500Y-85162500D02*
X146262500Y-86000000D01*
X151180000Y-80700000D02*
X151200000Y-80720000D01*
X151200000Y-80720000D02*
X151200000Y-83180000D01*
X140120000Y-83000000D02*
X140120000Y-84100000D01*
X141720000Y-98620000D02*
X141900000Y-98800000D01*
X149400000Y-85800000D02*
X149700000Y-85500000D01*
X149580000Y-85380000D02*
X149700000Y-85500000D01*
X136835000Y-81165000D02*
X136835000Y-81400000D01*
X152500000Y-81700000D02*
X152500000Y-83701471D01*
X148637500Y-86837500D02*
X148600000Y-86800000D01*
X139990000Y-82468456D02*
X140120000Y-82598456D01*
X139700000Y-80780001D02*
X139579999Y-80660000D01*
X151200000Y-83180000D02*
X151180000Y-83200000D01*
X150637500Y-90437500D02*
X150700000Y-90500000D01*
X139851471Y-80748529D02*
X140351471Y-80748529D01*
X151180000Y-79900000D02*
X151180000Y-79100000D01*
X149500000Y-86837500D02*
X149400000Y-86737500D01*
X146262500Y-92875000D02*
X146262500Y-92175454D01*
X141438629Y-79100000D02*
X141538629Y-79200000D01*
X151180000Y-78300000D02*
X151180000Y-79100000D01*
X142800000Y-98800000D02*
X142837500Y-98762500D01*
X140120000Y-82598456D02*
X140120000Y-83000000D01*
X155750000Y-80050000D02*
X155750000Y-86350000D01*
X139700000Y-80900000D02*
X139700000Y-80780001D01*
X149400000Y-86737500D02*
X149400000Y-85800000D01*
X146262500Y-92175454D02*
X145787046Y-91700000D01*
X140600000Y-80500000D02*
X140600000Y-80138629D01*
X148662500Y-86737500D02*
X148600000Y-86800000D01*
X139880000Y-82280000D02*
X139990000Y-82390000D01*
X151180000Y-80700000D02*
X151180000Y-79900000D01*
X149500000Y-86837500D02*
X148637500Y-86837500D01*
X137300000Y-80700000D02*
X136835000Y-81165000D01*
X152101471Y-84100000D02*
X151500000Y-84100000D01*
%TO.N,+1V1*%
X147862500Y-87437500D02*
X147962500Y-87537500D01*
X147250000Y-92137500D02*
X146866140Y-92137500D01*
X145862500Y-86000000D02*
X145862500Y-86612500D01*
X147962500Y-90800000D02*
X147962500Y-91200000D01*
X147862500Y-86637500D02*
X147862500Y-86000000D01*
X148440000Y-90800000D02*
X147962500Y-90800000D01*
X147962500Y-91200000D02*
X147962500Y-91425000D01*
X146866140Y-92137500D02*
X146662500Y-92341140D01*
X147750000Y-86750000D02*
X147862500Y-86637500D01*
X147862500Y-86000000D02*
X147862500Y-87437500D01*
X145862500Y-86612500D02*
X146000000Y-86750000D01*
X146000000Y-86750000D02*
X147750000Y-86750000D01*
X146662500Y-92341140D02*
X146662500Y-92875000D01*
X147962500Y-87537500D02*
X147962500Y-90800000D01*
X147962500Y-91425000D02*
X147250000Y-92137500D01*
%TO.N,/XIN*%
X145462500Y-92875000D02*
X145462500Y-95735956D01*
X147980000Y-97430000D02*
X148150000Y-97600000D01*
X145462500Y-95735956D02*
X145726544Y-96000000D01*
X146450000Y-96000000D02*
X148050000Y-97600000D01*
X146750000Y-97430000D02*
X147980000Y-97430000D01*
X148050000Y-97600000D02*
X148150000Y-97600000D01*
X145726544Y-96000000D02*
X146450000Y-96000000D01*
%TO.N,Net-(C13-Pad2)*%
X150050000Y-95900000D02*
X150350000Y-95900000D01*
X146665000Y-95500000D02*
X146735686Y-95500000D01*
X146735686Y-95500000D02*
X147235686Y-95000000D01*
X147235686Y-95000000D02*
X149450000Y-95000000D01*
X149450000Y-95000000D02*
X150350000Y-95900000D01*
X151750000Y-95680000D02*
X150570000Y-95680000D01*
X150570000Y-95680000D02*
X150350000Y-95900000D01*
%TO.N,Net-(J3-VSS)*%
X137300000Y-78300000D02*
X137300000Y-78980000D01*
%TO.N,/USB_D+*%
X146680000Y-84500000D02*
X146680000Y-84100000D01*
X146680000Y-84100000D02*
X146100000Y-84100000D01*
%TO.N,/USB_D-*%
X148820000Y-84800000D02*
X148900000Y-84300000D01*
X148900000Y-84300000D02*
X148820000Y-84420000D01*
%TO.N,/MISO_SD*%
X143462500Y-92875000D02*
X143462500Y-91737500D01*
X139480000Y-83220000D02*
X139400000Y-83300000D01*
X143462500Y-91737500D02*
X143800000Y-91400000D01*
X139480000Y-83000000D02*
X139480000Y-83220000D01*
%TO.N,/SCL_GRYO{slash}MOSI_SD*%
X137930000Y-81173617D02*
X137930000Y-78770000D01*
X145800000Y-78300000D02*
X145800000Y-78800000D01*
X138180000Y-81423617D02*
X137930000Y-81173617D01*
X144662500Y-93637500D02*
X144662500Y-92875000D01*
X142687954Y-93600000D02*
X143100454Y-94012500D01*
X145800000Y-78800000D02*
X145600000Y-79000000D01*
X140893086Y-94927400D02*
X141065686Y-95100000D01*
X137498617Y-81423617D02*
X137475000Y-81400000D01*
X142728185Y-95100000D02*
X143337500Y-95709315D01*
X143100454Y-94012500D02*
X144287500Y-94012500D01*
X138400000Y-78300000D02*
X145800000Y-78300000D01*
X143337500Y-95709315D02*
X143337500Y-96087500D01*
X144287500Y-94012500D02*
X144662500Y-93637500D01*
X138180000Y-81423617D02*
X137498617Y-81423617D01*
X141065686Y-95100000D02*
X142728185Y-95100000D01*
X141593086Y-93600000D02*
X142687954Y-93600000D01*
X140893086Y-94300000D02*
X140893086Y-94927400D01*
X137720000Y-93900000D02*
X137620000Y-93800000D01*
X137890000Y-93900000D02*
X137720000Y-93900000D01*
X140893086Y-94300000D02*
X141593086Y-93600000D01*
X137930000Y-78770000D02*
X138400000Y-78300000D01*
%TO.N,/SDA_GYRO{slash}SCK_SD*%
X142837500Y-95775001D02*
X142837500Y-96087500D01*
X141000000Y-80304315D02*
X141504315Y-79800000D01*
X140900000Y-95500000D02*
X142100000Y-95500000D01*
X143266140Y-93612500D02*
X144058860Y-93612500D01*
X142100000Y-95500000D02*
X142300000Y-95700000D01*
X138900000Y-82200000D02*
X139400000Y-81700000D01*
X139400000Y-81700000D02*
X140300001Y-81700000D01*
X140200000Y-94800000D02*
X140900000Y-95500000D01*
X142762499Y-95700000D02*
X142837500Y-95775001D01*
X144262500Y-93408860D02*
X144262500Y-92875000D01*
X142853640Y-93200000D02*
X143266140Y-93612500D01*
X143400000Y-79800000D02*
X143800000Y-80200000D01*
X140200000Y-93900263D02*
X140200000Y-94800000D01*
X142300000Y-95700000D02*
X142762499Y-95700000D01*
X141504315Y-79800000D02*
X143400000Y-79800000D01*
X140200263Y-93900000D02*
X140900263Y-93200000D01*
X140900263Y-93200000D02*
X142853640Y-93200000D01*
X141000000Y-81000001D02*
X141000000Y-80304315D01*
X140200263Y-93900000D02*
X140200000Y-93900263D01*
X138684095Y-93684095D02*
X138100000Y-93100000D01*
X140300001Y-81700000D02*
X141000000Y-81000001D01*
X144058860Y-93612500D02*
X144262500Y-93408860D01*
X138100000Y-93100000D02*
X137620000Y-93100000D01*
X138735905Y-93684095D02*
X138684095Y-93684095D01*
X138900000Y-81300000D02*
X138900000Y-82200000D01*
X139000000Y-82100000D02*
X138900000Y-82200000D01*
%TO.N,/CS_SD*%
X140700000Y-82200000D02*
X140520000Y-82200000D01*
X144500046Y-91703594D02*
X143862500Y-92341140D01*
X143862500Y-92341140D02*
X143862500Y-92875000D01*
X144540159Y-91703594D02*
X144500046Y-91703594D01*
%TO.N,/Pad*%
X140280000Y-79200000D02*
X140380000Y-79100000D01*
X139000000Y-79200000D02*
X140280000Y-79200000D01*
%TO.N,/XOUT*%
X146025000Y-95500000D02*
X145862500Y-95337500D01*
X145862500Y-95337500D02*
X145862500Y-92875000D01*
%TO.N,Net-(U1-USB_DP)*%
X147320000Y-84658456D02*
X147320000Y-84500000D01*
X147062500Y-84915956D02*
X147320000Y-84658456D01*
X147062500Y-86000000D02*
X147062500Y-84915956D01*
%TO.N,Net-(U1-USB_DM)*%
X148180000Y-84800000D02*
X147950001Y-84800000D01*
X147950001Y-84800000D02*
X147462500Y-85287501D01*
X147462500Y-85287501D02*
X147462500Y-86000000D01*
%TO.N,/QSPI_SD0*%
X144662500Y-86000000D02*
X144662500Y-82337500D01*
X144662500Y-82337500D02*
X144750000Y-82250000D01*
X148190000Y-83010000D02*
X149455000Y-83010000D01*
X148100000Y-83100000D02*
X148190000Y-83010000D01*
%TO.N,/SCL_OLED*%
X149287500Y-93500000D02*
X148662500Y-92875000D01*
X156750000Y-97750000D02*
X152000000Y-93000000D01*
X149500000Y-93500000D02*
X149287500Y-93500000D01*
X158750000Y-97750000D02*
X156750000Y-97750000D01*
%TO.N,/speaker*%
X137900000Y-87500000D02*
X137200000Y-86800000D01*
X137900000Y-90700000D02*
X137900000Y-87500000D01*
X139237500Y-92037500D02*
X137900000Y-90700000D01*
X142625000Y-92037500D02*
X139237500Y-92037500D01*
%TO.N,/QSPI_SD2*%
X144262500Y-83262500D02*
X142740000Y-81740000D01*
X142740000Y-81740000D02*
X142500000Y-81740000D01*
X144262500Y-86000000D02*
X144262500Y-83262500D01*
%TO.N,/QSPI_SD3*%
X147151471Y-83200000D02*
X146000000Y-83200000D01*
X147941471Y-82410000D02*
X147151471Y-83200000D01*
X146000000Y-83200000D02*
X145462500Y-83737500D01*
X150800000Y-82669448D02*
X150540552Y-82410000D01*
X145462500Y-83737500D02*
X145462500Y-86000000D01*
X149700000Y-80470000D02*
X149870552Y-80470000D01*
X150800000Y-81399448D02*
X150800000Y-82669448D01*
X149870552Y-80470000D02*
X150800000Y-81399448D01*
X150540552Y-82410000D02*
X147941471Y-82410000D01*
%TO.N,/SDA_OLED*%
X148466140Y-93612500D02*
X148262500Y-93408860D01*
X155500000Y-95500000D02*
X153250000Y-93250000D01*
X148566343Y-93612500D02*
X148466140Y-93612500D01*
X158750000Y-95500000D02*
X155500000Y-95500000D01*
X149192307Y-94238464D02*
X148566343Y-93612500D01*
X148262500Y-93408860D02*
X148262500Y-92875000D01*
%TO.N,/QSPI_SCLK*%
X145062500Y-86000000D02*
X145062500Y-82937500D01*
X145062500Y-82937500D02*
X145200000Y-82800000D01*
X145200000Y-82800000D02*
X146985785Y-82800000D01*
X148045785Y-81740000D02*
X149455000Y-81740000D01*
X146985785Y-82800000D02*
X148045785Y-81740000D01*
%TO.N,/QSPI_SD1*%
X143862500Y-86000000D02*
X143862500Y-85466140D01*
X141400000Y-80470000D02*
X142500000Y-80470000D01*
X143862500Y-85466140D02*
X143658860Y-85262500D01*
X141400000Y-83350552D02*
X141400000Y-80470000D01*
X143658860Y-85262500D02*
X143658860Y-83637651D01*
X142500000Y-80470000D02*
X142650000Y-80620000D01*
X141687099Y-83637651D02*
X141400000Y-83350552D01*
X143658860Y-83637651D02*
X141687099Y-83637651D01*
%TO.N,/SWCLK*%
X146582795Y-94299998D02*
X146582795Y-94251472D01*
X146582795Y-94382795D02*
X146582795Y-94299998D01*
X146582795Y-94251472D02*
X147062500Y-93771767D01*
X146600000Y-94400000D02*
X146582795Y-94382795D01*
X147062500Y-93771767D02*
X147062500Y-92875000D01*
%TO.N,/GPIO_18*%
X149500000Y-92037500D02*
X152500000Y-95037500D01*
X152500000Y-95037500D02*
X152500000Y-98000000D01*
%TO.N,/SWD*%
X147382797Y-94299999D02*
X147299999Y-94299999D01*
X147382797Y-94299999D02*
X147462500Y-94220296D01*
X147462500Y-94220296D02*
X147462500Y-92875000D01*
%TO.N,/GPIO_9*%
X140037500Y-91237500D02*
X139600000Y-90800000D01*
X138600000Y-84200000D02*
X137200000Y-82800000D01*
X139600000Y-90800000D02*
X139600000Y-86400000D01*
X142625000Y-91237500D02*
X140037500Y-91237500D01*
X138600000Y-85400000D02*
X138600000Y-84200000D01*
X139600000Y-86400000D02*
X138600000Y-85400000D01*
%TO.N,/GPIO_19*%
X153750000Y-91750000D02*
X153637500Y-91637500D01*
X153637500Y-91637500D02*
X149500000Y-91637500D01*
%TO.N,/GPIO_26_ADC0*%
X149500000Y-88437500D02*
X157687500Y-88437500D01*
X157687500Y-88437500D02*
X158000000Y-88750000D01*
%TO.N,/TESTEN*%
X141890000Y-94320000D02*
X141982500Y-94412500D01*
X144749998Y-94412500D02*
X145062500Y-94099998D01*
X141982500Y-94412500D02*
X144749998Y-94412500D01*
X145062500Y-94099998D02*
X145062500Y-92875000D01*
%TO.N,/RUN*%
X147862500Y-93939603D02*
X148172897Y-94250000D01*
X148172897Y-94250000D02*
X148250000Y-94250000D01*
X147862500Y-92875000D02*
X147862500Y-93939603D01*
%TO.N,/GPIO_10*%
X138600000Y-86200000D02*
X137200000Y-84800000D01*
X139437500Y-91637500D02*
X138600000Y-90800000D01*
X142625000Y-91637500D02*
X139437500Y-91637500D01*
X138600000Y-90800000D02*
X138600000Y-86200000D01*
%TD*%
%TA.AperFunction,Conductor*%
%TO.N,+3.3V*%
G36*
X137542539Y-88538831D02*
G01*
X137588294Y-88591635D01*
X137599500Y-88643146D01*
X137599500Y-90739562D01*
X137602297Y-90750000D01*
X137619979Y-90815990D01*
X137630711Y-90834578D01*
X137633589Y-90839562D01*
X137643440Y-90856625D01*
X137659537Y-90884507D01*
X137659539Y-90884510D01*
X137659540Y-90884511D01*
X139052989Y-92277960D01*
X139121512Y-92317522D01*
X139197938Y-92338000D01*
X139197940Y-92338000D01*
X143038000Y-92338000D01*
X143105039Y-92357685D01*
X143150794Y-92410489D01*
X143162000Y-92462000D01*
X143162000Y-92816269D01*
X143142315Y-92883308D01*
X143089511Y-92929063D01*
X143020353Y-92939007D01*
X142976004Y-92923659D01*
X142969631Y-92919980D01*
X142969630Y-92919979D01*
X142969629Y-92919979D01*
X142893202Y-92899500D01*
X140860701Y-92899500D01*
X140822487Y-92909739D01*
X140784272Y-92919979D01*
X140766901Y-92930009D01*
X140733142Y-92949500D01*
X140733140Y-92949500D01*
X140733140Y-92949501D01*
X140715755Y-92959537D01*
X140715750Y-92959541D01*
X140312110Y-93363181D01*
X140250787Y-93396666D01*
X140224429Y-93399500D01*
X140128299Y-93399500D01*
X139990212Y-93440045D01*
X139869136Y-93517856D01*
X139774886Y-93626626D01*
X139774885Y-93626628D01*
X139715097Y-93757543D01*
X139694616Y-93900000D01*
X139715097Y-94042456D01*
X139761494Y-94144049D01*
X139774886Y-94173373D01*
X139869135Y-94282143D01*
X139869136Y-94282144D01*
X139869213Y-94282232D01*
X139898238Y-94345788D01*
X139899500Y-94363435D01*
X139899500Y-94839562D01*
X139913268Y-94890942D01*
X139919978Y-94915986D01*
X139919980Y-94915991D01*
X139923164Y-94921505D01*
X139923166Y-94921512D01*
X139923167Y-94921512D01*
X139959535Y-94984504D01*
X139959539Y-94984509D01*
X139959540Y-94984511D01*
X140659540Y-95684511D01*
X140715489Y-95740460D01*
X140715491Y-95740461D01*
X140715495Y-95740464D01*
X140784004Y-95780017D01*
X140784011Y-95780021D01*
X140860438Y-95800500D01*
X140939562Y-95800500D01*
X141607591Y-95800500D01*
X141674630Y-95820185D01*
X141720385Y-95872989D01*
X141730329Y-95942147D01*
X141709890Y-95994577D01*
X141708285Y-95996918D01*
X141664793Y-96095417D01*
X141664793Y-96095419D01*
X141662000Y-96119491D01*
X141662000Y-96380496D01*
X141662001Y-96380504D01*
X141664793Y-96404580D01*
X141684810Y-96449914D01*
X141693881Y-96519191D01*
X141684810Y-96550084D01*
X141664793Y-96595418D01*
X141662000Y-96619491D01*
X141662000Y-96880496D01*
X141662001Y-96880504D01*
X141664793Y-96904580D01*
X141684810Y-96949914D01*
X141693881Y-97019191D01*
X141684810Y-97050084D01*
X141664793Y-97095418D01*
X141662000Y-97119491D01*
X141662000Y-97352222D01*
X141642315Y-97419261D01*
X141589511Y-97465016D01*
X141543271Y-97476110D01*
X141447145Y-97480200D01*
X141379330Y-97463383D01*
X141348161Y-97437515D01*
X141331128Y-97417857D01*
X141331127Y-97417856D01*
X141251364Y-97366596D01*
X141210053Y-97340047D01*
X141210051Y-97340046D01*
X141210049Y-97340045D01*
X141210050Y-97340045D01*
X141071963Y-97299500D01*
X141071961Y-97299500D01*
X140928039Y-97299500D01*
X140928036Y-97299500D01*
X140789949Y-97340045D01*
X140668873Y-97417856D01*
X140668872Y-97417856D01*
X140668872Y-97417857D01*
X140663534Y-97424017D01*
X140574623Y-97526626D01*
X140574622Y-97526628D01*
X140514834Y-97657543D01*
X140494353Y-97800000D01*
X140514834Y-97942456D01*
X140574622Y-98073371D01*
X140579418Y-98080834D01*
X140576378Y-98082787D01*
X140598251Y-98130776D01*
X140599500Y-98148321D01*
X140599500Y-98154867D01*
X140599903Y-98158339D01*
X140588068Y-98227199D01*
X140577053Y-98245491D01*
X140572364Y-98251945D01*
X140514835Y-98364853D01*
X140506102Y-98420000D01*
X141493898Y-98420000D01*
X141485164Y-98364853D01*
X141430794Y-98258145D01*
X141417898Y-98189476D01*
X141444174Y-98124735D01*
X141501281Y-98084478D01*
X141536004Y-98077962D01*
X141731100Y-98069660D01*
X141786457Y-98080114D01*
X141882920Y-98122707D01*
X141906995Y-98125500D01*
X142249864Y-98125499D01*
X142316902Y-98145183D01*
X142362657Y-98197987D01*
X142372336Y-98230102D01*
X142376870Y-98258732D01*
X142432599Y-98368107D01*
X142432602Y-98368111D01*
X142519388Y-98454897D01*
X142519393Y-98454900D01*
X142628761Y-98510627D01*
X142662499Y-98515970D01*
X142662500Y-98515970D01*
X142662500Y-97982162D01*
X142673065Y-97932078D01*
X142685207Y-97904580D01*
X142688000Y-97880505D01*
X142688000Y-97861500D01*
X142707685Y-97794461D01*
X142760489Y-97748706D01*
X142812000Y-97737500D01*
X142838000Y-97737500D01*
X142905039Y-97757185D01*
X142950794Y-97809989D01*
X142962000Y-97861500D01*
X142962000Y-98180496D01*
X142962001Y-98180505D01*
X142964793Y-98204580D01*
X142964793Y-98204581D01*
X142970686Y-98217927D01*
X142999315Y-98282765D01*
X143001934Y-98288695D01*
X143012500Y-98338782D01*
X143012500Y-98515970D01*
X143046238Y-98510627D01*
X143155607Y-98454900D01*
X143163475Y-98449184D01*
X143229280Y-98425701D01*
X143236332Y-98425499D01*
X143468004Y-98425499D01*
X143492080Y-98422707D01*
X143537414Y-98402689D01*
X143606690Y-98393618D01*
X143637586Y-98402689D01*
X143682920Y-98422707D01*
X143706995Y-98425500D01*
X143968004Y-98425499D01*
X143992080Y-98422707D01*
X144057960Y-98393618D01*
X144090573Y-98379218D01*
X144090574Y-98379217D01*
X144090579Y-98379215D01*
X144166715Y-98303079D01*
X144168555Y-98298911D01*
X144213639Y-98245538D01*
X144280425Y-98225010D01*
X144281988Y-98225000D01*
X144325000Y-98225000D01*
X144675000Y-98225000D01*
X144755496Y-98225000D01*
X144846232Y-98210629D01*
X144955607Y-98154900D01*
X144955611Y-98154897D01*
X145042397Y-98068111D01*
X145042400Y-98068106D01*
X145098127Y-97958738D01*
X145103470Y-97925000D01*
X144675000Y-97925000D01*
X144675000Y-98225000D01*
X144325000Y-98225000D01*
X144325000Y-97749499D01*
X144344685Y-97682460D01*
X144397489Y-97636705D01*
X144448997Y-97625499D01*
X144768004Y-97625499D01*
X144792080Y-97622707D01*
X144814038Y-97613011D01*
X144876197Y-97585566D01*
X144926283Y-97575000D01*
X145103471Y-97575000D01*
X145103470Y-97574999D01*
X145098127Y-97541261D01*
X145042400Y-97431892D01*
X145036679Y-97424017D01*
X145013201Y-97358210D01*
X145012999Y-97351165D01*
X145012999Y-97119496D01*
X145010207Y-97095420D01*
X144990189Y-97050086D01*
X144981118Y-96980809D01*
X144990191Y-96949912D01*
X145010206Y-96904584D01*
X145010206Y-96904583D01*
X145010206Y-96904582D01*
X145010207Y-96904580D01*
X145013000Y-96880505D01*
X145012999Y-96619496D01*
X145010207Y-96595420D01*
X144990189Y-96550086D01*
X144981118Y-96480809D01*
X144990191Y-96449912D01*
X145010206Y-96404584D01*
X145010206Y-96404583D01*
X145010206Y-96404582D01*
X145010207Y-96404580D01*
X145013000Y-96380505D01*
X145012999Y-96119496D01*
X145010207Y-96095420D01*
X145010205Y-96095415D01*
X144966718Y-95996926D01*
X144966716Y-95996923D01*
X144966715Y-95996921D01*
X144890579Y-95920785D01*
X144819733Y-95889503D01*
X144792081Y-95877293D01*
X144768008Y-95874500D01*
X144425137Y-95874500D01*
X144358098Y-95854815D01*
X144312343Y-95802011D01*
X144302664Y-95769898D01*
X144298129Y-95741267D01*
X144242400Y-95631892D01*
X144242397Y-95631888D01*
X144155611Y-95545102D01*
X144155606Y-95545099D01*
X144046237Y-95489372D01*
X144012500Y-95484028D01*
X144012500Y-96017836D01*
X144001934Y-96067923D01*
X143989793Y-96095417D01*
X143989793Y-96095419D01*
X143987000Y-96119491D01*
X143987000Y-96138500D01*
X143967315Y-96205539D01*
X143914511Y-96251294D01*
X143863000Y-96262500D01*
X143837000Y-96262500D01*
X143769961Y-96242815D01*
X143724206Y-96190011D01*
X143713000Y-96138500D01*
X143712999Y-95819503D01*
X143712999Y-95819496D01*
X143710207Y-95795420D01*
X143703406Y-95780017D01*
X143673066Y-95711303D01*
X143662500Y-95661217D01*
X143662500Y-95484028D01*
X143619126Y-95490899D01*
X143618594Y-95487543D01*
X143566033Y-95489015D01*
X143509944Y-95456788D01*
X142977837Y-94924681D01*
X142944352Y-94863358D01*
X142949336Y-94793666D01*
X142991208Y-94737733D01*
X143056672Y-94713316D01*
X143065518Y-94713000D01*
X144789558Y-94713000D01*
X144789560Y-94713000D01*
X144865987Y-94692521D01*
X144934509Y-94652960D01*
X144950319Y-94637150D01*
X145011642Y-94603665D01*
X145081334Y-94608649D01*
X145137267Y-94650521D01*
X145161684Y-94715985D01*
X145162000Y-94724831D01*
X145162000Y-95775518D01*
X145163207Y-95780021D01*
X145182479Y-95851947D01*
X145182481Y-95851950D01*
X145204159Y-95889497D01*
X145204161Y-95889499D01*
X145204162Y-95889501D01*
X145222040Y-95920467D01*
X145542033Y-96240460D01*
X145610556Y-96280022D01*
X145686982Y-96300500D01*
X146274167Y-96300500D01*
X146341206Y-96320185D01*
X146361848Y-96336819D01*
X146812848Y-96787819D01*
X146846333Y-96849142D01*
X146841349Y-96918834D01*
X146799477Y-96974767D01*
X146734013Y-96999184D01*
X146725168Y-96999500D01*
X146605144Y-96999500D01*
X146605117Y-96999502D01*
X146580012Y-97002413D01*
X146580008Y-97002415D01*
X146477235Y-97047793D01*
X146397794Y-97127234D01*
X146352415Y-97230006D01*
X146352415Y-97230008D01*
X146349500Y-97255131D01*
X146349500Y-97604856D01*
X146349502Y-97604882D01*
X146352413Y-97629986D01*
X146352414Y-97629990D01*
X146352415Y-97629991D01*
X146383289Y-97699914D01*
X146392360Y-97769191D01*
X146383289Y-97800084D01*
X146352415Y-97870006D01*
X146352415Y-97870008D01*
X146349500Y-97895131D01*
X146349500Y-98193963D01*
X146329815Y-98261002D01*
X146319216Y-98275161D01*
X146312629Y-98282765D01*
X146274621Y-98326629D01*
X146214834Y-98457543D01*
X146194353Y-98600000D01*
X146214834Y-98742457D01*
X146214835Y-98742458D01*
X146252069Y-98823989D01*
X146262013Y-98893147D01*
X146232988Y-98956703D01*
X146174210Y-98994477D01*
X146139275Y-98999500D01*
X141610655Y-98999500D01*
X141543616Y-98979815D01*
X141497861Y-98927011D01*
X141487917Y-98857853D01*
X141488181Y-98856104D01*
X141493898Y-98820000D01*
X140506101Y-98820000D01*
X140511819Y-98856104D01*
X140502863Y-98925398D01*
X140457865Y-98978849D01*
X140391113Y-98999487D01*
X140389345Y-98999500D01*
X139412741Y-98999500D01*
X139345702Y-98979815D01*
X139299947Y-98927011D01*
X139290003Y-98857853D01*
X139319028Y-98794297D01*
X139330766Y-98782559D01*
X139331124Y-98782145D01*
X139331128Y-98782143D01*
X139425377Y-98673373D01*
X139485165Y-98542457D01*
X139505647Y-98400000D01*
X139485165Y-98257543D01*
X139425377Y-98126627D01*
X139425374Y-98126624D01*
X139420582Y-98119166D01*
X139423321Y-98117405D01*
X139400914Y-98068318D01*
X139400481Y-98064982D01*
X139400097Y-98061672D01*
X139411925Y-97992810D01*
X139422956Y-97974492D01*
X139427643Y-97968041D01*
X139485164Y-97855148D01*
X139493898Y-97800000D01*
X138506102Y-97800000D01*
X138514835Y-97855146D01*
X138572362Y-97968049D01*
X138577048Y-97974500D01*
X138600525Y-98040308D01*
X138599902Y-98061658D01*
X138599518Y-98064971D01*
X138577157Y-98117713D01*
X138579418Y-98119166D01*
X138574622Y-98126628D01*
X138514834Y-98257543D01*
X138494353Y-98400000D01*
X138514834Y-98542456D01*
X138541114Y-98600000D01*
X138574623Y-98673373D01*
X138668872Y-98782143D01*
X138668873Y-98782143D01*
X138674680Y-98788845D01*
X138673598Y-98789781D01*
X138706236Y-98840565D01*
X138706236Y-98910434D01*
X138668462Y-98969213D01*
X138604907Y-98998238D01*
X138587259Y-98999500D01*
X136624500Y-98999500D01*
X136557461Y-98979815D01*
X136511706Y-98927011D01*
X136500500Y-98875500D01*
X136500500Y-97400000D01*
X138506102Y-97400000D01*
X138800000Y-97400000D01*
X139200000Y-97400000D01*
X139493898Y-97400000D01*
X139485164Y-97344853D01*
X139427639Y-97231953D01*
X139427636Y-97231949D01*
X139338050Y-97142363D01*
X139338046Y-97142360D01*
X139225143Y-97084833D01*
X139200000Y-97080851D01*
X139200000Y-97400000D01*
X138800000Y-97400000D01*
X138800000Y-97080851D01*
X138774856Y-97084833D01*
X138661953Y-97142360D01*
X138661949Y-97142363D01*
X138572363Y-97231949D01*
X138572360Y-97231953D01*
X138514835Y-97344853D01*
X138506102Y-97400000D01*
X136500500Y-97400000D01*
X136500500Y-94373201D01*
X136520185Y-94306162D01*
X136572989Y-94260407D01*
X136642147Y-94250463D01*
X136680795Y-94262716D01*
X136724853Y-94285164D01*
X136780000Y-94293898D01*
X136780000Y-94293897D01*
X137180000Y-94293897D01*
X137235149Y-94285164D01*
X137348044Y-94227641D01*
X137354488Y-94222959D01*
X137420293Y-94199475D01*
X137441666Y-94200098D01*
X137445063Y-94200492D01*
X137509388Y-94227769D01*
X137524491Y-94242465D01*
X137558869Y-94282141D01*
X137558871Y-94282142D01*
X137558872Y-94282143D01*
X137679947Y-94359953D01*
X137679950Y-94359954D01*
X137679949Y-94359954D01*
X137818036Y-94400499D01*
X137818038Y-94400500D01*
X137818039Y-94400500D01*
X137961962Y-94400500D01*
X137961962Y-94400499D01*
X138069121Y-94369035D01*
X138100050Y-94359954D01*
X138100050Y-94359953D01*
X138100053Y-94359953D01*
X138221128Y-94282143D01*
X138315377Y-94173373D01*
X138315379Y-94173367D01*
X138320171Y-94165913D01*
X138322015Y-94167098D01*
X138359789Y-94123500D01*
X138426827Y-94103812D01*
X138493867Y-94123493D01*
X138493874Y-94123497D01*
X138525853Y-94144049D01*
X138663941Y-94184594D01*
X138663943Y-94184595D01*
X138663944Y-94184595D01*
X138807867Y-94184595D01*
X138807867Y-94184594D01*
X138945958Y-94144048D01*
X139067033Y-94066238D01*
X139161282Y-93957468D01*
X139221070Y-93826552D01*
X139241552Y-93684095D01*
X139221070Y-93541638D01*
X139161282Y-93410722D01*
X139067033Y-93301952D01*
X138945958Y-93224142D01*
X138945956Y-93224141D01*
X138945954Y-93224140D01*
X138945955Y-93224140D01*
X138807868Y-93183595D01*
X138807866Y-93183595D01*
X138663944Y-93183595D01*
X138659928Y-93183595D01*
X138592889Y-93163910D01*
X138572247Y-93147276D01*
X138284512Y-92859541D01*
X138284507Y-92859537D01*
X138267124Y-92849502D01*
X138267120Y-92849498D01*
X138267120Y-92849499D01*
X138228557Y-92827235D01*
X138215990Y-92819979D01*
X138190513Y-92813152D01*
X138139562Y-92799500D01*
X138139560Y-92799500D01*
X138025833Y-92799500D01*
X137958794Y-92779815D01*
X137938152Y-92763181D01*
X137922765Y-92747794D01*
X137819992Y-92702415D01*
X137794865Y-92699500D01*
X137445143Y-92699500D01*
X137445124Y-92699502D01*
X137441656Y-92699904D01*
X137372796Y-92688066D01*
X137354504Y-92677051D01*
X137348048Y-92672361D01*
X137235145Y-92614833D01*
X137180000Y-92606099D01*
X137180000Y-94293897D01*
X136780000Y-94293897D01*
X136780000Y-92606101D01*
X136724852Y-92614835D01*
X136680793Y-92637284D01*
X136612124Y-92650179D01*
X136547384Y-92623901D01*
X136507128Y-92566794D01*
X136500500Y-92526798D01*
X136500500Y-88965291D01*
X136520185Y-88898252D01*
X136572989Y-88852497D01*
X136642147Y-88842553D01*
X136681450Y-88857215D01*
X136681882Y-88856270D01*
X136689949Y-88859954D01*
X136828036Y-88900499D01*
X136828038Y-88900500D01*
X136828039Y-88900500D01*
X136971962Y-88900500D01*
X136971962Y-88900499D01*
X137079121Y-88869035D01*
X137110050Y-88859954D01*
X137110050Y-88859953D01*
X137110053Y-88859953D01*
X137231128Y-88782143D01*
X137325377Y-88673373D01*
X137339182Y-88643146D01*
X137362706Y-88591635D01*
X137408461Y-88538831D01*
X137475500Y-88519146D01*
X137542539Y-88538831D01*
G37*
%TD.AperFunction*%
%TA.AperFunction,Conductor*%
G36*
X156118362Y-77920185D02*
G01*
X156164117Y-77972989D01*
X156174061Y-78042147D01*
X156166745Y-78065217D01*
X156167849Y-78065576D01*
X156164834Y-78074853D01*
X156160851Y-78100000D01*
X156756000Y-78100000D01*
X156823039Y-78119685D01*
X156868794Y-78172489D01*
X156880000Y-78224000D01*
X156880000Y-78376000D01*
X156860315Y-78443039D01*
X156807511Y-78488794D01*
X156756000Y-78500000D01*
X156160851Y-78500000D01*
X156164833Y-78525143D01*
X156187539Y-78569705D01*
X156200435Y-78638374D01*
X156174159Y-78703114D01*
X156117053Y-78743372D01*
X156077054Y-78750000D01*
X156050000Y-78750000D01*
X156050000Y-79800000D01*
X156849999Y-79800000D01*
X156849999Y-79369708D01*
X156869684Y-79302669D01*
X156922488Y-79256914D01*
X156991646Y-79246970D01*
X157055202Y-79275995D01*
X157073872Y-79298610D01*
X157074590Y-79298060D01*
X157079541Y-79304512D01*
X157113181Y-79338152D01*
X157146666Y-79399475D01*
X157149500Y-79425833D01*
X157149500Y-80712727D01*
X157160670Y-80797562D01*
X157164172Y-80824168D01*
X157164313Y-80825235D01*
X157164313Y-80825236D01*
X157220371Y-80960573D01*
X157222302Y-80965233D01*
X157314549Y-81085451D01*
X157434767Y-81177698D01*
X157574764Y-81235687D01*
X157687280Y-81250500D01*
X157687287Y-81250500D01*
X158512713Y-81250500D01*
X158512720Y-81250500D01*
X158625236Y-81235687D01*
X158765233Y-81177698D01*
X158885451Y-81085451D01*
X158977698Y-80965233D01*
X159035687Y-80825236D01*
X159050500Y-80712720D01*
X159050500Y-79387280D01*
X159035687Y-79274764D01*
X158977698Y-79134767D01*
X158885451Y-79014549D01*
X158765233Y-78922302D01*
X158765229Y-78922300D01*
X158693693Y-78892669D01*
X158625236Y-78864313D01*
X158611171Y-78862461D01*
X158512727Y-78849500D01*
X158512720Y-78849500D01*
X157744500Y-78849500D01*
X157677461Y-78829815D01*
X157631706Y-78777011D01*
X157620500Y-78725500D01*
X157620500Y-78705833D01*
X157640185Y-78638794D01*
X157656819Y-78618152D01*
X157674971Y-78600000D01*
X157702206Y-78572765D01*
X157747585Y-78469991D01*
X157750500Y-78444865D01*
X157750499Y-78155136D01*
X157750497Y-78155117D01*
X157747586Y-78130013D01*
X157747585Y-78130011D01*
X157747585Y-78130009D01*
X157723112Y-78074584D01*
X157714042Y-78005307D01*
X157743866Y-77942123D01*
X157803116Y-77905092D01*
X157836548Y-77900500D01*
X159375500Y-77900500D01*
X159442539Y-77920185D01*
X159488294Y-77972989D01*
X159499500Y-78024500D01*
X159499500Y-90552691D01*
X159479815Y-90619730D01*
X159463181Y-90640372D01*
X159103553Y-91000000D01*
X159463181Y-91359627D01*
X159496666Y-91420950D01*
X159499500Y-91447308D01*
X159499500Y-94954925D01*
X159479815Y-95021964D01*
X159427011Y-95067719D01*
X159357853Y-95077663D01*
X159294297Y-95048638D01*
X159282685Y-95037153D01*
X159278183Y-95032071D01*
X159150849Y-94919263D01*
X159000226Y-94840210D01*
X158835056Y-94799500D01*
X158664944Y-94799500D01*
X158499773Y-94840210D01*
X158349150Y-94919263D01*
X158260345Y-94997938D01*
X158221817Y-95032071D01*
X158145690Y-95142360D01*
X158143218Y-95145941D01*
X158088935Y-95189931D01*
X158041168Y-95199500D01*
X155675833Y-95199500D01*
X155608794Y-95179815D01*
X155588152Y-95163181D01*
X153789395Y-93364424D01*
X153755910Y-93303101D01*
X153754339Y-93259094D01*
X153755647Y-93250000D01*
X153746173Y-93184108D01*
X158249500Y-93184108D01*
X158249500Y-93315891D01*
X158283608Y-93443187D01*
X158287542Y-93450000D01*
X158349500Y-93557314D01*
X158442686Y-93650500D01*
X158556814Y-93716392D01*
X158684108Y-93750500D01*
X158684110Y-93750500D01*
X158815890Y-93750500D01*
X158815892Y-93750500D01*
X158943186Y-93716392D01*
X159057314Y-93650500D01*
X159150500Y-93557314D01*
X159216392Y-93443186D01*
X159250500Y-93315892D01*
X159250500Y-93184108D01*
X159216392Y-93056814D01*
X159150500Y-92942686D01*
X159057314Y-92849500D01*
X158954339Y-92790047D01*
X158943187Y-92783608D01*
X158879539Y-92766554D01*
X158815892Y-92749500D01*
X158684108Y-92749500D01*
X158556812Y-92783608D01*
X158442686Y-92849500D01*
X158442683Y-92849502D01*
X158349502Y-92942683D01*
X158349500Y-92942686D01*
X158283608Y-93056812D01*
X158249500Y-93184108D01*
X153746173Y-93184108D01*
X153735165Y-93107543D01*
X153675377Y-92976627D01*
X153581128Y-92867857D01*
X153460053Y-92790047D01*
X153460051Y-92790046D01*
X153460049Y-92790045D01*
X153460050Y-92790045D01*
X153321963Y-92749500D01*
X153321961Y-92749500D01*
X153178039Y-92749500D01*
X153178036Y-92749500D01*
X153039949Y-92790045D01*
X152918873Y-92867856D01*
X152824623Y-92976626D01*
X152824622Y-92976628D01*
X152766190Y-93104575D01*
X152720435Y-93157379D01*
X152653395Y-93177063D01*
X152586356Y-93157378D01*
X152565715Y-93140744D01*
X152539395Y-93114424D01*
X152505910Y-93053101D01*
X152504339Y-93009094D01*
X152505647Y-93000000D01*
X152485165Y-92857543D01*
X152425377Y-92726627D01*
X152331128Y-92617857D01*
X152210053Y-92540047D01*
X152210051Y-92540046D01*
X152210049Y-92540045D01*
X152210050Y-92540045D01*
X152071963Y-92499500D01*
X152071961Y-92499500D01*
X151928039Y-92499500D01*
X151928036Y-92499500D01*
X151789949Y-92540045D01*
X151668873Y-92617856D01*
X151574623Y-92726626D01*
X151574622Y-92726628D01*
X151514834Y-92857543D01*
X151494353Y-93000000D01*
X151514834Y-93142456D01*
X151561603Y-93244864D01*
X151574623Y-93273373D01*
X151668872Y-93382143D01*
X151789947Y-93459953D01*
X151789950Y-93459954D01*
X151789949Y-93459954D01*
X151897107Y-93491417D01*
X151926336Y-93500000D01*
X151928036Y-93500499D01*
X151928038Y-93500500D01*
X152024167Y-93500500D01*
X152091206Y-93520185D01*
X152111848Y-93536819D01*
X156509540Y-97934511D01*
X156565489Y-97990460D01*
X156565491Y-97990461D01*
X156565495Y-97990464D01*
X156634004Y-98030017D01*
X156634011Y-98030021D01*
X156710438Y-98050500D01*
X158041168Y-98050500D01*
X158108207Y-98070185D01*
X158143217Y-98104058D01*
X158221817Y-98217929D01*
X158289882Y-98278229D01*
X158349150Y-98330736D01*
X158486247Y-98402690D01*
X158499775Y-98409790D01*
X158664944Y-98450500D01*
X158835056Y-98450500D01*
X159000225Y-98409790D01*
X159090888Y-98362206D01*
X159150849Y-98330736D01*
X159150850Y-98330734D01*
X159150852Y-98330734D01*
X159278183Y-98217929D01*
X159278189Y-98217919D01*
X159282682Y-98212850D01*
X159341870Y-98175722D01*
X159411735Y-98176486D01*
X159470096Y-98214902D01*
X159498424Y-98278772D01*
X159499500Y-98295074D01*
X159499500Y-98875500D01*
X159479815Y-98942539D01*
X159427011Y-98988294D01*
X159375500Y-98999500D01*
X147260725Y-98999500D01*
X147193686Y-98979815D01*
X147147931Y-98927011D01*
X147137987Y-98857853D01*
X147147931Y-98823989D01*
X147170451Y-98774675D01*
X147185165Y-98742457D01*
X147205647Y-98600000D01*
X147193838Y-98517867D01*
X147203781Y-98448711D01*
X147249536Y-98395907D01*
X147316576Y-98376222D01*
X147364031Y-98385662D01*
X147371770Y-98388868D01*
X147430247Y-98400499D01*
X147430250Y-98400500D01*
X147430252Y-98400500D01*
X148869750Y-98400500D01*
X148869751Y-98400499D01*
X148892839Y-98395907D01*
X148928229Y-98388868D01*
X148928229Y-98388867D01*
X148928231Y-98388867D01*
X148994552Y-98344552D01*
X149038867Y-98278231D01*
X149038867Y-98278229D01*
X149038868Y-98278229D01*
X149050499Y-98219752D01*
X149050500Y-98219750D01*
X149050500Y-96980249D01*
X149050499Y-96980247D01*
X149038868Y-96921770D01*
X149038867Y-96921769D01*
X148994552Y-96855447D01*
X148991043Y-96853103D01*
X148946237Y-96799492D01*
X148937528Y-96730167D01*
X148967682Y-96667139D01*
X148991043Y-96646897D01*
X148994552Y-96644552D01*
X149023987Y-96600500D01*
X149038867Y-96578231D01*
X149038867Y-96578229D01*
X149038868Y-96578229D01*
X149047552Y-96534568D01*
X149050500Y-96519748D01*
X149050500Y-95424500D01*
X149070185Y-95357461D01*
X149122989Y-95311706D01*
X149174500Y-95300500D01*
X149274167Y-95300500D01*
X149341206Y-95320185D01*
X149361848Y-95336819D01*
X149413181Y-95388152D01*
X149446666Y-95449475D01*
X149449500Y-95475833D01*
X149449500Y-96519752D01*
X149461131Y-96578229D01*
X149461132Y-96578230D01*
X149505448Y-96644553D01*
X149508959Y-96646899D01*
X149553764Y-96700512D01*
X149562470Y-96769837D01*
X149532314Y-96832864D01*
X149508959Y-96853101D01*
X149505448Y-96855446D01*
X149461132Y-96921769D01*
X149461131Y-96921770D01*
X149449500Y-96980247D01*
X149449500Y-98219752D01*
X149461131Y-98278229D01*
X149461132Y-98278230D01*
X149505447Y-98344552D01*
X149571769Y-98388867D01*
X149571770Y-98388868D01*
X149630247Y-98400499D01*
X149630250Y-98400500D01*
X149630252Y-98400500D01*
X151069750Y-98400500D01*
X151069751Y-98400499D01*
X151092839Y-98395907D01*
X151128229Y-98388868D01*
X151128229Y-98388867D01*
X151128231Y-98388867D01*
X151194552Y-98344552D01*
X151238867Y-98278231D01*
X151238867Y-98278229D01*
X151238868Y-98278229D01*
X151250499Y-98219752D01*
X151250500Y-98219750D01*
X151250500Y-97295832D01*
X151270185Y-97228793D01*
X151286815Y-97208155D01*
X151708152Y-96786817D01*
X151769475Y-96753333D01*
X151795833Y-96750499D01*
X151894856Y-96750499D01*
X151894864Y-96750499D01*
X151894879Y-96750497D01*
X151894882Y-96750497D01*
X151919987Y-96747586D01*
X151919987Y-96747585D01*
X151919991Y-96747585D01*
X152022765Y-96702206D01*
X152022766Y-96702204D01*
X152025413Y-96701036D01*
X152094692Y-96691964D01*
X152157877Y-96721787D01*
X152194908Y-96781037D01*
X152199500Y-96814470D01*
X152199500Y-97291636D01*
X152179815Y-97358675D01*
X152133128Y-97401431D01*
X152099151Y-97419264D01*
X152099148Y-97419266D01*
X152030368Y-97480200D01*
X151971816Y-97532072D01*
X151875182Y-97672068D01*
X151814860Y-97831125D01*
X151814859Y-97831130D01*
X151794355Y-98000000D01*
X151814859Y-98168869D01*
X151814860Y-98168874D01*
X151875182Y-98327931D01*
X151915032Y-98385662D01*
X151971817Y-98467929D01*
X152028188Y-98517869D01*
X152099150Y-98580736D01*
X152249773Y-98659789D01*
X152249775Y-98659790D01*
X152414944Y-98700500D01*
X152585056Y-98700500D01*
X152750225Y-98659790D01*
X152864144Y-98600000D01*
X152900849Y-98580736D01*
X152900850Y-98580734D01*
X152900852Y-98580734D01*
X153028183Y-98467929D01*
X153124818Y-98327930D01*
X153185140Y-98168872D01*
X153205645Y-98000000D01*
X153185140Y-97831128D01*
X153124818Y-97672070D01*
X153028183Y-97532071D01*
X152900852Y-97419266D01*
X152889258Y-97413181D01*
X152866872Y-97401431D01*
X152816661Y-97352846D01*
X152800500Y-97291636D01*
X152800500Y-94997938D01*
X152796902Y-94984512D01*
X152796901Y-94984507D01*
X152780023Y-94921513D01*
X152780022Y-94921512D01*
X152776833Y-94915989D01*
X152740460Y-94852989D01*
X150161912Y-92274441D01*
X150128427Y-92213118D01*
X150127976Y-92162568D01*
X150138000Y-92112176D01*
X150138000Y-92062000D01*
X150157685Y-91994961D01*
X150210489Y-91949206D01*
X150262000Y-91938000D01*
X152986523Y-91938000D01*
X153053562Y-91957685D01*
X153099317Y-92010489D01*
X153102462Y-92018022D01*
X153107686Y-92031797D01*
X153125182Y-92077931D01*
X153168488Y-92140669D01*
X153221817Y-92217929D01*
X153299164Y-92286452D01*
X153349150Y-92330736D01*
X153432191Y-92374319D01*
X153499775Y-92409790D01*
X153664944Y-92450500D01*
X153835056Y-92450500D01*
X154000225Y-92409790D01*
X154115657Y-92349206D01*
X154150849Y-92330736D01*
X154150850Y-92330734D01*
X154150852Y-92330734D01*
X154278183Y-92217929D01*
X154374818Y-92077930D01*
X154435140Y-91918872D01*
X154455645Y-91750000D01*
X154451597Y-91716660D01*
X158386892Y-91716660D01*
X158386892Y-91716661D01*
X158400692Y-91725333D01*
X158400691Y-91725333D01*
X158570861Y-91784878D01*
X158749997Y-91805062D01*
X158750003Y-91805062D01*
X158929138Y-91784878D01*
X158929141Y-91784877D01*
X159099305Y-91725334D01*
X159099306Y-91725334D01*
X159113106Y-91716661D01*
X159113106Y-91716660D01*
X158750001Y-91353553D01*
X158750000Y-91353553D01*
X158386892Y-91716660D01*
X154451597Y-91716660D01*
X154435140Y-91581128D01*
X154419917Y-91540989D01*
X154390932Y-91464560D01*
X154374818Y-91422070D01*
X154278183Y-91282071D01*
X154165387Y-91182143D01*
X154150849Y-91169263D01*
X154000226Y-91090210D01*
X153835056Y-91049500D01*
X153664944Y-91049500D01*
X153499773Y-91090210D01*
X153349150Y-91169263D01*
X153221815Y-91282072D01*
X153220871Y-91283441D01*
X153219920Y-91284211D01*
X153216843Y-91287685D01*
X153216265Y-91287173D01*
X153166588Y-91327431D01*
X153118822Y-91337000D01*
X150262000Y-91337000D01*
X150194961Y-91317315D01*
X150149206Y-91264511D01*
X150138000Y-91213000D01*
X150138000Y-91162823D01*
X150137999Y-91162821D01*
X150123468Y-91089767D01*
X150123466Y-91089764D01*
X150123466Y-91089760D01*
X150123463Y-91089756D01*
X150121477Y-91084961D01*
X150114004Y-91015492D01*
X150118553Y-90999997D01*
X157944938Y-90999997D01*
X157944938Y-91000002D01*
X157965121Y-91179138D01*
X158024665Y-91349304D01*
X158033338Y-91363107D01*
X158396446Y-91000000D01*
X158396446Y-90999999D01*
X158346719Y-90950272D01*
X158500000Y-90950272D01*
X158500000Y-91049728D01*
X158538060Y-91141614D01*
X158608386Y-91211940D01*
X158700272Y-91250000D01*
X158799728Y-91250000D01*
X158891614Y-91211940D01*
X158961940Y-91141614D01*
X159000000Y-91049728D01*
X159000000Y-90950272D01*
X158961940Y-90858386D01*
X158891614Y-90788060D01*
X158799728Y-90750000D01*
X158700272Y-90750000D01*
X158608386Y-90788060D01*
X158538060Y-90858386D01*
X158500000Y-90950272D01*
X158346719Y-90950272D01*
X158033338Y-90636891D01*
X158033337Y-90636891D01*
X158024667Y-90650691D01*
X158024662Y-90650701D01*
X157965122Y-90820858D01*
X157965121Y-90820861D01*
X157944938Y-90999997D01*
X150118553Y-90999997D01*
X150121477Y-90990039D01*
X150123462Y-90985245D01*
X150123466Y-90985240D01*
X150124670Y-90979190D01*
X150137241Y-90915989D01*
X150138000Y-90912174D01*
X150138000Y-90783337D01*
X150157685Y-90716298D01*
X150174324Y-90695651D01*
X150176285Y-90693689D01*
X150176286Y-90693687D01*
X150227588Y-90588747D01*
X150237499Y-90520719D01*
X150237499Y-90354286D01*
X150227587Y-90286251D01*
X150226162Y-90283337D01*
X158386891Y-90283337D01*
X158386891Y-90283338D01*
X158750000Y-90646446D01*
X158750001Y-90646446D01*
X159113107Y-90283338D01*
X159099304Y-90274665D01*
X158929138Y-90215121D01*
X158750003Y-90194938D01*
X158749997Y-90194938D01*
X158570861Y-90215121D01*
X158570858Y-90215122D01*
X158400701Y-90274662D01*
X158400691Y-90274667D01*
X158386891Y-90283337D01*
X150226162Y-90283337D01*
X150176284Y-90181308D01*
X150174319Y-90179343D01*
X150172489Y-90175993D01*
X150170315Y-90172947D01*
X150170683Y-90172684D01*
X150140834Y-90118020D01*
X150138000Y-90091662D01*
X150138000Y-89962823D01*
X150137999Y-89962821D01*
X150123468Y-89889767D01*
X150123466Y-89889764D01*
X150123466Y-89889760D01*
X150123463Y-89889756D01*
X150121477Y-89884961D01*
X150114004Y-89815492D01*
X150121477Y-89790039D01*
X150123462Y-89785245D01*
X150123466Y-89785240D01*
X150138000Y-89712174D01*
X150138000Y-89562826D01*
X150138000Y-89562823D01*
X150137999Y-89562821D01*
X150123468Y-89489767D01*
X150123466Y-89489764D01*
X150123466Y-89489760D01*
X150123463Y-89489756D01*
X150121477Y-89484961D01*
X150114004Y-89415492D01*
X150121477Y-89390039D01*
X150123462Y-89385245D01*
X150123466Y-89385240D01*
X150138000Y-89312174D01*
X150138000Y-89162826D01*
X150138000Y-89162823D01*
X150137999Y-89162821D01*
X150123468Y-89089767D01*
X150123466Y-89089764D01*
X150123466Y-89089760D01*
X150123463Y-89089756D01*
X150121477Y-89084961D01*
X150114004Y-89015492D01*
X150121477Y-88990039D01*
X150123462Y-88985245D01*
X150123466Y-88985240D01*
X150138000Y-88912174D01*
X150138000Y-88862000D01*
X150157685Y-88794961D01*
X150210489Y-88749206D01*
X150262000Y-88738000D01*
X157183044Y-88738000D01*
X157250083Y-88757685D01*
X157295838Y-88810489D01*
X157306139Y-88847051D01*
X157309847Y-88877589D01*
X157314859Y-88918868D01*
X157314860Y-88918874D01*
X157375182Y-89077931D01*
X157433778Y-89162821D01*
X157471817Y-89217929D01*
X157577505Y-89311560D01*
X157599150Y-89330736D01*
X157712160Y-89390048D01*
X157749775Y-89409790D01*
X157914944Y-89450500D01*
X158085056Y-89450500D01*
X158250225Y-89409790D01*
X158329692Y-89368081D01*
X158400849Y-89330736D01*
X158400850Y-89330734D01*
X158400852Y-89330734D01*
X158528183Y-89217929D01*
X158624818Y-89077930D01*
X158685140Y-88918872D01*
X158705645Y-88750000D01*
X158685140Y-88581128D01*
X158624818Y-88422070D01*
X158528183Y-88282071D01*
X158400852Y-88169266D01*
X158400849Y-88169263D01*
X158250226Y-88090210D01*
X158085056Y-88049500D01*
X157914944Y-88049500D01*
X157749775Y-88090209D01*
X157687688Y-88122796D01*
X157630062Y-88137000D01*
X152468465Y-88137000D01*
X152401426Y-88117315D01*
X152355671Y-88064511D01*
X152345727Y-87995353D01*
X152374751Y-87931798D01*
X152425377Y-87873373D01*
X152485165Y-87742457D01*
X152505647Y-87600000D01*
X152504339Y-87590905D01*
X152514279Y-87521749D01*
X152539390Y-87485580D01*
X152740460Y-87284511D01*
X152780022Y-87215988D01*
X152800500Y-87139562D01*
X152800500Y-87060438D01*
X152800500Y-86894930D01*
X153600000Y-86894930D01*
X153615122Y-87029141D01*
X153674663Y-87199301D01*
X153770577Y-87351948D01*
X153898051Y-87479422D01*
X154050698Y-87575336D01*
X154220858Y-87634877D01*
X154355069Y-87649999D01*
X154355070Y-87650000D01*
X155550000Y-87650000D01*
X156050000Y-87650000D01*
X157244930Y-87650000D01*
X157244930Y-87649999D01*
X157379141Y-87634877D01*
X157549301Y-87575336D01*
X157701948Y-87479422D01*
X157829422Y-87351948D01*
X157925336Y-87199301D01*
X157984877Y-87029141D01*
X157999999Y-86894930D01*
X158000000Y-86894930D01*
X158000000Y-86600000D01*
X156050000Y-86600000D01*
X156050000Y-87650000D01*
X155550000Y-87650000D01*
X155550000Y-86600000D01*
X153600000Y-86600000D01*
X153600000Y-86894930D01*
X152800500Y-86894930D01*
X152800500Y-85805069D01*
X153600000Y-85805069D01*
X153600000Y-86100000D01*
X155550000Y-86100000D01*
X156050000Y-86100000D01*
X158000000Y-86100000D01*
X158000000Y-85805070D01*
X157999999Y-85805069D01*
X157984877Y-85670858D01*
X157925336Y-85500698D01*
X157829422Y-85348051D01*
X157701948Y-85220577D01*
X157549301Y-85124663D01*
X157379141Y-85065122D01*
X157244930Y-85050000D01*
X156050000Y-85050000D01*
X156050000Y-86100000D01*
X155550000Y-86100000D01*
X155550000Y-85050000D01*
X154355070Y-85050000D01*
X154220858Y-85065122D01*
X154050698Y-85124663D01*
X153898051Y-85220577D01*
X153770577Y-85348051D01*
X153674663Y-85500698D01*
X153615122Y-85670858D01*
X153600000Y-85805069D01*
X152800500Y-85805069D01*
X152800500Y-85775833D01*
X152820185Y-85708794D01*
X152836819Y-85688152D01*
X153262471Y-85262500D01*
X153690460Y-84834511D01*
X153730021Y-84765989D01*
X153750500Y-84689562D01*
X153750500Y-81374500D01*
X153770185Y-81307461D01*
X153822989Y-81261706D01*
X153874500Y-81250500D01*
X153912713Y-81250500D01*
X153912720Y-81250500D01*
X154025236Y-81235687D01*
X154165233Y-81177698D01*
X154285451Y-81085451D01*
X154377698Y-80965233D01*
X154435687Y-80825236D01*
X154448282Y-80729566D01*
X154750001Y-80729566D01*
X154756178Y-80797561D01*
X154756181Y-80797572D01*
X154804944Y-80954060D01*
X154804946Y-80954064D01*
X154889743Y-81094337D01*
X154889747Y-81094342D01*
X155005657Y-81210252D01*
X155005662Y-81210256D01*
X155145934Y-81295052D01*
X155302437Y-81343820D01*
X155370443Y-81349999D01*
X155549999Y-81349999D01*
X156050000Y-81349999D01*
X156229565Y-81349999D01*
X156297561Y-81343821D01*
X156297572Y-81343818D01*
X156454060Y-81295055D01*
X156454064Y-81295053D01*
X156594337Y-81210256D01*
X156594342Y-81210252D01*
X156710252Y-81094342D01*
X156710256Y-81094337D01*
X156795052Y-80954065D01*
X156843820Y-80797562D01*
X156850000Y-80729556D01*
X156850000Y-80300000D01*
X156050000Y-80300000D01*
X156050000Y-81349999D01*
X155549999Y-81349999D01*
X155550000Y-81349998D01*
X155550000Y-80300000D01*
X154750001Y-80300000D01*
X154750001Y-80729566D01*
X154448282Y-80729566D01*
X154450500Y-80712720D01*
X154450500Y-79387280D01*
X154435687Y-79274764D01*
X154377698Y-79134767D01*
X154285451Y-79014549D01*
X154165975Y-78922871D01*
X154124776Y-78866447D01*
X154120621Y-78796701D01*
X154154833Y-78735781D01*
X154216551Y-78703028D01*
X154241463Y-78700499D01*
X154294864Y-78700499D01*
X154294879Y-78700497D01*
X154294882Y-78700497D01*
X154319987Y-78697586D01*
X154319988Y-78697585D01*
X154319991Y-78697585D01*
X154422765Y-78652206D01*
X154492972Y-78581998D01*
X154554291Y-78548516D01*
X154623983Y-78553500D01*
X154660178Y-78578637D01*
X154662172Y-78576337D01*
X154668868Y-78582138D01*
X154668872Y-78582143D01*
X154789947Y-78659953D01*
X154789950Y-78659954D01*
X154789948Y-78659954D01*
X154888534Y-78688900D01*
X154928039Y-78700500D01*
X154928040Y-78700500D01*
X154933806Y-78702193D01*
X154992584Y-78739966D01*
X155021610Y-78803522D01*
X155011667Y-78872680D01*
X154986554Y-78908851D01*
X154889743Y-79005662D01*
X154804947Y-79145934D01*
X154756179Y-79302437D01*
X154750000Y-79370443D01*
X154750000Y-79800000D01*
X155550000Y-79800000D01*
X155550000Y-78750000D01*
X155457200Y-78750000D01*
X155390161Y-78730315D01*
X155344406Y-78677511D01*
X155334462Y-78608353D01*
X155363485Y-78544800D01*
X155425377Y-78473373D01*
X155485165Y-78342457D01*
X155505647Y-78200000D01*
X155485165Y-78057543D01*
X155483903Y-78048765D01*
X155485720Y-78048503D01*
X155485722Y-77989562D01*
X155523498Y-77930785D01*
X155587055Y-77901762D01*
X155604698Y-77900500D01*
X156051323Y-77900500D01*
X156118362Y-77920185D01*
G37*
%TD.AperFunction*%
%TA.AperFunction,Conductor*%
G36*
X147492206Y-91257685D02*
G01*
X147537961Y-91310489D01*
X147547905Y-91379647D01*
X147518880Y-91443203D01*
X147512848Y-91449681D01*
X147161848Y-91800681D01*
X147100525Y-91834166D01*
X147074167Y-91837000D01*
X146826578Y-91837000D01*
X146792804Y-91846050D01*
X146750149Y-91857479D01*
X146750144Y-91857482D01*
X146681635Y-91897035D01*
X146681627Y-91897041D01*
X146477990Y-92100679D01*
X146477981Y-92100688D01*
X146473014Y-92105654D01*
X146411688Y-92139133D01*
X146367465Y-92140669D01*
X146345714Y-92137500D01*
X146179286Y-92137500D01*
X146111251Y-92147412D01*
X146006310Y-92198714D01*
X146004344Y-92200681D01*
X146000994Y-92202510D01*
X145997951Y-92204683D01*
X145997688Y-92204315D01*
X145943021Y-92234166D01*
X145916663Y-92237000D01*
X145787824Y-92237000D01*
X145714759Y-92251533D01*
X145709952Y-92253525D01*
X145640483Y-92260994D01*
X145615048Y-92253525D01*
X145610240Y-92251533D01*
X145537176Y-92237000D01*
X145537174Y-92237000D01*
X145387826Y-92237000D01*
X145387824Y-92237000D01*
X145314759Y-92251533D01*
X145309952Y-92253525D01*
X145240483Y-92260994D01*
X145215048Y-92253525D01*
X145210240Y-92251533D01*
X145137176Y-92237000D01*
X145137174Y-92237000D01*
X145011738Y-92237000D01*
X144944699Y-92217315D01*
X144898944Y-92164511D01*
X144889000Y-92095353D01*
X144918023Y-92031799D01*
X144965536Y-91976967D01*
X145025324Y-91846051D01*
X145045806Y-91703594D01*
X145025324Y-91561137D01*
X144965536Y-91430221D01*
X144965529Y-91430214D01*
X144964777Y-91429041D01*
X144964380Y-91427690D01*
X144961852Y-91422154D01*
X144962648Y-91421790D01*
X144945092Y-91362001D01*
X144964776Y-91294962D01*
X145017579Y-91249206D01*
X145069092Y-91238000D01*
X147425167Y-91238000D01*
X147492206Y-91257685D01*
G37*
%TD.AperFunction*%
%TA.AperFunction,Conductor*%
G36*
X145309961Y-86621477D02*
G01*
X145314756Y-86623463D01*
X145314760Y-86623466D01*
X145314764Y-86623466D01*
X145314767Y-86623468D01*
X145387821Y-86637999D01*
X145387824Y-86638000D01*
X145463084Y-86638000D01*
X145530123Y-86657685D01*
X145575878Y-86710489D01*
X145581499Y-86726124D01*
X145582478Y-86728487D01*
X145595548Y-86751124D01*
X145595549Y-86751128D01*
X145595550Y-86751128D01*
X145622040Y-86797011D01*
X145759540Y-86934511D01*
X145815489Y-86990460D01*
X145815491Y-86990461D01*
X145815495Y-86990464D01*
X145882487Y-87029141D01*
X145884011Y-87030021D01*
X145960438Y-87050500D01*
X147438000Y-87050500D01*
X147505039Y-87070185D01*
X147550794Y-87122989D01*
X147562000Y-87174500D01*
X147562000Y-87477062D01*
X147563031Y-87480910D01*
X147562950Y-87484280D01*
X147563061Y-87485119D01*
X147562930Y-87485136D01*
X147561366Y-87550760D01*
X147522202Y-87608621D01*
X147457972Y-87636124D01*
X147443255Y-87637000D01*
X144442747Y-87637000D01*
X144384270Y-87648631D01*
X144384269Y-87648632D01*
X144317947Y-87692947D01*
X144273632Y-87759269D01*
X144273631Y-87759270D01*
X144262000Y-87817747D01*
X144262000Y-90874874D01*
X144242315Y-90941913D01*
X144189511Y-90987668D01*
X144120353Y-90997612D01*
X144070961Y-90979190D01*
X144025963Y-90950272D01*
X144010053Y-90940047D01*
X144010051Y-90940046D01*
X144010049Y-90940045D01*
X144010050Y-90940045D01*
X143871963Y-90899500D01*
X143871961Y-90899500D01*
X143728039Y-90899500D01*
X143728036Y-90899500D01*
X143589949Y-90940045D01*
X143468863Y-91017862D01*
X143467500Y-91019044D01*
X143465859Y-91019792D01*
X143461411Y-91022652D01*
X143460999Y-91022012D01*
X143403943Y-91048065D01*
X143334785Y-91038117D01*
X143281984Y-90992358D01*
X143262304Y-90925318D01*
X143262902Y-90913161D01*
X143262999Y-90912178D01*
X143263000Y-90912174D01*
X143263000Y-90783337D01*
X143282685Y-90716298D01*
X143299324Y-90695651D01*
X143301285Y-90693689D01*
X143301286Y-90693687D01*
X143352588Y-90588747D01*
X143362499Y-90520719D01*
X143362499Y-90354286D01*
X143352587Y-90286251D01*
X143301284Y-90181308D01*
X143299319Y-90179343D01*
X143297489Y-90175993D01*
X143295315Y-90172947D01*
X143295683Y-90172684D01*
X143265834Y-90118020D01*
X143263000Y-90091662D01*
X143263000Y-89962823D01*
X143262999Y-89962821D01*
X143248468Y-89889767D01*
X143248466Y-89889764D01*
X143248466Y-89889760D01*
X143248463Y-89889756D01*
X143246477Y-89884961D01*
X143239004Y-89815492D01*
X143246477Y-89790039D01*
X143248462Y-89785245D01*
X143248466Y-89785240D01*
X143263000Y-89712174D01*
X143263000Y-89562826D01*
X143263000Y-89562823D01*
X143262999Y-89562821D01*
X143248468Y-89489767D01*
X143248466Y-89489764D01*
X143248466Y-89489760D01*
X143248463Y-89489756D01*
X143246477Y-89484961D01*
X143239004Y-89415492D01*
X143246477Y-89390039D01*
X143248462Y-89385245D01*
X143248466Y-89385240D01*
X143263000Y-89312174D01*
X143263000Y-89162826D01*
X143263000Y-89162823D01*
X143262999Y-89162821D01*
X143248468Y-89089767D01*
X143248466Y-89089764D01*
X143248466Y-89089760D01*
X143248463Y-89089756D01*
X143246477Y-89084961D01*
X143239004Y-89015492D01*
X143246477Y-88990039D01*
X143248462Y-88985245D01*
X143248466Y-88985240D01*
X143263000Y-88912174D01*
X143263000Y-88762826D01*
X143263000Y-88762823D01*
X143262999Y-88762821D01*
X143248468Y-88689767D01*
X143248466Y-88689764D01*
X143248466Y-88689760D01*
X143248463Y-88689756D01*
X143246477Y-88684961D01*
X143239004Y-88615492D01*
X143246477Y-88590039D01*
X143248462Y-88585245D01*
X143248466Y-88585240D01*
X143257698Y-88538831D01*
X143262999Y-88512178D01*
X143263000Y-88512176D01*
X143263000Y-88362823D01*
X143262999Y-88362821D01*
X143248468Y-88289767D01*
X143248466Y-88289764D01*
X143248466Y-88289760D01*
X143248463Y-88289756D01*
X143246477Y-88284961D01*
X143239004Y-88215492D01*
X143246477Y-88190039D01*
X143248462Y-88185245D01*
X143248466Y-88185240D01*
X143251644Y-88169266D01*
X143262999Y-88112178D01*
X143263000Y-88112176D01*
X143263000Y-87962823D01*
X143262999Y-87962821D01*
X143248468Y-87889767D01*
X143248466Y-87889764D01*
X143248466Y-87889760D01*
X143248463Y-87889756D01*
X143246477Y-87884961D01*
X143239004Y-87815492D01*
X143246477Y-87790039D01*
X143248462Y-87785245D01*
X143248466Y-87785240D01*
X143263000Y-87712174D01*
X143263000Y-87562826D01*
X143263000Y-87562823D01*
X143262999Y-87562821D01*
X143248468Y-87489767D01*
X143248466Y-87489764D01*
X143248466Y-87489760D01*
X143248463Y-87489756D01*
X143246477Y-87484961D01*
X143239004Y-87415492D01*
X143246477Y-87390039D01*
X143248462Y-87385245D01*
X143248466Y-87385240D01*
X143248711Y-87384011D01*
X143260756Y-87323457D01*
X143263000Y-87312174D01*
X143263000Y-87183337D01*
X143282685Y-87116298D01*
X143299324Y-87095651D01*
X143301285Y-87093689D01*
X143301286Y-87093687D01*
X143352588Y-86988747D01*
X143362499Y-86920720D01*
X143362499Y-86861501D01*
X143382183Y-86794461D01*
X143434986Y-86748705D01*
X143486499Y-86737499D01*
X143545713Y-86737499D01*
X143613749Y-86727587D01*
X143718687Y-86676286D01*
X143718692Y-86676283D01*
X143720657Y-86674319D01*
X143724001Y-86672492D01*
X143727050Y-86670316D01*
X143727313Y-86670684D01*
X143781980Y-86640834D01*
X143808338Y-86638000D01*
X143937176Y-86638000D01*
X143937177Y-86637999D01*
X143962004Y-86633061D01*
X144010232Y-86623468D01*
X144010233Y-86623467D01*
X144010240Y-86623466D01*
X144010245Y-86623462D01*
X144015039Y-86621477D01*
X144084508Y-86614004D01*
X144109961Y-86621477D01*
X144114756Y-86623463D01*
X144114760Y-86623466D01*
X144114764Y-86623466D01*
X144114767Y-86623468D01*
X144187821Y-86637999D01*
X144187824Y-86638000D01*
X144187826Y-86638000D01*
X144337176Y-86638000D01*
X144337177Y-86637999D01*
X144362004Y-86633061D01*
X144410232Y-86623468D01*
X144410233Y-86623467D01*
X144410240Y-86623466D01*
X144410245Y-86623462D01*
X144415039Y-86621477D01*
X144484508Y-86614004D01*
X144509961Y-86621477D01*
X144514756Y-86623463D01*
X144514760Y-86623466D01*
X144514764Y-86623466D01*
X144514767Y-86623468D01*
X144587821Y-86637999D01*
X144587824Y-86638000D01*
X144587826Y-86638000D01*
X144737176Y-86638000D01*
X144737177Y-86637999D01*
X144762004Y-86633061D01*
X144810232Y-86623468D01*
X144810233Y-86623467D01*
X144810240Y-86623466D01*
X144810245Y-86623462D01*
X144815039Y-86621477D01*
X144884508Y-86614004D01*
X144909961Y-86621477D01*
X144914756Y-86623463D01*
X144914760Y-86623466D01*
X144914764Y-86623466D01*
X144914767Y-86623468D01*
X144987821Y-86637999D01*
X144987824Y-86638000D01*
X144987826Y-86638000D01*
X145137176Y-86638000D01*
X145137177Y-86637999D01*
X145162004Y-86633061D01*
X145210232Y-86623468D01*
X145210233Y-86623467D01*
X145210240Y-86623466D01*
X145210245Y-86623462D01*
X145215039Y-86621477D01*
X145284508Y-86614004D01*
X145309961Y-86621477D01*
G37*
%TD.AperFunction*%
%TA.AperFunction,Conductor*%
G36*
X136806314Y-77920185D02*
G01*
X136852069Y-77972989D01*
X136862013Y-78042147D01*
X136852069Y-78076011D01*
X136814835Y-78157541D01*
X136814834Y-78157542D01*
X136794353Y-78300000D01*
X136814834Y-78442456D01*
X136874622Y-78573371D01*
X136874625Y-78573377D01*
X136902007Y-78604977D01*
X136931032Y-78668533D01*
X136921729Y-78736263D01*
X136902416Y-78780003D01*
X136902415Y-78780008D01*
X136899500Y-78805131D01*
X136899500Y-79154856D01*
X136899502Y-79154882D01*
X136902413Y-79179986D01*
X136902414Y-79179990D01*
X136902415Y-79179991D01*
X136933289Y-79249914D01*
X136942360Y-79319191D01*
X136933289Y-79350084D01*
X136902415Y-79420006D01*
X136902415Y-79420008D01*
X136899500Y-79445131D01*
X136899500Y-79451667D01*
X136879815Y-79518706D01*
X136879094Y-79519669D01*
X136874622Y-79526628D01*
X136814834Y-79657543D01*
X136794353Y-79800000D01*
X136814834Y-79942456D01*
X136855181Y-80030802D01*
X136874623Y-80073373D01*
X136968872Y-80182143D01*
X137089947Y-80259953D01*
X137089950Y-80259954D01*
X137089949Y-80259954D01*
X137181173Y-80286739D01*
X137226336Y-80300000D01*
X137228036Y-80300499D01*
X137228038Y-80300500D01*
X137228039Y-80300500D01*
X137371961Y-80300500D01*
X137470567Y-80271547D01*
X137540434Y-80271547D01*
X137599213Y-80309321D01*
X137628238Y-80372876D01*
X137629500Y-80390524D01*
X137629500Y-80875500D01*
X137609815Y-80942539D01*
X137557011Y-80988294D01*
X137505501Y-80999500D01*
X137300143Y-80999500D01*
X137300124Y-80999502D01*
X137296656Y-80999904D01*
X137227796Y-80988066D01*
X137209504Y-80977051D01*
X137203048Y-80972361D01*
X137090145Y-80914833D01*
X137035000Y-80906099D01*
X137035000Y-81893898D01*
X137062706Y-81917562D01*
X137082990Y-81948636D01*
X137082878Y-81947853D01*
X137111903Y-81884297D01*
X137149321Y-81855015D01*
X137203044Y-81827641D01*
X137209488Y-81822959D01*
X137275293Y-81799475D01*
X137296674Y-81800099D01*
X137298868Y-81800353D01*
X137300135Y-81800500D01*
X137649864Y-81800499D01*
X137649879Y-81800497D01*
X137649882Y-81800497D01*
X137674986Y-81797586D01*
X137674987Y-81797585D01*
X137674991Y-81797585D01*
X137712035Y-81781228D01*
X137781310Y-81772157D01*
X137843325Y-81800953D01*
X137848872Y-81805760D01*
X137969947Y-81883570D01*
X137969950Y-81883571D01*
X137969949Y-81883571D01*
X138042887Y-81904987D01*
X138105120Y-81923260D01*
X138108036Y-81924116D01*
X138108038Y-81924117D01*
X138108039Y-81924117D01*
X138251961Y-81924117D01*
X138256906Y-81922664D01*
X138326774Y-81922661D01*
X138385555Y-81960432D01*
X138414583Y-82023986D01*
X138414584Y-82059287D01*
X138394353Y-82199999D01*
X138414834Y-82342456D01*
X138453450Y-82427011D01*
X138474623Y-82473373D01*
X138568872Y-82582143D01*
X138689947Y-82659953D01*
X138689950Y-82659954D01*
X138689949Y-82659954D01*
X138828036Y-82700499D01*
X138828038Y-82700500D01*
X138928222Y-82700500D01*
X138995261Y-82720185D01*
X139041016Y-82772989D01*
X139051396Y-82838790D01*
X139049500Y-82855128D01*
X139049500Y-82893963D01*
X139029815Y-82961002D01*
X139019214Y-82975164D01*
X138974625Y-83026623D01*
X138974622Y-83026628D01*
X138914834Y-83157543D01*
X138894353Y-83300000D01*
X138914834Y-83442456D01*
X138958491Y-83538050D01*
X138974623Y-83573373D01*
X139068872Y-83682143D01*
X139189947Y-83759953D01*
X139189950Y-83759954D01*
X139189949Y-83759954D01*
X139297107Y-83791417D01*
X139324633Y-83799500D01*
X139328036Y-83800499D01*
X139328038Y-83800500D01*
X139328039Y-83800500D01*
X139471962Y-83800500D01*
X139471962Y-83800499D01*
X139610053Y-83759953D01*
X139731128Y-83682143D01*
X139825377Y-83573373D01*
X139826467Y-83570985D01*
X139828186Y-83569001D01*
X139830171Y-83565913D01*
X139830614Y-83566198D01*
X139872218Y-83518182D01*
X139901709Y-83509521D01*
X139920000Y-83493899D01*
X139920000Y-83493897D01*
X140320000Y-83493897D01*
X140375151Y-83485163D01*
X140375154Y-83485162D01*
X140488041Y-83427643D01*
X140488050Y-83427636D01*
X140577636Y-83338050D01*
X140577639Y-83338046D01*
X140635166Y-83225143D01*
X140639149Y-83200000D01*
X140320000Y-83200000D01*
X140320000Y-83493897D01*
X139920000Y-83493897D01*
X139920000Y-82924000D01*
X139939685Y-82856961D01*
X139992489Y-82811206D01*
X140044000Y-82800000D01*
X140639149Y-82800000D01*
X140654024Y-82782583D01*
X140655055Y-82774606D01*
X140700050Y-82721154D01*
X140766801Y-82700513D01*
X140768574Y-82700500D01*
X140771962Y-82700500D01*
X140771962Y-82700499D01*
X140910053Y-82659953D01*
X140910054Y-82659951D01*
X140918118Y-82656270D01*
X140918872Y-82657921D01*
X140975487Y-82641291D01*
X141042529Y-82660969D01*
X141088289Y-82713768D01*
X141099500Y-82765291D01*
X141099500Y-83390114D01*
X141109554Y-83427636D01*
X141119979Y-83466542D01*
X141130863Y-83485392D01*
X141139585Y-83500500D01*
X141145357Y-83510496D01*
X141145358Y-83510499D01*
X141149794Y-83518182D01*
X141159540Y-83535063D01*
X141446639Y-83822162D01*
X141502588Y-83878111D01*
X141502590Y-83878112D01*
X141502594Y-83878115D01*
X141567325Y-83915487D01*
X141571110Y-83917672D01*
X141647537Y-83938151D01*
X143234360Y-83938151D01*
X143301399Y-83957836D01*
X143347154Y-84010640D01*
X143358360Y-84062151D01*
X143358360Y-85171977D01*
X143338675Y-85239016D01*
X143288820Y-85283377D01*
X143206311Y-85323712D01*
X143123712Y-85406311D01*
X143072412Y-85511248D01*
X143072411Y-85511251D01*
X143062500Y-85579280D01*
X143062500Y-86313500D01*
X143042815Y-86380539D01*
X142990011Y-86426294D01*
X142938500Y-86437500D01*
X142204282Y-86437500D01*
X142136250Y-86447412D01*
X142031308Y-86498715D01*
X141948712Y-86581311D01*
X141897412Y-86686248D01*
X141897411Y-86686251D01*
X141887500Y-86754280D01*
X141887500Y-86920713D01*
X141897412Y-86988748D01*
X141948714Y-87093689D01*
X141950676Y-87095651D01*
X141952503Y-87098998D01*
X141954685Y-87102053D01*
X141954316Y-87102316D01*
X141984165Y-87156972D01*
X141987000Y-87183337D01*
X141987000Y-87312174D01*
X141987000Y-87312176D01*
X141986999Y-87312176D01*
X142001533Y-87385240D01*
X142003525Y-87390048D01*
X142010994Y-87459517D01*
X142003525Y-87484952D01*
X142001533Y-87489759D01*
X141987000Y-87562823D01*
X141987000Y-87562826D01*
X141987000Y-87712174D01*
X141987000Y-87712176D01*
X141986999Y-87712176D01*
X142001533Y-87785240D01*
X142003525Y-87790048D01*
X142010994Y-87859517D01*
X142003525Y-87884952D01*
X142001533Y-87889759D01*
X141987000Y-87962823D01*
X141987000Y-87962826D01*
X141987000Y-88112174D01*
X141987000Y-88112176D01*
X141986999Y-88112176D01*
X142001533Y-88185240D01*
X142003525Y-88190048D01*
X142010994Y-88259517D01*
X142003525Y-88284952D01*
X142001533Y-88289759D01*
X141987000Y-88362823D01*
X141987000Y-88362826D01*
X141987000Y-88512174D01*
X141987000Y-88512176D01*
X141986999Y-88512176D01*
X142001533Y-88585240D01*
X142003525Y-88590048D01*
X142010994Y-88659517D01*
X142003525Y-88684952D01*
X142001533Y-88689759D01*
X141987000Y-88762823D01*
X141987000Y-88762826D01*
X141987000Y-88912174D01*
X141987000Y-88912176D01*
X141986999Y-88912176D01*
X142001533Y-88985240D01*
X142003525Y-88990048D01*
X142010994Y-89059517D01*
X142003525Y-89084952D01*
X142001533Y-89089759D01*
X141987000Y-89162823D01*
X141987000Y-89162826D01*
X141987000Y-89312174D01*
X141987000Y-89312176D01*
X141986999Y-89312176D01*
X142001533Y-89385240D01*
X142003525Y-89390048D01*
X142010994Y-89459517D01*
X142003525Y-89484952D01*
X142001533Y-89489759D01*
X141987000Y-89562823D01*
X141987000Y-89562826D01*
X141987000Y-89712174D01*
X141987000Y-89712176D01*
X141986999Y-89712176D01*
X142001533Y-89785240D01*
X142003525Y-89790048D01*
X142010994Y-89859517D01*
X142003525Y-89884952D01*
X142001533Y-89889759D01*
X141987000Y-89962823D01*
X141987000Y-90091662D01*
X141967315Y-90158701D01*
X141950686Y-90179338D01*
X141948715Y-90181308D01*
X141948711Y-90181314D01*
X141897412Y-90286248D01*
X141897411Y-90286251D01*
X141887500Y-90354280D01*
X141887500Y-90520713D01*
X141897412Y-90588748D01*
X141948714Y-90693689D01*
X141950676Y-90695651D01*
X141952503Y-90698998D01*
X141954685Y-90702053D01*
X141954316Y-90702316D01*
X141984165Y-90756972D01*
X141987000Y-90783337D01*
X141987000Y-90813000D01*
X141967315Y-90880039D01*
X141914511Y-90925794D01*
X141863000Y-90937000D01*
X140213333Y-90937000D01*
X140146294Y-90917315D01*
X140125652Y-90900681D01*
X139936819Y-90711848D01*
X139903334Y-90650525D01*
X139900500Y-90624167D01*
X139900500Y-86360441D01*
X139900500Y-86360438D01*
X139894220Y-86337000D01*
X139880022Y-86284012D01*
X139840460Y-86215489D01*
X138936819Y-85311848D01*
X138903334Y-85250525D01*
X138900500Y-85224167D01*
X138900500Y-84160439D01*
X138900500Y-84160438D01*
X138880021Y-84084011D01*
X138864740Y-84057543D01*
X138840464Y-84015495D01*
X138840458Y-84015487D01*
X137964729Y-83139758D01*
X137931244Y-83078435D01*
X137936228Y-83008743D01*
X137936404Y-83008273D01*
X137955140Y-82958872D01*
X137975645Y-82790000D01*
X137955140Y-82621128D01*
X137946211Y-82597585D01*
X137916570Y-82519427D01*
X137894818Y-82462070D01*
X137891113Y-82456703D01*
X137849100Y-82395837D01*
X137798183Y-82322071D01*
X137670852Y-82209266D01*
X137670849Y-82209263D01*
X137520226Y-82130210D01*
X137355056Y-82089500D01*
X137205616Y-82089500D01*
X137138577Y-82069815D01*
X137101259Y-82026748D01*
X137101396Y-82045937D01*
X137064042Y-82104983D01*
X137026155Y-82127789D01*
X137019776Y-82130208D01*
X136869150Y-82209263D01*
X136741816Y-82322071D01*
X136726549Y-82344190D01*
X136672265Y-82388179D01*
X136602816Y-82395837D01*
X136540252Y-82364733D01*
X136504436Y-82304741D01*
X136500500Y-82273748D01*
X136500500Y-82017781D01*
X136520185Y-81950742D01*
X136572989Y-81904987D01*
X136631941Y-81896510D01*
X136635000Y-81893898D01*
X136635000Y-80906101D01*
X136631469Y-80903085D01*
X136574601Y-80895735D01*
X136521151Y-80850737D01*
X136500513Y-80783985D01*
X136500500Y-80782218D01*
X136500500Y-78024500D01*
X136520185Y-77957461D01*
X136572989Y-77911706D01*
X136624500Y-77900500D01*
X136739275Y-77900500D01*
X136806314Y-77920185D01*
G37*
%TD.AperFunction*%
%TA.AperFunction,Conductor*%
G36*
X148501692Y-86725900D02*
G01*
X148502049Y-86724745D01*
X148511251Y-86727588D01*
X148579279Y-86737499D01*
X148638498Y-86737499D01*
X148705538Y-86757183D01*
X148751294Y-86809986D01*
X148762500Y-86861497D01*
X148762500Y-86920712D01*
X148772412Y-86988748D01*
X148823714Y-87093689D01*
X148825676Y-87095651D01*
X148827503Y-87098998D01*
X148829685Y-87102053D01*
X148829316Y-87102316D01*
X148859165Y-87156972D01*
X148862000Y-87183337D01*
X148862000Y-87312174D01*
X148862000Y-87312176D01*
X148861999Y-87312176D01*
X148876533Y-87385240D01*
X148878525Y-87390048D01*
X148885994Y-87459517D01*
X148878525Y-87484952D01*
X148876533Y-87489759D01*
X148862000Y-87562823D01*
X148862000Y-87562826D01*
X148862000Y-87712174D01*
X148862000Y-87712176D01*
X148861999Y-87712176D01*
X148876533Y-87785240D01*
X148878525Y-87790048D01*
X148885994Y-87859517D01*
X148878525Y-87884952D01*
X148876533Y-87889759D01*
X148862000Y-87962823D01*
X148862000Y-87962826D01*
X148862000Y-88112174D01*
X148862000Y-88112176D01*
X148861999Y-88112176D01*
X148876533Y-88185240D01*
X148878525Y-88190048D01*
X148885994Y-88259517D01*
X148878525Y-88284952D01*
X148876533Y-88289759D01*
X148862000Y-88362823D01*
X148862000Y-88362826D01*
X148862000Y-88512174D01*
X148862000Y-88512176D01*
X148861999Y-88512176D01*
X148876533Y-88585240D01*
X148878525Y-88590048D01*
X148885994Y-88659517D01*
X148878525Y-88684952D01*
X148876533Y-88689759D01*
X148862000Y-88762823D01*
X148862000Y-88762826D01*
X148862000Y-88912174D01*
X148862000Y-88912176D01*
X148861999Y-88912176D01*
X148876533Y-88985240D01*
X148878525Y-88990048D01*
X148885994Y-89059517D01*
X148878525Y-89084952D01*
X148876533Y-89089759D01*
X148862000Y-89162823D01*
X148862000Y-89162826D01*
X148862000Y-89312174D01*
X148862000Y-89312176D01*
X148861999Y-89312176D01*
X148876533Y-89385240D01*
X148878525Y-89390048D01*
X148885994Y-89459517D01*
X148878525Y-89484952D01*
X148876533Y-89489759D01*
X148862000Y-89562823D01*
X148862000Y-89562826D01*
X148862000Y-89712174D01*
X148862000Y-89712176D01*
X148861999Y-89712176D01*
X148876533Y-89785240D01*
X148878525Y-89790048D01*
X148885994Y-89859517D01*
X148878525Y-89884952D01*
X148876533Y-89889759D01*
X148862000Y-89962823D01*
X148862000Y-90091662D01*
X148842315Y-90158701D01*
X148825686Y-90179338D01*
X148823715Y-90181308D01*
X148823713Y-90181312D01*
X148780004Y-90270719D01*
X148732876Y-90322301D01*
X148665342Y-90340215D01*
X148633670Y-90335235D01*
X148511964Y-90299500D01*
X148511961Y-90299500D01*
X148387000Y-90299500D01*
X148319961Y-90279815D01*
X148274206Y-90227011D01*
X148263000Y-90175500D01*
X148263000Y-87497939D01*
X148263000Y-87497938D01*
X148242521Y-87421511D01*
X148223133Y-87387929D01*
X148202964Y-87352995D01*
X148202958Y-87352987D01*
X148199319Y-87349348D01*
X148165834Y-87288025D01*
X148163000Y-87261667D01*
X148163000Y-86861499D01*
X148182685Y-86794460D01*
X148235489Y-86748705D01*
X148287000Y-86737499D01*
X148345713Y-86737499D01*
X148413751Y-86727586D01*
X148422953Y-86724744D01*
X148423860Y-86727681D01*
X148476888Y-86718617D01*
X148501692Y-86725900D01*
G37*
%TD.AperFunction*%
%TA.AperFunction,Conductor*%
G36*
X150618362Y-77920185D02*
G01*
X150664117Y-77972989D01*
X150674061Y-78042147D01*
X150666745Y-78065217D01*
X150667849Y-78065576D01*
X150664834Y-78074853D01*
X150660851Y-78100000D01*
X151256000Y-78100000D01*
X151323039Y-78119685D01*
X151368794Y-78172489D01*
X151380000Y-78224000D01*
X151380000Y-81193898D01*
X151381543Y-81195217D01*
X151445397Y-81203470D01*
X151498848Y-81248467D01*
X151519487Y-81315219D01*
X151519500Y-81316988D01*
X151519500Y-82583009D01*
X151499815Y-82650048D01*
X151447011Y-82695803D01*
X151380932Y-82705304D01*
X151380000Y-82706100D01*
X151380000Y-83693897D01*
X151435149Y-83685164D01*
X151548044Y-83627641D01*
X151554488Y-83622959D01*
X151620293Y-83599475D01*
X151641674Y-83600099D01*
X151643868Y-83600353D01*
X151645135Y-83600500D01*
X151994864Y-83600499D01*
X151994879Y-83600497D01*
X151994882Y-83600497D01*
X152019987Y-83597586D01*
X152019988Y-83597585D01*
X152019991Y-83597585D01*
X152122765Y-83552206D01*
X152202206Y-83472765D01*
X152247585Y-83369991D01*
X152250500Y-83344865D01*
X152250499Y-83055136D01*
X152250497Y-83055117D01*
X152247586Y-83030012D01*
X152247585Y-83030010D01*
X152247585Y-83030009D01*
X152202206Y-82927235D01*
X152184879Y-82909908D01*
X152156818Y-82881846D01*
X152123334Y-82820523D01*
X152120500Y-82794166D01*
X152120500Y-81105833D01*
X152140185Y-81038794D01*
X152156819Y-81018152D01*
X152177736Y-80997235D01*
X152202206Y-80972765D01*
X152247585Y-80869991D01*
X152250500Y-80844865D01*
X152250499Y-80555136D01*
X152250497Y-80555117D01*
X152247586Y-80530012D01*
X152247585Y-80530010D01*
X152247585Y-80530009D01*
X152202206Y-80427235D01*
X152202205Y-80427233D01*
X152162651Y-80387679D01*
X152129167Y-80326356D01*
X152134152Y-80256664D01*
X152162651Y-80212319D01*
X152202206Y-80172765D01*
X152247585Y-80069991D01*
X152250500Y-80044865D01*
X152250499Y-79755136D01*
X152250497Y-79755117D01*
X152247586Y-79730012D01*
X152247585Y-79730010D01*
X152247585Y-79730009D01*
X152202206Y-79627235D01*
X152202205Y-79627233D01*
X152162651Y-79587679D01*
X152129167Y-79526356D01*
X152134152Y-79456664D01*
X152162651Y-79412319D01*
X152202206Y-79372765D01*
X152247585Y-79269991D01*
X152250500Y-79244865D01*
X152250499Y-78955136D01*
X152250497Y-78955117D01*
X152246511Y-78920742D01*
X152249989Y-78920338D01*
X152251026Y-78867743D01*
X152289951Y-78809721D01*
X152302254Y-78800699D01*
X152311215Y-78794940D01*
X152331128Y-78782143D01*
X152425377Y-78673373D01*
X152485165Y-78542457D01*
X152505647Y-78400000D01*
X152485165Y-78257543D01*
X152425377Y-78126627D01*
X152407245Y-78105702D01*
X152378221Y-78042147D01*
X152388165Y-77972989D01*
X152433919Y-77920185D01*
X152500959Y-77900500D01*
X152963452Y-77900500D01*
X153030491Y-77920185D01*
X153076246Y-77972989D01*
X153086190Y-78042147D01*
X153076886Y-78074586D01*
X153052416Y-78130004D01*
X153052415Y-78130008D01*
X153049500Y-78155131D01*
X153049500Y-78444856D01*
X153049502Y-78444882D01*
X153052413Y-78469987D01*
X153052415Y-78469991D01*
X153097793Y-78572764D01*
X153143181Y-78618152D01*
X153176666Y-78679475D01*
X153179500Y-78705833D01*
X153179500Y-78728613D01*
X153159815Y-78795652D01*
X153107011Y-78841407D01*
X153071687Y-78851552D01*
X152974764Y-78864313D01*
X152974763Y-78864313D01*
X152834770Y-78922300D01*
X152834767Y-78922301D01*
X152834767Y-78922302D01*
X152791977Y-78955136D01*
X152714549Y-79014549D01*
X152622300Y-79134770D01*
X152564313Y-79274763D01*
X152564313Y-79274764D01*
X152549500Y-79387272D01*
X152549500Y-80712727D01*
X152560670Y-80797562D01*
X152564172Y-80824168D01*
X152564313Y-80825235D01*
X152564313Y-80825236D01*
X152620371Y-80960573D01*
X152622302Y-80965233D01*
X152714549Y-81085451D01*
X152834767Y-81177698D01*
X152974764Y-81235687D01*
X153041685Y-81244497D01*
X153105582Y-81272763D01*
X153144053Y-81331088D01*
X153149500Y-81367436D01*
X153149500Y-83600666D01*
X153129815Y-83667705D01*
X153077011Y-83713460D01*
X153007853Y-83723404D01*
X152990566Y-83719643D01*
X152921964Y-83699500D01*
X152921961Y-83699500D01*
X152778039Y-83699500D01*
X152778036Y-83699500D01*
X152639949Y-83740045D01*
X152518873Y-83817856D01*
X152424623Y-83926626D01*
X152424622Y-83926628D01*
X152364834Y-84057543D01*
X152344353Y-84200000D01*
X152344353Y-84200001D01*
X152345661Y-84209103D01*
X152335713Y-84278261D01*
X152310603Y-84314424D01*
X151323360Y-85301667D01*
X151262037Y-85335152D01*
X151192345Y-85330168D01*
X151136412Y-85288296D01*
X151112941Y-85231633D01*
X151105165Y-85177543D01*
X151045377Y-85046627D01*
X150951128Y-84937857D01*
X150830053Y-84860047D01*
X150830051Y-84860046D01*
X150830049Y-84860045D01*
X150830050Y-84860045D01*
X150739565Y-84833477D01*
X150680786Y-84795703D01*
X150651761Y-84732148D01*
X150650499Y-84714500D01*
X150650499Y-84655142D01*
X150650498Y-84655135D01*
X150647585Y-84630009D01*
X150602206Y-84527235D01*
X150522765Y-84447794D01*
X150510669Y-84442453D01*
X150419992Y-84402415D01*
X150394865Y-84399500D01*
X150045143Y-84399500D01*
X150045124Y-84399502D01*
X150041656Y-84399904D01*
X149972796Y-84388066D01*
X149954504Y-84377051D01*
X149948048Y-84372361D01*
X149835145Y-84314833D01*
X149780000Y-84306099D01*
X149780000Y-85293897D01*
X149835151Y-85285163D01*
X149936251Y-85233650D01*
X150004920Y-85220753D01*
X150069661Y-85247029D01*
X150109919Y-85304135D01*
X150115285Y-85326487D01*
X150134834Y-85462456D01*
X150188187Y-85579280D01*
X150194623Y-85593373D01*
X150288872Y-85702143D01*
X150409947Y-85779953D01*
X150409950Y-85779954D01*
X150409949Y-85779954D01*
X150548036Y-85820499D01*
X150548038Y-85820500D01*
X150548039Y-85820500D01*
X150691962Y-85820500D01*
X150691962Y-85820499D01*
X150712791Y-85814383D01*
X150740566Y-85806229D01*
X150810435Y-85806229D01*
X150869213Y-85844004D01*
X150898238Y-85907559D01*
X150899500Y-85925206D01*
X150899500Y-86136260D01*
X150879815Y-86203299D01*
X150869213Y-86217462D01*
X150774625Y-86326622D01*
X150774622Y-86326628D01*
X150714834Y-86457543D01*
X150694353Y-86600000D01*
X150714834Y-86742456D01*
X150769199Y-86861497D01*
X150774623Y-86873373D01*
X150868872Y-86982143D01*
X150989947Y-87059953D01*
X150989950Y-87059954D01*
X150989949Y-87059954D01*
X151088437Y-87088872D01*
X151124633Y-87099500D01*
X151128036Y-87100499D01*
X151128038Y-87100500D01*
X151128039Y-87100500D01*
X151271962Y-87100500D01*
X151271962Y-87100499D01*
X151390269Y-87065762D01*
X151410050Y-87059954D01*
X151410050Y-87059953D01*
X151410053Y-87059953D01*
X151531128Y-86982143D01*
X151625377Y-86873373D01*
X151685165Y-86742457D01*
X151705647Y-86600000D01*
X151685165Y-86457543D01*
X151625377Y-86326627D01*
X151625375Y-86326625D01*
X151625374Y-86326622D01*
X151530787Y-86217462D01*
X151501762Y-86153906D01*
X151500500Y-86136260D01*
X151500500Y-86025832D01*
X151520185Y-85958793D01*
X151536814Y-85938156D01*
X151987820Y-85487150D01*
X152049142Y-85453666D01*
X152118834Y-85458650D01*
X152174767Y-85500522D01*
X152199184Y-85565986D01*
X152199500Y-85574832D01*
X152199500Y-86924165D01*
X152179815Y-86991204D01*
X152163181Y-87011846D01*
X152111846Y-87063181D01*
X152050523Y-87096666D01*
X152024165Y-87099500D01*
X151928036Y-87099500D01*
X151789949Y-87140045D01*
X151668873Y-87217856D01*
X151574623Y-87326626D01*
X151574622Y-87326628D01*
X151514834Y-87457543D01*
X151494353Y-87600000D01*
X151514834Y-87742456D01*
X151536565Y-87790039D01*
X151574623Y-87873373D01*
X151625248Y-87931798D01*
X151654273Y-87995353D01*
X151644329Y-88064511D01*
X151598575Y-88117315D01*
X151531535Y-88137000D01*
X150262000Y-88137000D01*
X150194961Y-88117315D01*
X150149206Y-88064511D01*
X150138000Y-88013000D01*
X150138000Y-87962823D01*
X150137999Y-87962821D01*
X150123468Y-87889767D01*
X150123466Y-87889764D01*
X150123466Y-87889760D01*
X150123463Y-87889756D01*
X150121477Y-87884961D01*
X150114004Y-87815492D01*
X150121477Y-87790039D01*
X150123462Y-87785245D01*
X150123466Y-87785240D01*
X150138000Y-87712174D01*
X150138000Y-87562826D01*
X150138000Y-87562823D01*
X150137999Y-87562821D01*
X150123468Y-87489767D01*
X150123466Y-87489764D01*
X150123466Y-87489760D01*
X150123463Y-87489756D01*
X150121477Y-87484961D01*
X150114004Y-87415492D01*
X150121477Y-87390039D01*
X150123462Y-87385245D01*
X150123466Y-87385240D01*
X150123711Y-87384011D01*
X150135756Y-87323457D01*
X150138000Y-87312174D01*
X150138000Y-87183337D01*
X150157685Y-87116298D01*
X150174324Y-87095651D01*
X150176285Y-87093689D01*
X150176286Y-87093687D01*
X150227588Y-86988747D01*
X150237499Y-86920719D01*
X150237499Y-86754286D01*
X150227587Y-86686251D01*
X150176284Y-86581308D01*
X150093688Y-86498712D01*
X149988751Y-86447412D01*
X149988748Y-86447411D01*
X149920720Y-86437500D01*
X149186499Y-86437500D01*
X149119460Y-86417815D01*
X149073705Y-86365011D01*
X149062499Y-86313500D01*
X149062499Y-85579282D01*
X149052587Y-85511250D01*
X149001284Y-85406308D01*
X148990221Y-85395245D01*
X148956736Y-85333922D01*
X148961720Y-85264230D01*
X149003592Y-85208297D01*
X149027811Y-85194132D01*
X149054602Y-85182302D01*
X149123877Y-85173230D01*
X149187063Y-85203051D01*
X149192371Y-85208056D01*
X149211954Y-85227639D01*
X149324853Y-85285164D01*
X149380000Y-85293898D01*
X149380000Y-84477876D01*
X149385024Y-84442936D01*
X149385161Y-84442464D01*
X149385165Y-84442457D01*
X149405647Y-84300000D01*
X149385165Y-84157543D01*
X149325377Y-84026627D01*
X149231128Y-83917857D01*
X149110053Y-83840047D01*
X149110051Y-83840046D01*
X149110049Y-83840045D01*
X149110050Y-83840045D01*
X148971963Y-83799500D01*
X148971961Y-83799500D01*
X148828039Y-83799500D01*
X148828036Y-83799500D01*
X148689949Y-83840045D01*
X148568873Y-83917856D01*
X148474623Y-84026626D01*
X148474622Y-84026628D01*
X148414834Y-84157543D01*
X148395338Y-84293147D01*
X148366313Y-84356703D01*
X148307535Y-84394477D01*
X148272600Y-84399500D01*
X148005143Y-84399500D01*
X148005117Y-84399502D01*
X147980013Y-84402413D01*
X147967777Y-84407816D01*
X147920775Y-84428569D01*
X147851499Y-84437640D01*
X147788314Y-84407816D01*
X147751283Y-84348567D01*
X147747756Y-84330638D01*
X147747585Y-84330013D01*
X147747585Y-84330009D01*
X147702206Y-84227235D01*
X147622765Y-84147794D01*
X147620498Y-84146793D01*
X147519992Y-84102415D01*
X147494865Y-84099500D01*
X147145143Y-84099500D01*
X147145117Y-84099502D01*
X147110742Y-84103489D01*
X147110576Y-84102062D01*
X147050708Y-84100863D01*
X146992699Y-84061919D01*
X146968246Y-84014705D01*
X146960022Y-83984015D01*
X146960021Y-83984011D01*
X146933544Y-83938151D01*
X146920464Y-83915495D01*
X146920458Y-83915487D01*
X146864512Y-83859541D01*
X146864504Y-83859535D01*
X146795995Y-83819982D01*
X146795990Y-83819979D01*
X146770513Y-83813152D01*
X146719562Y-83799500D01*
X146719560Y-83799500D01*
X146558501Y-83799500D01*
X146491462Y-83779815D01*
X146464788Y-83756703D01*
X146431128Y-83717857D01*
X146431126Y-83717856D01*
X146425320Y-83711155D01*
X146426401Y-83710218D01*
X146393764Y-83659435D01*
X146393764Y-83589566D01*
X146431538Y-83530787D01*
X146495093Y-83501762D01*
X146512741Y-83500500D01*
X147191031Y-83500500D01*
X147191033Y-83500500D01*
X147267460Y-83480021D01*
X147335982Y-83440460D01*
X147391931Y-83384511D01*
X147463205Y-83313235D01*
X147524525Y-83279753D01*
X147594217Y-83284737D01*
X147650151Y-83326608D01*
X147663678Y-83349407D01*
X147671923Y-83367462D01*
X147674623Y-83373373D01*
X147768872Y-83482143D01*
X147889947Y-83559953D01*
X147889950Y-83559954D01*
X147889949Y-83559954D01*
X147990801Y-83589566D01*
X148026673Y-83600099D01*
X148028036Y-83600499D01*
X148028038Y-83600500D01*
X148028039Y-83600500D01*
X148171962Y-83600500D01*
X148171962Y-83600499D01*
X148310053Y-83559953D01*
X148431128Y-83482143D01*
X148525377Y-83373373D01*
X148525378Y-83373369D01*
X148529175Y-83367462D01*
X148581979Y-83321706D01*
X148633492Y-83310500D01*
X148657003Y-83310500D01*
X148724042Y-83330185D01*
X148757923Y-83362450D01*
X148760805Y-83366487D01*
X148843514Y-83449196D01*
X148843515Y-83449196D01*
X148843517Y-83449198D01*
X148948607Y-83500573D01*
X148956768Y-83501762D01*
X149016739Y-83510500D01*
X149016740Y-83510500D01*
X150383261Y-83510500D01*
X150443232Y-83501762D01*
X150451393Y-83500573D01*
X150543465Y-83455561D01*
X150612337Y-83443802D01*
X150676634Y-83471145D01*
X150708410Y-83510667D01*
X150722360Y-83538046D01*
X150722363Y-83538050D01*
X150811949Y-83627636D01*
X150811953Y-83627639D01*
X150924853Y-83685164D01*
X150980000Y-83693898D01*
X150980000Y-82965781D01*
X150999685Y-82898742D01*
X151016319Y-82878100D01*
X151040460Y-82853959D01*
X151080021Y-82785437D01*
X151100500Y-82709010D01*
X151100500Y-81359886D01*
X151080021Y-81283459D01*
X151060372Y-81249426D01*
X151040464Y-81214943D01*
X151040458Y-81214935D01*
X151016319Y-81190796D01*
X150982834Y-81129473D01*
X150980000Y-81103115D01*
X150980000Y-79300000D01*
X150843000Y-79300000D01*
X150843000Y-79326000D01*
X150823315Y-79393039D01*
X150770511Y-79438794D01*
X150719000Y-79450000D01*
X148608238Y-79450000D01*
X148647653Y-79562645D01*
X148728207Y-79671792D01*
X148837354Y-79752346D01*
X148892700Y-79771712D01*
X148949476Y-79812433D01*
X148975224Y-79877386D01*
X148961768Y-79945948D01*
X148913381Y-79996351D01*
X148906207Y-80000154D01*
X148843515Y-80030802D01*
X148760803Y-80113514D01*
X148709426Y-80218608D01*
X148699500Y-80286739D01*
X148699500Y-80653260D01*
X148709426Y-80721391D01*
X148760803Y-80826485D01*
X148843514Y-80909196D01*
X148843515Y-80909196D01*
X148843517Y-80909198D01*
X148948607Y-80960573D01*
X148982673Y-80965536D01*
X149016739Y-80970500D01*
X149016740Y-80970500D01*
X149894719Y-80970500D01*
X149961758Y-80990185D01*
X149982400Y-81006819D01*
X150003400Y-81027819D01*
X150036885Y-81089142D01*
X150031901Y-81158834D01*
X149990029Y-81214767D01*
X149924565Y-81239184D01*
X149915719Y-81239500D01*
X149016739Y-81239500D01*
X148948608Y-81249426D01*
X148843514Y-81300803D01*
X148760805Y-81383512D01*
X148757923Y-81387550D01*
X148702949Y-81430674D01*
X148657003Y-81439500D01*
X148006223Y-81439500D01*
X147955271Y-81453152D01*
X147929795Y-81459979D01*
X147904015Y-81474864D01*
X147904013Y-81474864D01*
X147861280Y-81499535D01*
X147861272Y-81499541D01*
X146990194Y-82370619D01*
X146928871Y-82404104D01*
X146859179Y-82399120D01*
X146803246Y-82357248D01*
X146778829Y-82291784D01*
X146783538Y-82247997D01*
X146785164Y-82242458D01*
X146785165Y-82242457D01*
X146805647Y-82100000D01*
X146791768Y-82003470D01*
X146801711Y-81934314D01*
X146826822Y-81898147D01*
X147488151Y-81236819D01*
X147549474Y-81203334D01*
X147575832Y-81200500D01*
X147671962Y-81200500D01*
X147671962Y-81200499D01*
X147810053Y-81159953D01*
X147931128Y-81082143D01*
X148025377Y-80973373D01*
X148085165Y-80842457D01*
X148105647Y-80700000D01*
X148085165Y-80557543D01*
X148025377Y-80426627D01*
X147931128Y-80317857D01*
X147810053Y-80240047D01*
X147810051Y-80240046D01*
X147810049Y-80240045D01*
X147810050Y-80240045D01*
X147671963Y-80199500D01*
X147671961Y-80199500D01*
X147528039Y-80199500D01*
X147528036Y-80199500D01*
X147389949Y-80240045D01*
X147268873Y-80317856D01*
X147174623Y-80426626D01*
X147174622Y-80426628D01*
X147114834Y-80557543D01*
X147094353Y-80700000D01*
X147094353Y-80700001D01*
X147095661Y-80709103D01*
X147085713Y-80778261D01*
X147060603Y-80814424D01*
X146311848Y-81563181D01*
X146250525Y-81596666D01*
X146236802Y-81598141D01*
X146236816Y-81598238D01*
X146228036Y-81599500D01*
X146089949Y-81640045D01*
X145968873Y-81717856D01*
X145874623Y-81826626D01*
X145874622Y-81826628D01*
X145814834Y-81957543D01*
X145794353Y-82100000D01*
X145814834Y-82242457D01*
X145814835Y-82242458D01*
X145852069Y-82323989D01*
X145862013Y-82393147D01*
X145832988Y-82456703D01*
X145774210Y-82494477D01*
X145739275Y-82499500D01*
X145362878Y-82499500D01*
X145295839Y-82479815D01*
X145250084Y-82427011D01*
X145240140Y-82357853D01*
X145240227Y-82357248D01*
X145255647Y-82250000D01*
X145235165Y-82107543D01*
X145175377Y-81976627D01*
X145081128Y-81867857D01*
X144960053Y-81790047D01*
X144960051Y-81790046D01*
X144960049Y-81790045D01*
X144960050Y-81790045D01*
X144821963Y-81749500D01*
X144821961Y-81749500D01*
X144678039Y-81749500D01*
X144678036Y-81749500D01*
X144539949Y-81790045D01*
X144418873Y-81867856D01*
X144324623Y-81976626D01*
X144324622Y-81976628D01*
X144264834Y-82107543D01*
X144244353Y-82250000D01*
X144264834Y-82392456D01*
X144304123Y-82478485D01*
X144324623Y-82523373D01*
X144331710Y-82531552D01*
X144360737Y-82595106D01*
X144362000Y-82612757D01*
X144362000Y-82637667D01*
X144342315Y-82704706D01*
X144289511Y-82750461D01*
X144220353Y-82760405D01*
X144156797Y-82731380D01*
X144150319Y-82725348D01*
X143525129Y-82100158D01*
X143491644Y-82038835D01*
X143490106Y-81994599D01*
X143500500Y-81923260D01*
X143500500Y-81556739D01*
X143490573Y-81488608D01*
X143490573Y-81488607D01*
X143439198Y-81383517D01*
X143439196Y-81383515D01*
X143439196Y-81383514D01*
X143356485Y-81300803D01*
X143251391Y-81249426D01*
X143183261Y-81239500D01*
X143183260Y-81239500D01*
X141824500Y-81239500D01*
X141757461Y-81219815D01*
X141711706Y-81167011D01*
X141700500Y-81115500D01*
X141700500Y-81094500D01*
X141720185Y-81027461D01*
X141772989Y-80981706D01*
X141824500Y-80970500D01*
X143183261Y-80970500D01*
X143205971Y-80967191D01*
X143251393Y-80960573D01*
X143356483Y-80909198D01*
X143439198Y-80826483D01*
X143490573Y-80721393D01*
X143490573Y-80721391D01*
X143490574Y-80721390D01*
X143493416Y-80712193D01*
X143495485Y-80712832D01*
X143519249Y-80661038D01*
X143578093Y-80623366D01*
X143647754Y-80623427D01*
X143778397Y-80661786D01*
X143778399Y-80661787D01*
X143778400Y-80661787D01*
X143922323Y-80661787D01*
X143922323Y-80661786D01*
X144052966Y-80623427D01*
X144060411Y-80621241D01*
X144060411Y-80621240D01*
X144060414Y-80621240D01*
X144181489Y-80543430D01*
X144275738Y-80434660D01*
X144335526Y-80303744D01*
X144356008Y-80161287D01*
X144335526Y-80018830D01*
X144275738Y-79887914D01*
X144181489Y-79779144D01*
X144060414Y-79701334D01*
X144060412Y-79701333D01*
X144060410Y-79701332D01*
X144060411Y-79701332D01*
X143922324Y-79660787D01*
X143922322Y-79660787D01*
X143778400Y-79660787D01*
X143778391Y-79660788D01*
X143777360Y-79661091D01*
X143776286Y-79661090D01*
X143769622Y-79662049D01*
X143769484Y-79661089D01*
X143707491Y-79661081D01*
X143654761Y-79629790D01*
X143616581Y-79591610D01*
X143583096Y-79530287D01*
X143587221Y-79462972D01*
X143591760Y-79450000D01*
X141481000Y-79450000D01*
X141413961Y-79430315D01*
X141368206Y-79377511D01*
X141357000Y-79326000D01*
X141357000Y-79300000D01*
X141220000Y-79300000D01*
X141220000Y-79607981D01*
X141200315Y-79675020D01*
X141183681Y-79695662D01*
X140815489Y-80063855D01*
X140759541Y-80119802D01*
X140759535Y-80119810D01*
X140719982Y-80188319D01*
X140719979Y-80188324D01*
X140713550Y-80212317D01*
X140701668Y-80256664D01*
X140699500Y-80264754D01*
X140699500Y-80824168D01*
X140679815Y-80891207D01*
X140663181Y-80911849D01*
X140211849Y-81363181D01*
X140150526Y-81396666D01*
X140124168Y-81399500D01*
X139424499Y-81399500D01*
X139357460Y-81379815D01*
X139311705Y-81327011D01*
X139300499Y-81275500D01*
X139300499Y-81125143D01*
X139300498Y-81125127D01*
X139300097Y-81121670D01*
X139311926Y-81052809D01*
X139322956Y-81034492D01*
X139327643Y-81028041D01*
X139385164Y-80915148D01*
X139393898Y-80860000D01*
X138824000Y-80860000D01*
X138756961Y-80840315D01*
X138711206Y-80787511D01*
X138700000Y-80736000D01*
X138700000Y-80460000D01*
X139100000Y-80460000D01*
X139393898Y-80460000D01*
X139385164Y-80404853D01*
X139327639Y-80291953D01*
X139327636Y-80291949D01*
X139238050Y-80202363D01*
X139238046Y-80202360D01*
X139125143Y-80144833D01*
X139100000Y-80140851D01*
X139100000Y-80460000D01*
X138700000Y-80460000D01*
X138700000Y-80140851D01*
X138674856Y-80144833D01*
X138561953Y-80202360D01*
X138561949Y-80202363D01*
X138472363Y-80291949D01*
X138472358Y-80291956D01*
X138464984Y-80306429D01*
X138417009Y-80357224D01*
X138349188Y-80374019D01*
X138283053Y-80351481D01*
X138239603Y-80296765D01*
X138230500Y-80250133D01*
X138230500Y-79815967D01*
X138250185Y-79748928D01*
X138302989Y-79703173D01*
X138372147Y-79693229D01*
X138435703Y-79722254D01*
X138436595Y-79723036D01*
X138465822Y-79748928D01*
X138479150Y-79760736D01*
X138629773Y-79839789D01*
X138629775Y-79839790D01*
X138794944Y-79880500D01*
X138965056Y-79880500D01*
X139130225Y-79839790D01*
X139245777Y-79779143D01*
X139280849Y-79760736D01*
X139280850Y-79760734D01*
X139280852Y-79760734D01*
X139408183Y-79647929D01*
X139472977Y-79554059D01*
X139527259Y-79510070D01*
X139575026Y-79500500D01*
X140344225Y-79500500D01*
X140344229Y-79500499D01*
X140554856Y-79500499D01*
X140554864Y-79500499D01*
X140558328Y-79500097D01*
X140627188Y-79511925D01*
X140645500Y-79522951D01*
X140651953Y-79527639D01*
X140764853Y-79585164D01*
X140820000Y-79593898D01*
X140820000Y-79024000D01*
X140839685Y-78956961D01*
X140892489Y-78911206D01*
X140944000Y-78900000D01*
X141491638Y-78900000D01*
X141558677Y-78919685D01*
X141579319Y-78936319D01*
X141593000Y-78950000D01*
X143591761Y-78950000D01*
X143552346Y-78837354D01*
X143523400Y-78798134D01*
X143499429Y-78732505D01*
X143514744Y-78664335D01*
X143564484Y-78615266D01*
X143623170Y-78600500D01*
X145039077Y-78600500D01*
X145106116Y-78620185D01*
X145151871Y-78672989D01*
X145161815Y-78742147D01*
X145151871Y-78776012D01*
X145119669Y-78846522D01*
X145099188Y-78988979D01*
X145119669Y-79131435D01*
X145179457Y-79262350D01*
X145179458Y-79262352D01*
X145273707Y-79371122D01*
X145394782Y-79448932D01*
X145394785Y-79448933D01*
X145394784Y-79448933D01*
X145532871Y-79489478D01*
X145532873Y-79489479D01*
X145532874Y-79489479D01*
X145676797Y-79489479D01*
X145676797Y-79489478D01*
X145803738Y-79452206D01*
X145814885Y-79448933D01*
X145814885Y-79448932D01*
X145814888Y-79448932D01*
X145935963Y-79371122D01*
X146030212Y-79262352D01*
X146090000Y-79131436D01*
X146110482Y-78988979D01*
X146104878Y-78950000D01*
X148608238Y-78950000D01*
X149450000Y-78950000D01*
X149450000Y-78600000D01*
X149950000Y-78600000D01*
X149950000Y-78950000D01*
X150607000Y-78950000D01*
X150620681Y-78936319D01*
X150682004Y-78902834D01*
X150708362Y-78900000D01*
X150980000Y-78900000D01*
X150980000Y-78500000D01*
X150660851Y-78500000D01*
X150656686Y-78504875D01*
X150649950Y-78557005D01*
X150604954Y-78610457D01*
X150538202Y-78631096D01*
X150495478Y-78624151D01*
X150434602Y-78602850D01*
X150404207Y-78600000D01*
X149950000Y-78600000D01*
X149450000Y-78600000D01*
X148995803Y-78600000D01*
X148965393Y-78602851D01*
X148837354Y-78647653D01*
X148728207Y-78728207D01*
X148647653Y-78837354D01*
X148608238Y-78950000D01*
X146104878Y-78950000D01*
X146096634Y-78892666D01*
X146099599Y-78842921D01*
X146100500Y-78839562D01*
X146100500Y-78760438D01*
X146100500Y-78260438D01*
X146080021Y-78184011D01*
X146063339Y-78155117D01*
X146040464Y-78115495D01*
X146040458Y-78115487D01*
X146037152Y-78112181D01*
X146003667Y-78050858D01*
X146008651Y-77981166D01*
X146050523Y-77925233D01*
X146115987Y-77900816D01*
X146124833Y-77900500D01*
X150551323Y-77900500D01*
X150618362Y-77920185D01*
G37*
%TD.AperFunction*%
%TA.AperFunction,Conductor*%
G36*
X145921929Y-84569343D02*
G01*
X145984102Y-84587599D01*
X146028038Y-84600500D01*
X146140934Y-84600500D01*
X146207973Y-84620185D01*
X146253728Y-84672989D01*
X146254311Y-84674285D01*
X146297794Y-84772765D01*
X146377235Y-84852206D01*
X146480009Y-84897585D01*
X146505135Y-84900500D01*
X146638000Y-84900499D01*
X146705039Y-84920183D01*
X146750794Y-84972987D01*
X146762000Y-85024499D01*
X146762000Y-85138500D01*
X146742315Y-85205539D01*
X146689511Y-85251294D01*
X146638002Y-85262500D01*
X146579287Y-85262500D01*
X146511246Y-85272413D01*
X146502045Y-85275256D01*
X146501139Y-85272325D01*
X146448062Y-85281377D01*
X146423303Y-85274105D01*
X146422948Y-85275255D01*
X146413744Y-85272410D01*
X146345719Y-85262500D01*
X146179286Y-85262500D01*
X146111251Y-85272412D01*
X146006310Y-85323714D01*
X146004344Y-85325681D01*
X146000994Y-85327510D01*
X145997951Y-85329683D01*
X145997688Y-85329315D01*
X145943021Y-85359166D01*
X145916663Y-85362000D01*
X145887000Y-85362000D01*
X145819961Y-85342315D01*
X145774206Y-85289511D01*
X145763000Y-85238000D01*
X145763000Y-84688322D01*
X145782685Y-84621283D01*
X145835489Y-84575528D01*
X145904647Y-84565584D01*
X145921929Y-84569343D01*
G37*
%TD.AperFunction*%
%TD*%
M02*
