%TF.GenerationSoftware,KiCad,Pcbnew,8.0.4*%
%TF.CreationDate,2024-08-15T19:07:05-07:00*%
%TF.ProjectId,RoboBuddy_NoSIlkScreen,526f626f-4275-4646-9479-5f4e6f53496c,rev?*%
%TF.SameCoordinates,Original*%
%TF.FileFunction,Legend,Top*%
%TF.FilePolarity,Positive*%
%FSLAX46Y46*%
G04 Gerber Fmt 4.6, Leading zero omitted, Abs format (unit mm)*
G04 Created by KiCad (PCBNEW 8.0.4) date 2024-08-15 19:07:05*
%MOMM*%
%LPD*%
G01*
G04 APERTURE LIST*
%ADD10C,0.150000*%
%ADD11C,0.120000*%
G04 APERTURE END LIST*
D10*
X138899523Y-84772438D02*
X138804285Y-84724819D01*
X138804285Y-84724819D02*
X138661428Y-84724819D01*
X138661428Y-84724819D02*
X138518571Y-84772438D01*
X138518571Y-84772438D02*
X138423333Y-84867676D01*
X138423333Y-84867676D02*
X138375714Y-84962914D01*
X138375714Y-84962914D02*
X138328095Y-85153390D01*
X138328095Y-85153390D02*
X138328095Y-85296247D01*
X138328095Y-85296247D02*
X138375714Y-85486723D01*
X138375714Y-85486723D02*
X138423333Y-85581961D01*
X138423333Y-85581961D02*
X138518571Y-85677200D01*
X138518571Y-85677200D02*
X138661428Y-85724819D01*
X138661428Y-85724819D02*
X138756666Y-85724819D01*
X138756666Y-85724819D02*
X138899523Y-85677200D01*
X138899523Y-85677200D02*
X138947142Y-85629580D01*
X138947142Y-85629580D02*
X138947142Y-85296247D01*
X138947142Y-85296247D02*
X138756666Y-85296247D01*
X139375714Y-85724819D02*
X139375714Y-84724819D01*
X139375714Y-84724819D02*
X139756666Y-84724819D01*
X139756666Y-84724819D02*
X139851904Y-84772438D01*
X139851904Y-84772438D02*
X139899523Y-84820057D01*
X139899523Y-84820057D02*
X139947142Y-84915295D01*
X139947142Y-84915295D02*
X139947142Y-85058152D01*
X139947142Y-85058152D02*
X139899523Y-85153390D01*
X139899523Y-85153390D02*
X139851904Y-85201009D01*
X139851904Y-85201009D02*
X139756666Y-85248628D01*
X139756666Y-85248628D02*
X139375714Y-85248628D01*
X140899523Y-85724819D02*
X140328095Y-85724819D01*
X140613809Y-85724819D02*
X140613809Y-84724819D01*
X140613809Y-84724819D02*
X140518571Y-84867676D01*
X140518571Y-84867676D02*
X140423333Y-84962914D01*
X140423333Y-84962914D02*
X140328095Y-85010533D01*
X141518571Y-84724819D02*
X141613809Y-84724819D01*
X141613809Y-84724819D02*
X141709047Y-84772438D01*
X141709047Y-84772438D02*
X141756666Y-84820057D01*
X141756666Y-84820057D02*
X141804285Y-84915295D01*
X141804285Y-84915295D02*
X141851904Y-85105771D01*
X141851904Y-85105771D02*
X141851904Y-85343866D01*
X141851904Y-85343866D02*
X141804285Y-85534342D01*
X141804285Y-85534342D02*
X141756666Y-85629580D01*
X141756666Y-85629580D02*
X141709047Y-85677200D01*
X141709047Y-85677200D02*
X141613809Y-85724819D01*
X141613809Y-85724819D02*
X141518571Y-85724819D01*
X141518571Y-85724819D02*
X141423333Y-85677200D01*
X141423333Y-85677200D02*
X141375714Y-85629580D01*
X141375714Y-85629580D02*
X141328095Y-85534342D01*
X141328095Y-85534342D02*
X141280476Y-85343866D01*
X141280476Y-85343866D02*
X141280476Y-85105771D01*
X141280476Y-85105771D02*
X141328095Y-84915295D01*
X141328095Y-84915295D02*
X141375714Y-84820057D01*
X141375714Y-84820057D02*
X141423333Y-84772438D01*
X141423333Y-84772438D02*
X141518571Y-84724819D01*
X155035714Y-95907200D02*
X155178571Y-95954819D01*
X155178571Y-95954819D02*
X155416666Y-95954819D01*
X155416666Y-95954819D02*
X155511904Y-95907200D01*
X155511904Y-95907200D02*
X155559523Y-95859580D01*
X155559523Y-95859580D02*
X155607142Y-95764342D01*
X155607142Y-95764342D02*
X155607142Y-95669104D01*
X155607142Y-95669104D02*
X155559523Y-95573866D01*
X155559523Y-95573866D02*
X155511904Y-95526247D01*
X155511904Y-95526247D02*
X155416666Y-95478628D01*
X155416666Y-95478628D02*
X155226190Y-95431009D01*
X155226190Y-95431009D02*
X155130952Y-95383390D01*
X155130952Y-95383390D02*
X155083333Y-95335771D01*
X155083333Y-95335771D02*
X155035714Y-95240533D01*
X155035714Y-95240533D02*
X155035714Y-95145295D01*
X155035714Y-95145295D02*
X155083333Y-95050057D01*
X155083333Y-95050057D02*
X155130952Y-95002438D01*
X155130952Y-95002438D02*
X155226190Y-94954819D01*
X155226190Y-94954819D02*
X155464285Y-94954819D01*
X155464285Y-94954819D02*
X155607142Y-95002438D01*
X156035714Y-95954819D02*
X156035714Y-94954819D01*
X156035714Y-94954819D02*
X156273809Y-94954819D01*
X156273809Y-94954819D02*
X156416666Y-95002438D01*
X156416666Y-95002438D02*
X156511904Y-95097676D01*
X156511904Y-95097676D02*
X156559523Y-95192914D01*
X156559523Y-95192914D02*
X156607142Y-95383390D01*
X156607142Y-95383390D02*
X156607142Y-95526247D01*
X156607142Y-95526247D02*
X156559523Y-95716723D01*
X156559523Y-95716723D02*
X156511904Y-95811961D01*
X156511904Y-95811961D02*
X156416666Y-95907200D01*
X156416666Y-95907200D02*
X156273809Y-95954819D01*
X156273809Y-95954819D02*
X156035714Y-95954819D01*
X156988095Y-95669104D02*
X157464285Y-95669104D01*
X156892857Y-95954819D02*
X157226190Y-94954819D01*
X157226190Y-94954819D02*
X157559523Y-95954819D01*
X153252438Y-95940476D02*
X153204819Y-96035714D01*
X153204819Y-96035714D02*
X153204819Y-96178571D01*
X153204819Y-96178571D02*
X153252438Y-96321428D01*
X153252438Y-96321428D02*
X153347676Y-96416666D01*
X153347676Y-96416666D02*
X153442914Y-96464285D01*
X153442914Y-96464285D02*
X153633390Y-96511904D01*
X153633390Y-96511904D02*
X153776247Y-96511904D01*
X153776247Y-96511904D02*
X153966723Y-96464285D01*
X153966723Y-96464285D02*
X154061961Y-96416666D01*
X154061961Y-96416666D02*
X154157200Y-96321428D01*
X154157200Y-96321428D02*
X154204819Y-96178571D01*
X154204819Y-96178571D02*
X154204819Y-96083333D01*
X154204819Y-96083333D02*
X154157200Y-95940476D01*
X154157200Y-95940476D02*
X154109580Y-95892857D01*
X154109580Y-95892857D02*
X153776247Y-95892857D01*
X153776247Y-95892857D02*
X153776247Y-96083333D01*
X154204819Y-95464285D02*
X153204819Y-95464285D01*
X153204819Y-95464285D02*
X153204819Y-95083333D01*
X153204819Y-95083333D02*
X153252438Y-94988095D01*
X153252438Y-94988095D02*
X153300057Y-94940476D01*
X153300057Y-94940476D02*
X153395295Y-94892857D01*
X153395295Y-94892857D02*
X153538152Y-94892857D01*
X153538152Y-94892857D02*
X153633390Y-94940476D01*
X153633390Y-94940476D02*
X153681009Y-94988095D01*
X153681009Y-94988095D02*
X153728628Y-95083333D01*
X153728628Y-95083333D02*
X153728628Y-95464285D01*
X154204819Y-93940476D02*
X154204819Y-94511904D01*
X154204819Y-94226190D02*
X153204819Y-94226190D01*
X153204819Y-94226190D02*
X153347676Y-94321428D01*
X153347676Y-94321428D02*
X153442914Y-94416666D01*
X153442914Y-94416666D02*
X153490533Y-94511904D01*
X154204819Y-93464285D02*
X154204819Y-93273809D01*
X154204819Y-93273809D02*
X154157200Y-93178571D01*
X154157200Y-93178571D02*
X154109580Y-93130952D01*
X154109580Y-93130952D02*
X153966723Y-93035714D01*
X153966723Y-93035714D02*
X153776247Y-92988095D01*
X153776247Y-92988095D02*
X153395295Y-92988095D01*
X153395295Y-92988095D02*
X153300057Y-93035714D01*
X153300057Y-93035714D02*
X153252438Y-93083333D01*
X153252438Y-93083333D02*
X153204819Y-93178571D01*
X153204819Y-93178571D02*
X153204819Y-93369047D01*
X153204819Y-93369047D02*
X153252438Y-93464285D01*
X153252438Y-93464285D02*
X153300057Y-93511904D01*
X153300057Y-93511904D02*
X153395295Y-93559523D01*
X153395295Y-93559523D02*
X153633390Y-93559523D01*
X153633390Y-93559523D02*
X153728628Y-93511904D01*
X153728628Y-93511904D02*
X153776247Y-93464285D01*
X153776247Y-93464285D02*
X153823866Y-93369047D01*
X153823866Y-93369047D02*
X153823866Y-93178571D01*
X153823866Y-93178571D02*
X153776247Y-93083333D01*
X153776247Y-93083333D02*
X153728628Y-93035714D01*
X153728628Y-93035714D02*
X153633390Y-92988095D01*
X139079523Y-86422438D02*
X138984285Y-86374819D01*
X138984285Y-86374819D02*
X138841428Y-86374819D01*
X138841428Y-86374819D02*
X138698571Y-86422438D01*
X138698571Y-86422438D02*
X138603333Y-86517676D01*
X138603333Y-86517676D02*
X138555714Y-86612914D01*
X138555714Y-86612914D02*
X138508095Y-86803390D01*
X138508095Y-86803390D02*
X138508095Y-86946247D01*
X138508095Y-86946247D02*
X138555714Y-87136723D01*
X138555714Y-87136723D02*
X138603333Y-87231961D01*
X138603333Y-87231961D02*
X138698571Y-87327200D01*
X138698571Y-87327200D02*
X138841428Y-87374819D01*
X138841428Y-87374819D02*
X138936666Y-87374819D01*
X138936666Y-87374819D02*
X139079523Y-87327200D01*
X139079523Y-87327200D02*
X139127142Y-87279580D01*
X139127142Y-87279580D02*
X139127142Y-86946247D01*
X139127142Y-86946247D02*
X138936666Y-86946247D01*
X139555714Y-87374819D02*
X139555714Y-86374819D01*
X139555714Y-86374819D02*
X139936666Y-86374819D01*
X139936666Y-86374819D02*
X140031904Y-86422438D01*
X140031904Y-86422438D02*
X140079523Y-86470057D01*
X140079523Y-86470057D02*
X140127142Y-86565295D01*
X140127142Y-86565295D02*
X140127142Y-86708152D01*
X140127142Y-86708152D02*
X140079523Y-86803390D01*
X140079523Y-86803390D02*
X140031904Y-86851009D01*
X140031904Y-86851009D02*
X139936666Y-86898628D01*
X139936666Y-86898628D02*
X139555714Y-86898628D01*
X141079523Y-87374819D02*
X140508095Y-87374819D01*
X140793809Y-87374819D02*
X140793809Y-86374819D01*
X140793809Y-86374819D02*
X140698571Y-86517676D01*
X140698571Y-86517676D02*
X140603333Y-86612914D01*
X140603333Y-86612914D02*
X140508095Y-86660533D01*
X142031904Y-87374819D02*
X141460476Y-87374819D01*
X141746190Y-87374819D02*
X141746190Y-86374819D01*
X141746190Y-86374819D02*
X141650952Y-86517676D01*
X141650952Y-86517676D02*
X141555714Y-86612914D01*
X141555714Y-86612914D02*
X141460476Y-86660533D01*
X155488095Y-92752438D02*
X155392857Y-92704819D01*
X155392857Y-92704819D02*
X155250000Y-92704819D01*
X155250000Y-92704819D02*
X155107143Y-92752438D01*
X155107143Y-92752438D02*
X155011905Y-92847676D01*
X155011905Y-92847676D02*
X154964286Y-92942914D01*
X154964286Y-92942914D02*
X154916667Y-93133390D01*
X154916667Y-93133390D02*
X154916667Y-93276247D01*
X154916667Y-93276247D02*
X154964286Y-93466723D01*
X154964286Y-93466723D02*
X155011905Y-93561961D01*
X155011905Y-93561961D02*
X155107143Y-93657200D01*
X155107143Y-93657200D02*
X155250000Y-93704819D01*
X155250000Y-93704819D02*
X155345238Y-93704819D01*
X155345238Y-93704819D02*
X155488095Y-93657200D01*
X155488095Y-93657200D02*
X155535714Y-93609580D01*
X155535714Y-93609580D02*
X155535714Y-93276247D01*
X155535714Y-93276247D02*
X155345238Y-93276247D01*
X155964286Y-93704819D02*
X155964286Y-92704819D01*
X155964286Y-92704819D02*
X156535714Y-93704819D01*
X156535714Y-93704819D02*
X156535714Y-92704819D01*
X157011905Y-93704819D02*
X157011905Y-92704819D01*
X157011905Y-92704819D02*
X157250000Y-92704819D01*
X157250000Y-92704819D02*
X157392857Y-92752438D01*
X157392857Y-92752438D02*
X157488095Y-92847676D01*
X157488095Y-92847676D02*
X157535714Y-92942914D01*
X157535714Y-92942914D02*
X157583333Y-93133390D01*
X157583333Y-93133390D02*
X157583333Y-93276247D01*
X157583333Y-93276247D02*
X157535714Y-93466723D01*
X157535714Y-93466723D02*
X157488095Y-93561961D01*
X157488095Y-93561961D02*
X157392857Y-93657200D01*
X157392857Y-93657200D02*
X157250000Y-93704819D01*
X157250000Y-93704819D02*
X157011905Y-93704819D01*
X154821429Y-90454819D02*
X155440476Y-90454819D01*
X155440476Y-90454819D02*
X155107143Y-90835771D01*
X155107143Y-90835771D02*
X155250000Y-90835771D01*
X155250000Y-90835771D02*
X155345238Y-90883390D01*
X155345238Y-90883390D02*
X155392857Y-90931009D01*
X155392857Y-90931009D02*
X155440476Y-91026247D01*
X155440476Y-91026247D02*
X155440476Y-91264342D01*
X155440476Y-91264342D02*
X155392857Y-91359580D01*
X155392857Y-91359580D02*
X155345238Y-91407200D01*
X155345238Y-91407200D02*
X155250000Y-91454819D01*
X155250000Y-91454819D02*
X154964286Y-91454819D01*
X154964286Y-91454819D02*
X154869048Y-91407200D01*
X154869048Y-91407200D02*
X154821429Y-91359580D01*
X155869048Y-91359580D02*
X155916667Y-91407200D01*
X155916667Y-91407200D02*
X155869048Y-91454819D01*
X155869048Y-91454819D02*
X155821429Y-91407200D01*
X155821429Y-91407200D02*
X155869048Y-91359580D01*
X155869048Y-91359580D02*
X155869048Y-91454819D01*
X156250000Y-90454819D02*
X156869047Y-90454819D01*
X156869047Y-90454819D02*
X156535714Y-90835771D01*
X156535714Y-90835771D02*
X156678571Y-90835771D01*
X156678571Y-90835771D02*
X156773809Y-90883390D01*
X156773809Y-90883390D02*
X156821428Y-90931009D01*
X156821428Y-90931009D02*
X156869047Y-91026247D01*
X156869047Y-91026247D02*
X156869047Y-91264342D01*
X156869047Y-91264342D02*
X156821428Y-91359580D01*
X156821428Y-91359580D02*
X156773809Y-91407200D01*
X156773809Y-91407200D02*
X156678571Y-91454819D01*
X156678571Y-91454819D02*
X156392857Y-91454819D01*
X156392857Y-91454819D02*
X156297619Y-91407200D01*
X156297619Y-91407200D02*
X156250000Y-91359580D01*
X157202381Y-90788152D02*
X157440476Y-91454819D01*
X157440476Y-91454819D02*
X157678571Y-90788152D01*
X148773809Y-96728628D02*
X148773809Y-97204819D01*
X148440476Y-96204819D02*
X148773809Y-96728628D01*
X148773809Y-96728628D02*
X149107142Y-96204819D01*
X149964285Y-97204819D02*
X149392857Y-97204819D01*
X149678571Y-97204819D02*
X149678571Y-96204819D01*
X149678571Y-96204819D02*
X149583333Y-96347676D01*
X149583333Y-96347676D02*
X149488095Y-96442914D01*
X149488095Y-96442914D02*
X149392857Y-96490533D01*
X155059524Y-98157200D02*
X155202381Y-98204819D01*
X155202381Y-98204819D02*
X155440476Y-98204819D01*
X155440476Y-98204819D02*
X155535714Y-98157200D01*
X155535714Y-98157200D02*
X155583333Y-98109580D01*
X155583333Y-98109580D02*
X155630952Y-98014342D01*
X155630952Y-98014342D02*
X155630952Y-97919104D01*
X155630952Y-97919104D02*
X155583333Y-97823866D01*
X155583333Y-97823866D02*
X155535714Y-97776247D01*
X155535714Y-97776247D02*
X155440476Y-97728628D01*
X155440476Y-97728628D02*
X155250000Y-97681009D01*
X155250000Y-97681009D02*
X155154762Y-97633390D01*
X155154762Y-97633390D02*
X155107143Y-97585771D01*
X155107143Y-97585771D02*
X155059524Y-97490533D01*
X155059524Y-97490533D02*
X155059524Y-97395295D01*
X155059524Y-97395295D02*
X155107143Y-97300057D01*
X155107143Y-97300057D02*
X155154762Y-97252438D01*
X155154762Y-97252438D02*
X155250000Y-97204819D01*
X155250000Y-97204819D02*
X155488095Y-97204819D01*
X155488095Y-97204819D02*
X155630952Y-97252438D01*
X156630952Y-98109580D02*
X156583333Y-98157200D01*
X156583333Y-98157200D02*
X156440476Y-98204819D01*
X156440476Y-98204819D02*
X156345238Y-98204819D01*
X156345238Y-98204819D02*
X156202381Y-98157200D01*
X156202381Y-98157200D02*
X156107143Y-98061961D01*
X156107143Y-98061961D02*
X156059524Y-97966723D01*
X156059524Y-97966723D02*
X156011905Y-97776247D01*
X156011905Y-97776247D02*
X156011905Y-97633390D01*
X156011905Y-97633390D02*
X156059524Y-97442914D01*
X156059524Y-97442914D02*
X156107143Y-97347676D01*
X156107143Y-97347676D02*
X156202381Y-97252438D01*
X156202381Y-97252438D02*
X156345238Y-97204819D01*
X156345238Y-97204819D02*
X156440476Y-97204819D01*
X156440476Y-97204819D02*
X156583333Y-97252438D01*
X156583333Y-97252438D02*
X156630952Y-97300057D01*
X157535714Y-98204819D02*
X157059524Y-98204819D01*
X157059524Y-98204819D02*
X157059524Y-97204819D01*
X145338095Y-80559819D02*
X145338095Y-81369342D01*
X145338095Y-81369342D02*
X145385714Y-81464580D01*
X145385714Y-81464580D02*
X145433333Y-81512200D01*
X145433333Y-81512200D02*
X145528571Y-81559819D01*
X145528571Y-81559819D02*
X145719047Y-81559819D01*
X145719047Y-81559819D02*
X145814285Y-81512200D01*
X145814285Y-81512200D02*
X145861904Y-81464580D01*
X145861904Y-81464580D02*
X145909523Y-81369342D01*
X145909523Y-81369342D02*
X145909523Y-80559819D01*
X146290476Y-80559819D02*
X146909523Y-80559819D01*
X146909523Y-80559819D02*
X146576190Y-80940771D01*
X146576190Y-80940771D02*
X146719047Y-80940771D01*
X146719047Y-80940771D02*
X146814285Y-80988390D01*
X146814285Y-80988390D02*
X146861904Y-81036009D01*
X146861904Y-81036009D02*
X146909523Y-81131247D01*
X146909523Y-81131247D02*
X146909523Y-81369342D01*
X146909523Y-81369342D02*
X146861904Y-81464580D01*
X146861904Y-81464580D02*
X146814285Y-81512200D01*
X146814285Y-81512200D02*
X146719047Y-81559819D01*
X146719047Y-81559819D02*
X146433333Y-81559819D01*
X146433333Y-81559819D02*
X146338095Y-81512200D01*
X146338095Y-81512200D02*
X146290476Y-81464580D01*
X142575595Y-96454819D02*
X142575595Y-97264342D01*
X142575595Y-97264342D02*
X142623214Y-97359580D01*
X142623214Y-97359580D02*
X142670833Y-97407200D01*
X142670833Y-97407200D02*
X142766071Y-97454819D01*
X142766071Y-97454819D02*
X142956547Y-97454819D01*
X142956547Y-97454819D02*
X143051785Y-97407200D01*
X143051785Y-97407200D02*
X143099404Y-97359580D01*
X143099404Y-97359580D02*
X143147023Y-97264342D01*
X143147023Y-97264342D02*
X143147023Y-96454819D01*
X144051785Y-96788152D02*
X144051785Y-97454819D01*
X143813690Y-96407200D02*
X143575595Y-97121485D01*
X143575595Y-97121485D02*
X144194642Y-97121485D01*
X139055714Y-83612438D02*
X138960476Y-83564819D01*
X138960476Y-83564819D02*
X138817619Y-83564819D01*
X138817619Y-83564819D02*
X138674762Y-83612438D01*
X138674762Y-83612438D02*
X138579524Y-83707676D01*
X138579524Y-83707676D02*
X138531905Y-83802914D01*
X138531905Y-83802914D02*
X138484286Y-83993390D01*
X138484286Y-83993390D02*
X138484286Y-84136247D01*
X138484286Y-84136247D02*
X138531905Y-84326723D01*
X138531905Y-84326723D02*
X138579524Y-84421961D01*
X138579524Y-84421961D02*
X138674762Y-84517200D01*
X138674762Y-84517200D02*
X138817619Y-84564819D01*
X138817619Y-84564819D02*
X138912857Y-84564819D01*
X138912857Y-84564819D02*
X139055714Y-84517200D01*
X139055714Y-84517200D02*
X139103333Y-84469580D01*
X139103333Y-84469580D02*
X139103333Y-84136247D01*
X139103333Y-84136247D02*
X138912857Y-84136247D01*
X139531905Y-84564819D02*
X139531905Y-83564819D01*
X139531905Y-83564819D02*
X139912857Y-83564819D01*
X139912857Y-83564819D02*
X140008095Y-83612438D01*
X140008095Y-83612438D02*
X140055714Y-83660057D01*
X140055714Y-83660057D02*
X140103333Y-83755295D01*
X140103333Y-83755295D02*
X140103333Y-83898152D01*
X140103333Y-83898152D02*
X140055714Y-83993390D01*
X140055714Y-83993390D02*
X140008095Y-84041009D01*
X140008095Y-84041009D02*
X139912857Y-84088628D01*
X139912857Y-84088628D02*
X139531905Y-84088628D01*
X140579524Y-84564819D02*
X140770000Y-84564819D01*
X140770000Y-84564819D02*
X140865238Y-84517200D01*
X140865238Y-84517200D02*
X140912857Y-84469580D01*
X140912857Y-84469580D02*
X141008095Y-84326723D01*
X141008095Y-84326723D02*
X141055714Y-84136247D01*
X141055714Y-84136247D02*
X141055714Y-83755295D01*
X141055714Y-83755295D02*
X141008095Y-83660057D01*
X141008095Y-83660057D02*
X140960476Y-83612438D01*
X140960476Y-83612438D02*
X140865238Y-83564819D01*
X140865238Y-83564819D02*
X140674762Y-83564819D01*
X140674762Y-83564819D02*
X140579524Y-83612438D01*
X140579524Y-83612438D02*
X140531905Y-83660057D01*
X140531905Y-83660057D02*
X140484286Y-83755295D01*
X140484286Y-83755295D02*
X140484286Y-83993390D01*
X140484286Y-83993390D02*
X140531905Y-84088628D01*
X140531905Y-84088628D02*
X140579524Y-84136247D01*
X140579524Y-84136247D02*
X140674762Y-84183866D01*
X140674762Y-84183866D02*
X140865238Y-84183866D01*
X140865238Y-84183866D02*
X140960476Y-84136247D01*
X140960476Y-84136247D02*
X141008095Y-84088628D01*
X141008095Y-84088628D02*
X141055714Y-83993390D01*
X155038095Y-82654819D02*
X155038095Y-83464342D01*
X155038095Y-83464342D02*
X155085714Y-83559580D01*
X155085714Y-83559580D02*
X155133333Y-83607200D01*
X155133333Y-83607200D02*
X155228571Y-83654819D01*
X155228571Y-83654819D02*
X155419047Y-83654819D01*
X155419047Y-83654819D02*
X155514285Y-83607200D01*
X155514285Y-83607200D02*
X155561904Y-83559580D01*
X155561904Y-83559580D02*
X155609523Y-83464342D01*
X155609523Y-83464342D02*
X155609523Y-82654819D01*
X156038095Y-82750057D02*
X156085714Y-82702438D01*
X156085714Y-82702438D02*
X156180952Y-82654819D01*
X156180952Y-82654819D02*
X156419047Y-82654819D01*
X156419047Y-82654819D02*
X156514285Y-82702438D01*
X156514285Y-82702438D02*
X156561904Y-82750057D01*
X156561904Y-82750057D02*
X156609523Y-82845295D01*
X156609523Y-82845295D02*
X156609523Y-82940533D01*
X156609523Y-82940533D02*
X156561904Y-83083390D01*
X156561904Y-83083390D02*
X155990476Y-83654819D01*
X155990476Y-83654819D02*
X156609523Y-83654819D01*
X152002438Y-96190476D02*
X151954819Y-96285714D01*
X151954819Y-96285714D02*
X151954819Y-96428571D01*
X151954819Y-96428571D02*
X152002438Y-96571428D01*
X152002438Y-96571428D02*
X152097676Y-96666666D01*
X152097676Y-96666666D02*
X152192914Y-96714285D01*
X152192914Y-96714285D02*
X152383390Y-96761904D01*
X152383390Y-96761904D02*
X152526247Y-96761904D01*
X152526247Y-96761904D02*
X152716723Y-96714285D01*
X152716723Y-96714285D02*
X152811961Y-96666666D01*
X152811961Y-96666666D02*
X152907200Y-96571428D01*
X152907200Y-96571428D02*
X152954819Y-96428571D01*
X152954819Y-96428571D02*
X152954819Y-96333333D01*
X152954819Y-96333333D02*
X152907200Y-96190476D01*
X152907200Y-96190476D02*
X152859580Y-96142857D01*
X152859580Y-96142857D02*
X152526247Y-96142857D01*
X152526247Y-96142857D02*
X152526247Y-96333333D01*
X152954819Y-95714285D02*
X151954819Y-95714285D01*
X151954819Y-95714285D02*
X151954819Y-95333333D01*
X151954819Y-95333333D02*
X152002438Y-95238095D01*
X152002438Y-95238095D02*
X152050057Y-95190476D01*
X152050057Y-95190476D02*
X152145295Y-95142857D01*
X152145295Y-95142857D02*
X152288152Y-95142857D01*
X152288152Y-95142857D02*
X152383390Y-95190476D01*
X152383390Y-95190476D02*
X152431009Y-95238095D01*
X152431009Y-95238095D02*
X152478628Y-95333333D01*
X152478628Y-95333333D02*
X152478628Y-95714285D01*
X152954819Y-94190476D02*
X152954819Y-94761904D01*
X152954819Y-94476190D02*
X151954819Y-94476190D01*
X151954819Y-94476190D02*
X152097676Y-94571428D01*
X152097676Y-94571428D02*
X152192914Y-94666666D01*
X152192914Y-94666666D02*
X152240533Y-94761904D01*
X152383390Y-93619047D02*
X152335771Y-93714285D01*
X152335771Y-93714285D02*
X152288152Y-93761904D01*
X152288152Y-93761904D02*
X152192914Y-93809523D01*
X152192914Y-93809523D02*
X152145295Y-93809523D01*
X152145295Y-93809523D02*
X152050057Y-93761904D01*
X152050057Y-93761904D02*
X152002438Y-93714285D01*
X152002438Y-93714285D02*
X151954819Y-93619047D01*
X151954819Y-93619047D02*
X151954819Y-93428571D01*
X151954819Y-93428571D02*
X152002438Y-93333333D01*
X152002438Y-93333333D02*
X152050057Y-93285714D01*
X152050057Y-93285714D02*
X152145295Y-93238095D01*
X152145295Y-93238095D02*
X152192914Y-93238095D01*
X152192914Y-93238095D02*
X152288152Y-93285714D01*
X152288152Y-93285714D02*
X152335771Y-93333333D01*
X152335771Y-93333333D02*
X152383390Y-93428571D01*
X152383390Y-93428571D02*
X152383390Y-93619047D01*
X152383390Y-93619047D02*
X152431009Y-93714285D01*
X152431009Y-93714285D02*
X152478628Y-93761904D01*
X152478628Y-93761904D02*
X152573866Y-93809523D01*
X152573866Y-93809523D02*
X152764342Y-93809523D01*
X152764342Y-93809523D02*
X152859580Y-93761904D01*
X152859580Y-93761904D02*
X152907200Y-93714285D01*
X152907200Y-93714285D02*
X152954819Y-93619047D01*
X152954819Y-93619047D02*
X152954819Y-93428571D01*
X152954819Y-93428571D02*
X152907200Y-93333333D01*
X152907200Y-93333333D02*
X152859580Y-93285714D01*
X152859580Y-93285714D02*
X152764342Y-93238095D01*
X152764342Y-93238095D02*
X152573866Y-93238095D01*
X152573866Y-93238095D02*
X152478628Y-93285714D01*
X152478628Y-93285714D02*
X152431009Y-93333333D01*
X152431009Y-93333333D02*
X152383390Y-93428571D01*
X153285714Y-88919104D02*
X153761904Y-88919104D01*
X153190476Y-89204819D02*
X153523809Y-88204819D01*
X153523809Y-88204819D02*
X153857142Y-89204819D01*
X154190476Y-89204819D02*
X154190476Y-88204819D01*
X154190476Y-88204819D02*
X154428571Y-88204819D01*
X154428571Y-88204819D02*
X154571428Y-88252438D01*
X154571428Y-88252438D02*
X154666666Y-88347676D01*
X154666666Y-88347676D02*
X154714285Y-88442914D01*
X154714285Y-88442914D02*
X154761904Y-88633390D01*
X154761904Y-88633390D02*
X154761904Y-88776247D01*
X154761904Y-88776247D02*
X154714285Y-88966723D01*
X154714285Y-88966723D02*
X154666666Y-89061961D01*
X154666666Y-89061961D02*
X154571428Y-89157200D01*
X154571428Y-89157200D02*
X154428571Y-89204819D01*
X154428571Y-89204819D02*
X154190476Y-89204819D01*
X155761904Y-89109580D02*
X155714285Y-89157200D01*
X155714285Y-89157200D02*
X155571428Y-89204819D01*
X155571428Y-89204819D02*
X155476190Y-89204819D01*
X155476190Y-89204819D02*
X155333333Y-89157200D01*
X155333333Y-89157200D02*
X155238095Y-89061961D01*
X155238095Y-89061961D02*
X155190476Y-88966723D01*
X155190476Y-88966723D02*
X155142857Y-88776247D01*
X155142857Y-88776247D02*
X155142857Y-88633390D01*
X155142857Y-88633390D02*
X155190476Y-88442914D01*
X155190476Y-88442914D02*
X155238095Y-88347676D01*
X155238095Y-88347676D02*
X155333333Y-88252438D01*
X155333333Y-88252438D02*
X155476190Y-88204819D01*
X155476190Y-88204819D02*
X155571428Y-88204819D01*
X155571428Y-88204819D02*
X155714285Y-88252438D01*
X155714285Y-88252438D02*
X155761904Y-88300057D01*
X156380952Y-88204819D02*
X156476190Y-88204819D01*
X156476190Y-88204819D02*
X156571428Y-88252438D01*
X156571428Y-88252438D02*
X156619047Y-88300057D01*
X156619047Y-88300057D02*
X156666666Y-88395295D01*
X156666666Y-88395295D02*
X156714285Y-88585771D01*
X156714285Y-88585771D02*
X156714285Y-88823866D01*
X156714285Y-88823866D02*
X156666666Y-89014342D01*
X156666666Y-89014342D02*
X156619047Y-89109580D01*
X156619047Y-89109580D02*
X156571428Y-89157200D01*
X156571428Y-89157200D02*
X156476190Y-89204819D01*
X156476190Y-89204819D02*
X156380952Y-89204819D01*
X156380952Y-89204819D02*
X156285714Y-89157200D01*
X156285714Y-89157200D02*
X156238095Y-89109580D01*
X156238095Y-89109580D02*
X156190476Y-89014342D01*
X156190476Y-89014342D02*
X156142857Y-88823866D01*
X156142857Y-88823866D02*
X156142857Y-88585771D01*
X156142857Y-88585771D02*
X156190476Y-88395295D01*
X156190476Y-88395295D02*
X156238095Y-88300057D01*
X156238095Y-88300057D02*
X156285714Y-88252438D01*
X156285714Y-88252438D02*
X156380952Y-88204819D01*
X139438095Y-77534819D02*
X139438095Y-78344342D01*
X139438095Y-78344342D02*
X139485714Y-78439580D01*
X139485714Y-78439580D02*
X139533333Y-78487200D01*
X139533333Y-78487200D02*
X139628571Y-78534819D01*
X139628571Y-78534819D02*
X139819047Y-78534819D01*
X139819047Y-78534819D02*
X139914285Y-78487200D01*
X139914285Y-78487200D02*
X139961904Y-78439580D01*
X139961904Y-78439580D02*
X140009523Y-78344342D01*
X140009523Y-78344342D02*
X140009523Y-77534819D01*
X140438095Y-78487200D02*
X140580952Y-78534819D01*
X140580952Y-78534819D02*
X140819047Y-78534819D01*
X140819047Y-78534819D02*
X140914285Y-78487200D01*
X140914285Y-78487200D02*
X140961904Y-78439580D01*
X140961904Y-78439580D02*
X141009523Y-78344342D01*
X141009523Y-78344342D02*
X141009523Y-78249104D01*
X141009523Y-78249104D02*
X140961904Y-78153866D01*
X140961904Y-78153866D02*
X140914285Y-78106247D01*
X140914285Y-78106247D02*
X140819047Y-78058628D01*
X140819047Y-78058628D02*
X140628571Y-78011009D01*
X140628571Y-78011009D02*
X140533333Y-77963390D01*
X140533333Y-77963390D02*
X140485714Y-77915771D01*
X140485714Y-77915771D02*
X140438095Y-77820533D01*
X140438095Y-77820533D02*
X140438095Y-77725295D01*
X140438095Y-77725295D02*
X140485714Y-77630057D01*
X140485714Y-77630057D02*
X140533333Y-77582438D01*
X140533333Y-77582438D02*
X140628571Y-77534819D01*
X140628571Y-77534819D02*
X140866666Y-77534819D01*
X140866666Y-77534819D02*
X141009523Y-77582438D01*
X141771428Y-78011009D02*
X141914285Y-78058628D01*
X141914285Y-78058628D02*
X141961904Y-78106247D01*
X141961904Y-78106247D02*
X142009523Y-78201485D01*
X142009523Y-78201485D02*
X142009523Y-78344342D01*
X142009523Y-78344342D02*
X141961904Y-78439580D01*
X141961904Y-78439580D02*
X141914285Y-78487200D01*
X141914285Y-78487200D02*
X141819047Y-78534819D01*
X141819047Y-78534819D02*
X141438095Y-78534819D01*
X141438095Y-78534819D02*
X141438095Y-77534819D01*
X141438095Y-77534819D02*
X141771428Y-77534819D01*
X141771428Y-77534819D02*
X141866666Y-77582438D01*
X141866666Y-77582438D02*
X141914285Y-77630057D01*
X141914285Y-77630057D02*
X141961904Y-77725295D01*
X141961904Y-77725295D02*
X141961904Y-77820533D01*
X141961904Y-77820533D02*
X141914285Y-77915771D01*
X141914285Y-77915771D02*
X141866666Y-77963390D01*
X141866666Y-77963390D02*
X141771428Y-78011009D01*
X141771428Y-78011009D02*
X141438095Y-78011009D01*
D11*
%TO.C,GP10*%
X137960000Y-84860000D02*
G75*
G02*
X136560000Y-84860000I-700000J0D01*
G01*
X136560000Y-84860000D02*
G75*
G02*
X137960000Y-84860000I700000J0D01*
G01*
%TO.C,SDA*%
X159450000Y-95500000D02*
G75*
G02*
X158050000Y-95500000I-700000J0D01*
G01*
X158050000Y-95500000D02*
G75*
G02*
X159450000Y-95500000I700000J0D01*
G01*
%TO.C,GP19*%
X154450000Y-91750000D02*
G75*
G02*
X153050000Y-91750000I-700000J0D01*
G01*
X153050000Y-91750000D02*
G75*
G02*
X154450000Y-91750000I700000J0D01*
G01*
%TO.C,GP11*%
X137970000Y-86920000D02*
G75*
G02*
X136570000Y-86920000I-700000J0D01*
G01*
X136570000Y-86920000D02*
G75*
G02*
X137970000Y-86920000I700000J0D01*
G01*
%TO.C,GND*%
X159450000Y-93250000D02*
G75*
G02*
X158050000Y-93250000I-700000J0D01*
G01*
X158050000Y-93250000D02*
G75*
G02*
X159450000Y-93250000I700000J0D01*
G01*
%TO.C,U1*%
X142452500Y-86477500D02*
X142452500Y-86067500D01*
X142452500Y-93047500D02*
X142452500Y-92397500D01*
X143102500Y-85827500D02*
X142752500Y-85827500D01*
X143102500Y-93047500D02*
X142452500Y-93047500D01*
X149022500Y-85827500D02*
X149672500Y-85827500D01*
X149022500Y-93047500D02*
X149672500Y-93047500D01*
X149672500Y-85827500D02*
X149672500Y-86477500D01*
X149672500Y-93047500D02*
X149672500Y-92397500D01*
X142452500Y-85827500D02*
X142212500Y-85497500D01*
X142692500Y-85497500D01*
X142452500Y-85827500D01*
G36*
X142452500Y-85827500D02*
G01*
X142212500Y-85497500D01*
X142692500Y-85497500D01*
X142452500Y-85827500D01*
G37*
%TO.C,3.3v*%
X159450000Y-91000000D02*
G75*
G02*
X158050000Y-91000000I-700000J0D01*
G01*
X158050000Y-91000000D02*
G75*
G02*
X159450000Y-91000000I700000J0D01*
G01*
%TO.C,Y1*%
X147250000Y-95100000D02*
X147250000Y-98400000D01*
X147250000Y-98400000D02*
X151250000Y-98400000D01*
%TO.C,SCL*%
X159450000Y-97750000D02*
G75*
G02*
X158050000Y-97750000I-700000J0D01*
G01*
X158050000Y-97750000D02*
G75*
G02*
X159450000Y-97750000I700000J0D01*
G01*
%TO.C,U3*%
X143375000Y-78380000D02*
X143375000Y-78640000D01*
X143375000Y-83830000D02*
X143375000Y-83570000D01*
X146100000Y-78380000D02*
X143375000Y-78380000D01*
X146100000Y-78380000D02*
X148825000Y-78380000D01*
X146100000Y-83830000D02*
X143375000Y-83830000D01*
X146100000Y-83830000D02*
X148825000Y-83830000D01*
X148825000Y-78380000D02*
X148825000Y-78640000D01*
X148825000Y-83830000D02*
X148825000Y-83570000D01*
X142592500Y-78640000D02*
X142352500Y-78310000D01*
X142832500Y-78310000D01*
X142592500Y-78640000D01*
G36*
X142592500Y-78640000D02*
G01*
X142352500Y-78310000D01*
X142832500Y-78310000D01*
X142592500Y-78640000D01*
G37*
%TO.C,U4*%
X141727500Y-98360000D02*
X141727500Y-98185000D01*
X142402500Y-95640000D02*
X142027500Y-95640000D01*
X142402500Y-98360000D02*
X141727500Y-98360000D01*
X144272500Y-95640000D02*
X144947500Y-95640000D01*
X144272500Y-98360000D02*
X144947500Y-98360000D01*
X144947500Y-95640000D02*
X144947500Y-95815000D01*
X144947500Y-98360000D02*
X144947500Y-98185000D01*
X141727500Y-95640000D02*
X141587500Y-95450000D01*
X141867500Y-95450000D01*
X141727500Y-95640000D01*
G36*
X141727500Y-95640000D02*
G01*
X141587500Y-95450000D01*
X141867500Y-95450000D01*
X141727500Y-95640000D01*
G37*
%TO.C,GP9*%
X137970000Y-82790000D02*
G75*
G02*
X136570000Y-82790000I-700000J0D01*
G01*
X136570000Y-82790000D02*
G75*
G02*
X137970000Y-82790000I700000J0D01*
G01*
%TO.C,U2*%
X152390000Y-81350000D02*
X152390000Y-85110000D01*
X152390000Y-85110000D02*
X153650000Y-85110000D01*
X159210000Y-81350000D02*
X159210000Y-85110000D01*
X159210000Y-85110000D02*
X157950000Y-85110000D01*
X159440000Y-80310000D02*
X159110000Y-80070000D01*
X159440000Y-79830000D01*
X159440000Y-80310000D01*
G36*
X159440000Y-80310000D02*
G01*
X159110000Y-80070000D01*
X159440000Y-79830000D01*
X159440000Y-80310000D01*
G37*
%TO.C,GP18*%
X153200000Y-98000000D02*
G75*
G02*
X151800000Y-98000000I-700000J0D01*
G01*
X151800000Y-98000000D02*
G75*
G02*
X153200000Y-98000000I700000J0D01*
G01*
%TO.C,ADC0*%
X158700000Y-88750000D02*
G75*
G02*
X157300000Y-88750000I-700000J0D01*
G01*
X157300000Y-88750000D02*
G75*
G02*
X158700000Y-88750000I700000J0D01*
G01*
%TO.C,USB*%
X139580000Y-79180000D02*
G75*
G02*
X138180000Y-79180000I-700000J0D01*
G01*
X138180000Y-79180000D02*
G75*
G02*
X139580000Y-79180000I700000J0D01*
G01*
%TD*%
M02*
