%TF.GenerationSoftware,KiCad,Pcbnew,8.0.4*%
%TF.CreationDate,2024-08-15T19:07:05-07:00*%
%TF.ProjectId,RoboBuddy_NoSIlkScreen,526f626f-4275-4646-9479-5f4e6f53496c,rev?*%
%TF.SameCoordinates,Original*%
%TF.FileFunction,Copper,L2,Bot*%
%TF.FilePolarity,Positive*%
%FSLAX46Y46*%
G04 Gerber Fmt 4.6, Leading zero omitted, Abs format (unit mm)*
G04 Created by KiCad (PCBNEW 8.0.4) date 2024-08-15 19:07:05*
%MOMM*%
%LPD*%
G01*
G04 APERTURE LIST*
G04 Aperture macros list*
%AMRoundRect*
0 Rectangle with rounded corners*
0 $1 Rounding radius*
0 $2 $3 $4 $5 $6 $7 $8 $9 X,Y pos of 4 corners*
0 Add a 4 corners polygon primitive as box body*
4,1,4,$2,$3,$4,$5,$6,$7,$8,$9,$2,$3,0*
0 Add four circle primitives for the rounded corners*
1,1,$1+$1,$2,$3*
1,1,$1+$1,$4,$5*
1,1,$1+$1,$6,$7*
1,1,$1+$1,$8,$9*
0 Add four rect primitives between the rounded corners*
20,1,$1+$1,$2,$3,$4,$5,0*
20,1,$1+$1,$4,$5,$6,$7,0*
20,1,$1+$1,$6,$7,$8,$9,0*
20,1,$1+$1,$8,$9,$2,$3,0*%
G04 Aperture macros list end*
%TA.AperFunction,ComponentPad*%
%ADD10C,1.000000*%
%TD*%
%TA.AperFunction,SMDPad,CuDef*%
%ADD11RoundRect,0.100000X0.130000X0.100000X-0.130000X0.100000X-0.130000X-0.100000X0.130000X-0.100000X0*%
%TD*%
%TA.AperFunction,SMDPad,CuDef*%
%ADD12R,0.400000X1.400000*%
%TD*%
%TA.AperFunction,SMDPad,CuDef*%
%ADD13R,2.300000X1.900000*%
%TD*%
%TA.AperFunction,SMDPad,CuDef*%
%ADD14R,1.800000X1.900000*%
%TD*%
%TA.AperFunction,SMDPad,CuDef*%
%ADD15RoundRect,0.100000X-0.130000X-0.100000X0.130000X-0.100000X0.130000X0.100000X-0.130000X0.100000X0*%
%TD*%
%TA.AperFunction,SMDPad,CuDef*%
%ADD16R,0.850000X1.100000*%
%TD*%
%TA.AperFunction,SMDPad,CuDef*%
%ADD17R,0.750000X1.100000*%
%TD*%
%TA.AperFunction,SMDPad,CuDef*%
%ADD18R,1.200000X1.000000*%
%TD*%
%TA.AperFunction,SMDPad,CuDef*%
%ADD19R,1.550000X1.350000*%
%TD*%
%TA.AperFunction,SMDPad,CuDef*%
%ADD20R,1.900000X1.350000*%
%TD*%
%TA.AperFunction,SMDPad,CuDef*%
%ADD21R,1.170000X1.800000*%
%TD*%
%TA.AperFunction,ViaPad*%
%ADD22C,0.600000*%
%TD*%
%TA.AperFunction,Conductor*%
%ADD23C,0.200000*%
%TD*%
G04 APERTURE END LIST*
D10*
%TO.P,GND,1*%
%TO.N,GND*%
X158750000Y-93250000D03*
%TD*%
D11*
%TO.P,C9,1*%
%TO.N,+1V1*%
X148660000Y-91500000D03*
%TO.P,C9,2*%
%TO.N,GND*%
X148020000Y-91500000D03*
%TD*%
%TO.P,C4,1*%
%TO.N,+1V1*%
X147120000Y-91500000D03*
%TO.P,C4,2*%
%TO.N,GND*%
X146480000Y-91500000D03*
%TD*%
D12*
%TO.P,J1,1,VBUS*%
%TO.N,VBUS*%
X144800000Y-93100000D03*
%TO.P,J1,2,D-*%
%TO.N,/USB_D-*%
X144150000Y-93100000D03*
%TO.P,J1,3,D+*%
%TO.N,/USB_D+*%
X143500000Y-93100000D03*
%TO.P,J1,4,ID*%
%TO.N,unconnected-(J1-ID-Pad4)*%
X142850000Y-93100000D03*
%TO.P,J1,5,GND*%
%TO.N,GND*%
X142200000Y-93100000D03*
D13*
%TO.P,J1,6,Shield*%
X147250000Y-95950000D03*
D14*
X144650000Y-95950000D03*
X142350000Y-95950000D03*
D13*
X139750000Y-95950000D03*
%TD*%
D15*
%TO.P,C10,1*%
%TO.N,+1V1*%
X149525000Y-91500000D03*
%TO.P,C10,2*%
%TO.N,GND*%
X150165000Y-91500000D03*
%TD*%
D16*
%TO.P,J3,1,DAT2*%
%TO.N,unconnected-(J3-DAT2-Pad1)*%
X147860000Y-79150000D03*
%TO.P,J3,2,DAT3/CD*%
%TO.N,/CS_SD*%
X146760000Y-79150000D03*
%TO.P,J3,3,CMD*%
%TO.N,/SCL_GRYO{slash}MOSI_SD*%
X145660000Y-79150000D03*
%TO.P,J3,4,VDD*%
%TO.N,+3.3V*%
X144560000Y-79150000D03*
%TO.P,J3,5,CLK*%
%TO.N,/SDA_GYRO{slash}SCK_SD*%
X143460000Y-79150000D03*
%TO.P,J3,6,VSS*%
%TO.N,Net-(J3-VSS)*%
X142360000Y-79150000D03*
%TO.P,J3,7,DAT0*%
%TO.N,/MISO_SD*%
X141260000Y-79150000D03*
D17*
%TO.P,J3,8,DAT1*%
%TO.N,unconnected-(J3-DAT1-Pad8)*%
X140210000Y-79150000D03*
D18*
%TO.P,J3,9,SHIELD*%
%TO.N,GND*%
X150495000Y-85300000D03*
%TO.P,J3,10*%
%TO.N,N/C*%
X150495000Y-89000000D03*
D19*
%TO.P,J3,11*%
X150320000Y-79275000D03*
D20*
X146995000Y-89975000D03*
X141025000Y-89975000D03*
D21*
X139000000Y-79500000D03*
%TD*%
D22*
%TO.N,VBUS*%
X152000000Y-87600000D03*
%TO.N,GND*%
X147000000Y-88200000D03*
X146700000Y-98600000D03*
X136900000Y-88400000D03*
X147600000Y-80700000D03*
X137300000Y-79800000D03*
X142541071Y-83037651D03*
X146300000Y-82100000D03*
X152000000Y-78400000D03*
X152850000Y-84200000D03*
X143400000Y-97200000D03*
X145100000Y-88300000D03*
X151200000Y-86600000D03*
X150620000Y-85320000D03*
X158100000Y-80000000D03*
X150200000Y-97500000D03*
X139000000Y-98400000D03*
X155000000Y-78200000D03*
X148200000Y-96000000D03*
X141000000Y-97800000D03*
%TO.N,+3.3V*%
X152500000Y-81700000D03*
X154600000Y-83100000D03*
X137300000Y-80700000D03*
X141600000Y-85700000D03*
X144600000Y-79300000D03*
X139700000Y-80900000D03*
X148600000Y-86800000D03*
X146100000Y-85000000D03*
X143800000Y-89100000D03*
X139391422Y-93208578D03*
X140600000Y-87800000D03*
X145400000Y-91700000D03*
%TO.N,+1V1*%
X148440000Y-90800000D03*
%TO.N,Net-(J3-VSS)*%
X137300000Y-78300000D03*
%TO.N,/USB_D+*%
X146100000Y-84100000D03*
%TO.N,/USB_D-*%
X148900000Y-84300000D03*
%TO.N,/MISO_SD*%
X143800000Y-91400000D03*
X139400000Y-83300000D03*
%TO.N,/SCL_GRYO{slash}MOSI_SD*%
X145604835Y-78988979D03*
X140893086Y-94300000D03*
X137890000Y-93900000D03*
X138180000Y-81423617D03*
%TO.N,/SDA_GYRO{slash}SCK_SD*%
X143850361Y-80161287D03*
X138735905Y-93684095D03*
X140200263Y-93900000D03*
X138900000Y-82200000D03*
%TO.N,/CS_SD*%
X140700000Y-82200000D03*
X144540159Y-91703594D03*
%TO.N,/QSPI_SD0*%
X148100000Y-83100000D03*
X144750000Y-82250000D03*
%TO.N,/SCL_OLED*%
X149500000Y-93500000D03*
X152000000Y-93000000D03*
%TO.N,/SDA_OLED*%
X149192307Y-94238464D03*
X153250000Y-93250000D03*
%TO.N,/SWCLK*%
X146582795Y-94299998D03*
%TO.N,/SWD*%
X147382797Y-94299999D03*
%TO.N,/TESTEN*%
X141890000Y-94320000D03*
%TO.N,/RUN*%
X148250000Y-94250000D03*
%TD*%
D23*
%TO.N,/SCL_GRYO{slash}MOSI_SD*%
X138300000Y-93271471D02*
X138050000Y-93521471D01*
X138180000Y-81423617D02*
X138300000Y-81543617D01*
X138300000Y-81543617D02*
X138300000Y-93271471D01*
X138050000Y-93521471D02*
X138050000Y-94098191D01*
%TO.N,/SDA_GYRO{slash}SCK_SD*%
X139151809Y-94100000D02*
X140000263Y-94100000D01*
X140000263Y-94100000D02*
X140200263Y-93900000D01*
X138700000Y-93648191D02*
X139151809Y-94100000D01*
X138700000Y-82400000D02*
X138700000Y-93648191D01*
X138900000Y-82200000D02*
X138700000Y-82400000D01*
%TO.N,+3.3V*%
X139200000Y-87800000D02*
X140600000Y-87800000D01*
X139100000Y-87900000D02*
X139200000Y-87800000D01*
X139100000Y-92917156D02*
X139100000Y-87900000D01*
X139391422Y-93208578D02*
X139100000Y-92917156D01*
%TO.N,GND*%
X136600000Y-80500000D02*
X137300000Y-79800000D01*
X136600000Y-88100000D02*
X136600000Y-80500000D01*
X136900000Y-88400000D02*
X136600000Y-88100000D01*
%TO.N,VBUS*%
X150868628Y-92100000D02*
X148368628Y-92100000D01*
X148368628Y-92100000D02*
X147568628Y-92900000D01*
X151000000Y-91968628D02*
X150868628Y-92100000D01*
X151000000Y-90900000D02*
X151000000Y-91968628D01*
X147568628Y-92900000D02*
X144800000Y-92900000D01*
X152000000Y-87600000D02*
X152000000Y-89900000D01*
X152000000Y-89900000D02*
X151000000Y-90900000D01*
%TO.N,GND*%
X150620000Y-85320000D02*
X150515000Y-85320000D01*
X142490000Y-94071471D02*
X142200000Y-93781471D01*
X146480000Y-91699999D02*
X146880001Y-92100000D01*
X142490000Y-95810000D02*
X142490000Y-94071471D01*
X147700000Y-91820000D02*
X148020000Y-91500000D01*
X150515000Y-85320000D02*
X150495000Y-85300000D01*
X145600000Y-89800000D02*
X145100000Y-89300000D01*
X145600000Y-90650000D02*
X145600000Y-89800000D01*
X150165000Y-91500000D02*
X150165000Y-90565000D01*
X146480000Y-91500000D02*
X146450000Y-91500000D01*
X142200000Y-93781471D02*
X142200000Y-93100000D01*
X142350000Y-95950000D02*
X142490000Y-95810000D01*
X146880001Y-92100000D02*
X147700000Y-92100000D01*
X146450000Y-91500000D02*
X145600000Y-90650000D01*
X150165000Y-90565000D02*
X150000000Y-90400000D01*
X147700000Y-92100000D02*
X147700000Y-91820000D01*
X146480000Y-91500000D02*
X146480000Y-91699999D01*
%TO.N,+3.3V*%
X153900000Y-83100000D02*
X154600000Y-83100000D01*
X139700000Y-80900000D02*
X139500000Y-80700000D01*
X144600000Y-90193629D02*
X144940159Y-90533788D01*
X142300000Y-85000000D02*
X141600000Y-85700000D01*
X152500000Y-81700000D02*
X153900000Y-83100000D01*
X139500000Y-80700000D02*
X137300000Y-80700000D01*
X144940159Y-90533788D02*
X144940159Y-91240159D01*
X144940159Y-91240159D02*
X145400000Y-91700000D01*
X146100000Y-85000000D02*
X147900000Y-86800000D01*
X143800000Y-89100000D02*
X144600000Y-89900000D01*
X144600000Y-89900000D02*
X144600000Y-90193629D01*
X147900000Y-86800000D02*
X148600000Y-86800000D01*
X146100000Y-85000000D02*
X142300000Y-85000000D01*
%TO.N,+1V1*%
X148660000Y-91020000D02*
X148660000Y-91500000D01*
X148440000Y-90800000D02*
X148800000Y-90800000D01*
X147670000Y-90950000D02*
X147120000Y-91500000D01*
X148440000Y-90800000D02*
X148290000Y-90950000D01*
X149500000Y-91500000D02*
X149525000Y-91500000D01*
X148440000Y-90800000D02*
X148660000Y-91020000D01*
X148800000Y-90800000D02*
X149500000Y-91500000D01*
X148290000Y-90950000D02*
X147670000Y-90950000D01*
%TO.N,Net-(J3-VSS)*%
X141985000Y-78300000D02*
X142360000Y-78675000D01*
X137300000Y-78300000D02*
X141985000Y-78300000D01*
X142360000Y-78675000D02*
X142360000Y-79150000D01*
X137300000Y-78300000D02*
X137300000Y-78100000D01*
%TO.N,/USB_D+*%
X151165686Y-83700000D02*
X146500000Y-83700000D01*
X153000000Y-85534314D02*
X151165686Y-83700000D01*
X143500000Y-92900000D02*
X143500000Y-94400000D01*
X145600000Y-94700000D02*
X145700000Y-94600000D01*
X151200000Y-92900000D02*
X153000000Y-91100000D01*
X145700000Y-94600000D02*
X145700000Y-93700000D01*
X145700000Y-93700000D02*
X147900000Y-93700000D01*
X143500000Y-94400000D02*
X143800000Y-94700000D01*
X148700000Y-92900000D02*
X151200000Y-92900000D01*
X146500000Y-83700000D02*
X146100000Y-84100000D01*
X153000000Y-91100000D02*
X153000000Y-85534314D01*
X147900000Y-93700000D02*
X148700000Y-92900000D01*
X143800000Y-94700000D02*
X145600000Y-94700000D01*
%TO.N,/USB_D-*%
X147734314Y-93300000D02*
X148534314Y-92500000D01*
X151400000Y-92134314D02*
X151400000Y-91065686D01*
X151200000Y-84300000D02*
X148900000Y-84300000D01*
X145300000Y-93300000D02*
X147734314Y-93300000D01*
X151400000Y-91065686D02*
X152600000Y-89865686D01*
X152600000Y-89865686D02*
X152600000Y-85700000D01*
X152600000Y-85700000D02*
X151200000Y-84300000D01*
X144150000Y-94300000D02*
X145300000Y-94300000D01*
X148534314Y-92500000D02*
X151034314Y-92500000D01*
X144150000Y-92900000D02*
X144150000Y-94300000D01*
X145300000Y-94300000D02*
X145300000Y-93300000D01*
X151034314Y-92500000D02*
X151400000Y-92134314D01*
%TO.N,/MISO_SD*%
X142275000Y-89000000D02*
X142275000Y-90975000D01*
X141000000Y-79410000D02*
X141000000Y-81000000D01*
X139400000Y-83300000D02*
X139500000Y-83400000D01*
X139500000Y-83200000D02*
X139400000Y-83300000D01*
X139500000Y-85851471D02*
X141600000Y-87951471D01*
X141600000Y-89000000D02*
X142275000Y-89000000D01*
X141000000Y-81000000D02*
X139500000Y-82500000D01*
X141600000Y-87951471D02*
X141600000Y-89000000D01*
X139500000Y-83400000D02*
X139500000Y-85851471D01*
X139500000Y-82500000D02*
X139500000Y-83200000D01*
X142275000Y-90975000D02*
X142700000Y-91400000D01*
X141260000Y-79150000D02*
X141000000Y-79410000D01*
X142700000Y-91400000D02*
X143800000Y-91400000D01*
%TO.N,/SCL_GRYO{slash}MOSI_SD*%
X137890000Y-93900000D02*
X138490000Y-94500000D01*
X138490000Y-94500000D02*
X140693086Y-94500000D01*
X140693086Y-94500000D02*
X140893086Y-94300000D01*
%TO.N,/SDA_GYRO{slash}SCK_SD*%
X138900000Y-82200000D02*
X138900000Y-81600000D01*
X143460000Y-79770926D02*
X143460000Y-79150000D01*
X143850361Y-80161287D02*
X143460000Y-79770926D01*
%TO.N,/CS_SD*%
X144540159Y-91703594D02*
X144540159Y-90699474D01*
X142382843Y-88542158D02*
X142382843Y-87331372D01*
X143800000Y-81300000D02*
X145100000Y-81300000D01*
X140900000Y-85848529D02*
X140900000Y-82400000D01*
X144540159Y-90699474D02*
X142382843Y-88542158D01*
X140900000Y-82400000D02*
X140700000Y-82200000D01*
X140700000Y-82200000D02*
X141200000Y-82200000D01*
X142382843Y-87331372D02*
X140900000Y-85848529D01*
X141400000Y-82000000D02*
X143100000Y-82000000D01*
X141200000Y-82200000D02*
X141400000Y-82000000D01*
X146760000Y-79640000D02*
X146760000Y-79150000D01*
X143100000Y-82000000D02*
X143800000Y-81300000D01*
X145100000Y-81300000D02*
X146760000Y-79640000D01*
%TO.N,/QSPI_SD0*%
X148100000Y-83100000D02*
X148100000Y-82700000D01*
X148100000Y-82700000D02*
X146200000Y-80800000D01*
X146200000Y-80800000D02*
X144750000Y-82250000D01*
%TO.N,/SCL_OLED*%
X152000000Y-93000000D02*
X151500000Y-93500000D01*
X151500000Y-93500000D02*
X149500000Y-93500000D01*
%TO.N,/SDA_OLED*%
X149330771Y-94100000D02*
X152400000Y-94100000D01*
X152400000Y-94100000D02*
X153250000Y-93250000D01*
X149192307Y-94238464D02*
X149330771Y-94100000D01*
%TD*%
%TA.AperFunction,Conductor*%
%TO.N,GND*%
G36*
X136806314Y-77920185D02*
G01*
X136852069Y-77972989D01*
X136862013Y-78042147D01*
X136852069Y-78076011D01*
X136814835Y-78157541D01*
X136814834Y-78157542D01*
X136794353Y-78300000D01*
X136814834Y-78442456D01*
X136851056Y-78521769D01*
X136874623Y-78573373D01*
X136968872Y-78682143D01*
X137089947Y-78759953D01*
X137089950Y-78759954D01*
X137089949Y-78759954D01*
X137228036Y-78800499D01*
X137228038Y-78800500D01*
X137228039Y-78800500D01*
X137371962Y-78800500D01*
X137371962Y-78800499D01*
X137510053Y-78759953D01*
X137631128Y-78682143D01*
X137664788Y-78643296D01*
X137723567Y-78605523D01*
X137758501Y-78600500D01*
X138090500Y-78600500D01*
X138157539Y-78620185D01*
X138203294Y-78672989D01*
X138214500Y-78724500D01*
X138214500Y-80275500D01*
X138194815Y-80342539D01*
X138142011Y-80388294D01*
X138090500Y-80399500D01*
X137758501Y-80399500D01*
X137691462Y-80379815D01*
X137664788Y-80356703D01*
X137652515Y-80342539D01*
X137631128Y-80317857D01*
X137510053Y-80240047D01*
X137510051Y-80240046D01*
X137510049Y-80240045D01*
X137510050Y-80240045D01*
X137371963Y-80199500D01*
X137371961Y-80199500D01*
X137228039Y-80199500D01*
X137228036Y-80199500D01*
X137089949Y-80240045D01*
X136968873Y-80317856D01*
X136968872Y-80317856D01*
X136968872Y-80317857D01*
X136956290Y-80332377D01*
X136874623Y-80426626D01*
X136874622Y-80426628D01*
X136814834Y-80557543D01*
X136794353Y-80700000D01*
X136814834Y-80842456D01*
X136869968Y-80963181D01*
X136874623Y-80973373D01*
X136968872Y-81082143D01*
X137089947Y-81159953D01*
X137089950Y-81159954D01*
X137089949Y-81159954D01*
X137173571Y-81184507D01*
X137224633Y-81199500D01*
X137228036Y-81200499D01*
X137228038Y-81200500D01*
X137228039Y-81200500D01*
X137371962Y-81200500D01*
X137371962Y-81200499D01*
X137510053Y-81159953D01*
X137510054Y-81159951D01*
X137518118Y-81156270D01*
X137519440Y-81159166D01*
X137571417Y-81143882D01*
X137638464Y-81163539D01*
X137684241Y-81216324D01*
X137694213Y-81285478D01*
X137694206Y-81285528D01*
X137674353Y-81423616D01*
X137694834Y-81566073D01*
X137739183Y-81663181D01*
X137754623Y-81696990D01*
X137848872Y-81805760D01*
X137848874Y-81805761D01*
X137848876Y-81805763D01*
X137942539Y-81865957D01*
X137988294Y-81918761D01*
X137999500Y-81970272D01*
X137999500Y-82636874D01*
X137979815Y-82703913D01*
X137927011Y-82749668D01*
X137857853Y-82759612D01*
X137794297Y-82730587D01*
X137756523Y-82671809D01*
X137755725Y-82668968D01*
X137754921Y-82665966D01*
X137736392Y-82596814D01*
X137670500Y-82482686D01*
X137577314Y-82389500D01*
X137499232Y-82344419D01*
X137463187Y-82323608D01*
X137399539Y-82306554D01*
X137335892Y-82289500D01*
X137204108Y-82289500D01*
X137076812Y-82323608D01*
X136962686Y-82389500D01*
X136962683Y-82389502D01*
X136869502Y-82482683D01*
X136869500Y-82482686D01*
X136803608Y-82596812D01*
X136769500Y-82724108D01*
X136769500Y-82855891D01*
X136803608Y-82983187D01*
X136812113Y-82997917D01*
X136869500Y-83097314D01*
X136962686Y-83190500D01*
X137076814Y-83256392D01*
X137204108Y-83290500D01*
X137204110Y-83290500D01*
X137335890Y-83290500D01*
X137335892Y-83290500D01*
X137463186Y-83256392D01*
X137577314Y-83190500D01*
X137670500Y-83097314D01*
X137736392Y-82983186D01*
X137755725Y-82911030D01*
X137792090Y-82851371D01*
X137854937Y-82820842D01*
X137924312Y-82829137D01*
X137978190Y-82873622D01*
X137999465Y-82940174D01*
X137999500Y-82943125D01*
X137999500Y-84744195D01*
X137979815Y-84811234D01*
X137927011Y-84856989D01*
X137907456Y-84859800D01*
X137924312Y-84861816D01*
X137978190Y-84906301D01*
X137999465Y-84972853D01*
X137999500Y-84975804D01*
X137999500Y-86766874D01*
X137979815Y-86833913D01*
X137927011Y-86879668D01*
X137857853Y-86889612D01*
X137794297Y-86860587D01*
X137756523Y-86801809D01*
X137755725Y-86798968D01*
X137736392Y-86726814D01*
X137670500Y-86612686D01*
X137577314Y-86519500D01*
X137508578Y-86479815D01*
X137463187Y-86453608D01*
X137399539Y-86436554D01*
X137335892Y-86419500D01*
X137204108Y-86419500D01*
X137076812Y-86453608D01*
X136962686Y-86519500D01*
X136962683Y-86519502D01*
X136869502Y-86612683D01*
X136869500Y-86612686D01*
X136803608Y-86726812D01*
X136769500Y-86854108D01*
X136769500Y-86985891D01*
X136803608Y-87113187D01*
X136823050Y-87146861D01*
X136869500Y-87227314D01*
X136962686Y-87320500D01*
X137076814Y-87386392D01*
X137204108Y-87420500D01*
X137204110Y-87420500D01*
X137335890Y-87420500D01*
X137335892Y-87420500D01*
X137463186Y-87386392D01*
X137577314Y-87320500D01*
X137670500Y-87227314D01*
X137736392Y-87113186D01*
X137755725Y-87041030D01*
X137792090Y-86981371D01*
X137854937Y-86950842D01*
X137924312Y-86959137D01*
X137978190Y-87003622D01*
X137999465Y-87070174D01*
X137999500Y-87073125D01*
X137999500Y-93095638D01*
X137979815Y-93162677D01*
X137963181Y-93183319D01*
X137809541Y-93336958D01*
X137809537Y-93336963D01*
X137789148Y-93372279D01*
X137738581Y-93420495D01*
X137716701Y-93429254D01*
X137697027Y-93435031D01*
X137679946Y-93440047D01*
X137679945Y-93440048D01*
X137558873Y-93517856D01*
X137464623Y-93626626D01*
X137464622Y-93626628D01*
X137404834Y-93757543D01*
X137384353Y-93900000D01*
X137404834Y-94042456D01*
X137464622Y-94173371D01*
X137464623Y-94173373D01*
X137558872Y-94282143D01*
X137679947Y-94359953D01*
X137679950Y-94359954D01*
X137679949Y-94359954D01*
X137748293Y-94380021D01*
X137815280Y-94399690D01*
X137818036Y-94400499D01*
X137818038Y-94400500D01*
X137914167Y-94400500D01*
X137981206Y-94420185D01*
X138001848Y-94436819D01*
X138301730Y-94736701D01*
X138335215Y-94798024D01*
X138330231Y-94867716D01*
X138327484Y-94874466D01*
X138302911Y-94930119D01*
X138302910Y-94930124D01*
X138300000Y-94955205D01*
X138300000Y-95700000D01*
X148699999Y-95700000D01*
X148699999Y-95434108D01*
X158249500Y-95434108D01*
X158249500Y-95565891D01*
X158283608Y-95693187D01*
X158287542Y-95700000D01*
X158349500Y-95807314D01*
X158442686Y-95900500D01*
X158556814Y-95966392D01*
X158684108Y-96000500D01*
X158684110Y-96000500D01*
X158815890Y-96000500D01*
X158815892Y-96000500D01*
X158943186Y-95966392D01*
X159057314Y-95900500D01*
X159150500Y-95807314D01*
X159216392Y-95693186D01*
X159250500Y-95565892D01*
X159250500Y-95434108D01*
X159216392Y-95306814D01*
X159150500Y-95192686D01*
X159057314Y-95099500D01*
X159000250Y-95066554D01*
X158943187Y-95033608D01*
X158879539Y-95016554D01*
X158815892Y-94999500D01*
X158684108Y-94999500D01*
X158556812Y-95033608D01*
X158442686Y-95099500D01*
X158442683Y-95099502D01*
X158349502Y-95192683D01*
X158349500Y-95192686D01*
X158283608Y-95306812D01*
X158249500Y-95434108D01*
X148699999Y-95434108D01*
X148699999Y-94955214D01*
X148699997Y-94955191D01*
X148697091Y-94930130D01*
X148697090Y-94930126D01*
X148651788Y-94827525D01*
X148651785Y-94827520D01*
X148604861Y-94780596D01*
X148571376Y-94719273D01*
X148576360Y-94649581D01*
X148598825Y-94611719D01*
X148632441Y-94572923D01*
X148691217Y-94535151D01*
X148761087Y-94535152D01*
X148819862Y-94572925D01*
X148861179Y-94620607D01*
X148982254Y-94698417D01*
X148982257Y-94698418D01*
X148982256Y-94698418D01*
X149120343Y-94738963D01*
X149120345Y-94738964D01*
X149120346Y-94738964D01*
X149264269Y-94738964D01*
X149264269Y-94738963D01*
X149371428Y-94707499D01*
X149402357Y-94698418D01*
X149402357Y-94698417D01*
X149402360Y-94698417D01*
X149523435Y-94620607D01*
X149617684Y-94511837D01*
X149635426Y-94472988D01*
X149681181Y-94420184D01*
X149748220Y-94400500D01*
X152439560Y-94400500D01*
X152439562Y-94400500D01*
X152515989Y-94380021D01*
X152584511Y-94340460D01*
X152640460Y-94284511D01*
X152958310Y-93966660D01*
X158386892Y-93966660D01*
X158386892Y-93966661D01*
X158400692Y-93975333D01*
X158400691Y-93975333D01*
X158570861Y-94034878D01*
X158749997Y-94055062D01*
X158750003Y-94055062D01*
X158929138Y-94034878D01*
X158929141Y-94034877D01*
X159099305Y-93975334D01*
X159099306Y-93975334D01*
X159113106Y-93966661D01*
X159113106Y-93966660D01*
X158750001Y-93603553D01*
X158750000Y-93603553D01*
X158386892Y-93966660D01*
X152958310Y-93966660D01*
X153138151Y-93786818D01*
X153199474Y-93753334D01*
X153225832Y-93750500D01*
X153321962Y-93750500D01*
X153321962Y-93750499D01*
X153460053Y-93709953D01*
X153581128Y-93632143D01*
X153675377Y-93523373D01*
X153735165Y-93392457D01*
X153755647Y-93250000D01*
X153755647Y-93249997D01*
X157944938Y-93249997D01*
X157944938Y-93250002D01*
X157965121Y-93429138D01*
X158024665Y-93599304D01*
X158033338Y-93613107D01*
X158396446Y-93250000D01*
X158396446Y-93249999D01*
X158346719Y-93200272D01*
X158500000Y-93200272D01*
X158500000Y-93299728D01*
X158538060Y-93391614D01*
X158608386Y-93461940D01*
X158700272Y-93500000D01*
X158799728Y-93500000D01*
X158891614Y-93461940D01*
X158961940Y-93391614D01*
X159000000Y-93299728D01*
X159000000Y-93200272D01*
X158961940Y-93108386D01*
X158891614Y-93038060D01*
X158799728Y-93000000D01*
X158700272Y-93000000D01*
X158608386Y-93038060D01*
X158538060Y-93108386D01*
X158500000Y-93200272D01*
X158346719Y-93200272D01*
X158033338Y-92886891D01*
X158033337Y-92886891D01*
X158024667Y-92900691D01*
X158024662Y-92900701D01*
X157965122Y-93070858D01*
X157965121Y-93070861D01*
X157944938Y-93249997D01*
X153755647Y-93249997D01*
X153735165Y-93107543D01*
X153675377Y-92976627D01*
X153581128Y-92867857D01*
X153460053Y-92790047D01*
X153460051Y-92790046D01*
X153460049Y-92790045D01*
X153460050Y-92790045D01*
X153321963Y-92749500D01*
X153321961Y-92749500D01*
X153178039Y-92749500D01*
X153178036Y-92749500D01*
X153039949Y-92790045D01*
X152918873Y-92867856D01*
X152824623Y-92976626D01*
X152824622Y-92976628D01*
X152764834Y-93107543D01*
X152744353Y-93250000D01*
X152744353Y-93250001D01*
X152745661Y-93259103D01*
X152735713Y-93328261D01*
X152710603Y-93364424D01*
X152311848Y-93763181D01*
X152250525Y-93796666D01*
X152224167Y-93799500D01*
X151924832Y-93799500D01*
X151857793Y-93779815D01*
X151812038Y-93727011D01*
X151802094Y-93657853D01*
X151831119Y-93594297D01*
X151837151Y-93587819D01*
X151888151Y-93536819D01*
X151949474Y-93503334D01*
X151975832Y-93500500D01*
X152071962Y-93500500D01*
X152071962Y-93500499D01*
X152210053Y-93459953D01*
X152331128Y-93382143D01*
X152425377Y-93273373D01*
X152485165Y-93142457D01*
X152505647Y-93000000D01*
X152485165Y-92857543D01*
X152425377Y-92726627D01*
X152331128Y-92617857D01*
X152210053Y-92540047D01*
X152210052Y-92540046D01*
X152202593Y-92535253D01*
X152203824Y-92533337D01*
X158386891Y-92533337D01*
X158386891Y-92533338D01*
X158750000Y-92896446D01*
X158750001Y-92896446D01*
X159113107Y-92533338D01*
X159099304Y-92524665D01*
X158929138Y-92465121D01*
X158750003Y-92444938D01*
X158749997Y-92444938D01*
X158570861Y-92465121D01*
X158570858Y-92465122D01*
X158400701Y-92524662D01*
X158400691Y-92524667D01*
X158386891Y-92533337D01*
X152203824Y-92533337D01*
X152204640Y-92532066D01*
X152165304Y-92498135D01*
X152145469Y-92431140D01*
X152165004Y-92364057D01*
X152181783Y-92343187D01*
X153071843Y-91453127D01*
X153133164Y-91419644D01*
X153202856Y-91424628D01*
X153258789Y-91466500D01*
X153283206Y-91531964D01*
X153279296Y-91572903D01*
X153249500Y-91684108D01*
X153249500Y-91815892D01*
X153259951Y-91854897D01*
X153283608Y-91943187D01*
X153309044Y-91987242D01*
X153349500Y-92057314D01*
X153442686Y-92150500D01*
X153556814Y-92216392D01*
X153684108Y-92250500D01*
X153684110Y-92250500D01*
X153815890Y-92250500D01*
X153815892Y-92250500D01*
X153943186Y-92216392D01*
X154057314Y-92150500D01*
X154150500Y-92057314D01*
X154216392Y-91943186D01*
X154250500Y-91815892D01*
X154250500Y-91684108D01*
X154216392Y-91556814D01*
X154150500Y-91442686D01*
X154057314Y-91349500D01*
X153990987Y-91311206D01*
X153943187Y-91283608D01*
X153854903Y-91259953D01*
X153815892Y-91249500D01*
X153684108Y-91249500D01*
X153556814Y-91283608D01*
X153556813Y-91283608D01*
X153556811Y-91283609D01*
X153556810Y-91283609D01*
X153467185Y-91335355D01*
X153399285Y-91351828D01*
X153333258Y-91328976D01*
X153290067Y-91274054D01*
X153283426Y-91204501D01*
X153285411Y-91195873D01*
X153289714Y-91179815D01*
X153300500Y-91139562D01*
X153300500Y-90934108D01*
X158249500Y-90934108D01*
X158249500Y-91065892D01*
X158258613Y-91099902D01*
X158283608Y-91193187D01*
X158296773Y-91215989D01*
X158349500Y-91307314D01*
X158442686Y-91400500D01*
X158556814Y-91466392D01*
X158684108Y-91500500D01*
X158684110Y-91500500D01*
X158815890Y-91500500D01*
X158815892Y-91500500D01*
X158943186Y-91466392D01*
X159057314Y-91400500D01*
X159150500Y-91307314D01*
X159216392Y-91193186D01*
X159250500Y-91065892D01*
X159250500Y-90934108D01*
X159216392Y-90806814D01*
X159150500Y-90692686D01*
X159057314Y-90599500D01*
X159000250Y-90566554D01*
X158943187Y-90533608D01*
X158855616Y-90510144D01*
X158815892Y-90499500D01*
X158684108Y-90499500D01*
X158556812Y-90533608D01*
X158442686Y-90599500D01*
X158442683Y-90599502D01*
X158349502Y-90692683D01*
X158349500Y-90692686D01*
X158283608Y-90806812D01*
X158262163Y-90886848D01*
X158249500Y-90934108D01*
X153300500Y-90934108D01*
X153300500Y-88684108D01*
X157499500Y-88684108D01*
X157499500Y-88815892D01*
X157502377Y-88826628D01*
X157533608Y-88943187D01*
X157566554Y-89000250D01*
X157599500Y-89057314D01*
X157692686Y-89150500D01*
X157806814Y-89216392D01*
X157934108Y-89250500D01*
X157934110Y-89250500D01*
X158065890Y-89250500D01*
X158065892Y-89250500D01*
X158193186Y-89216392D01*
X158307314Y-89150500D01*
X158400500Y-89057314D01*
X158466392Y-88943186D01*
X158500500Y-88815892D01*
X158500500Y-88684108D01*
X158466392Y-88556814D01*
X158400500Y-88442686D01*
X158307314Y-88349500D01*
X158220712Y-88299500D01*
X158193187Y-88283608D01*
X158104903Y-88259953D01*
X158065892Y-88249500D01*
X157934108Y-88249500D01*
X157806812Y-88283608D01*
X157692686Y-88349500D01*
X157692683Y-88349502D01*
X157599502Y-88442683D01*
X157599500Y-88442686D01*
X157533608Y-88556812D01*
X157511306Y-88640047D01*
X157499500Y-88684108D01*
X153300500Y-88684108D01*
X153300500Y-85494752D01*
X153280022Y-85418326D01*
X153240460Y-85349803D01*
X151350197Y-83459540D01*
X151350196Y-83459539D01*
X151350193Y-83459537D01*
X151317148Y-83440459D01*
X151317148Y-83440458D01*
X151317146Y-83440458D01*
X151304769Y-83433312D01*
X151281676Y-83419979D01*
X151281677Y-83419979D01*
X151243461Y-83409739D01*
X151205248Y-83399500D01*
X151205246Y-83399500D01*
X148704698Y-83399500D01*
X148637659Y-83379815D01*
X148591904Y-83327011D01*
X148581960Y-83257853D01*
X148584883Y-83244412D01*
X148585163Y-83242459D01*
X148585165Y-83242457D01*
X148605647Y-83100000D01*
X148585165Y-82957543D01*
X148525377Y-82826627D01*
X148525375Y-82826625D01*
X148525374Y-82826622D01*
X148427740Y-82713946D01*
X148401678Y-82664838D01*
X148400500Y-82660441D01*
X148400500Y-82660438D01*
X148392918Y-82632143D01*
X148380022Y-82584012D01*
X148340460Y-82515489D01*
X147524971Y-81700000D01*
X151994353Y-81700000D01*
X152014834Y-81842456D01*
X152053275Y-81926628D01*
X152074623Y-81973373D01*
X152168872Y-82082143D01*
X152289947Y-82159953D01*
X152289950Y-82159954D01*
X152289949Y-82159954D01*
X152373585Y-82184511D01*
X152425280Y-82199690D01*
X152428036Y-82200499D01*
X152428038Y-82200500D01*
X152524167Y-82200500D01*
X152591206Y-82220185D01*
X152611848Y-82236819D01*
X153659540Y-83284511D01*
X153715489Y-83340460D01*
X153715491Y-83340461D01*
X153715495Y-83340464D01*
X153765294Y-83369215D01*
X153784011Y-83380021D01*
X153860438Y-83400500D01*
X153939562Y-83400500D01*
X154141499Y-83400500D01*
X154208538Y-83420185D01*
X154235211Y-83443296D01*
X154268872Y-83482143D01*
X154389947Y-83559953D01*
X154389950Y-83559954D01*
X154389949Y-83559954D01*
X154462625Y-83581293D01*
X154524633Y-83599500D01*
X154528036Y-83600499D01*
X154528038Y-83600500D01*
X154528039Y-83600500D01*
X154671962Y-83600500D01*
X154671962Y-83600499D01*
X154810053Y-83559953D01*
X154931128Y-83482143D01*
X155025377Y-83373373D01*
X155085165Y-83242457D01*
X155105647Y-83100000D01*
X155085165Y-82957543D01*
X155025377Y-82826627D01*
X154931128Y-82717857D01*
X154810053Y-82640047D01*
X154810051Y-82640046D01*
X154810049Y-82640045D01*
X154810050Y-82640045D01*
X154671963Y-82599500D01*
X154671961Y-82599500D01*
X154528039Y-82599500D01*
X154528036Y-82599500D01*
X154389949Y-82640045D01*
X154268873Y-82717856D01*
X154268872Y-82717856D01*
X154268872Y-82717857D01*
X154249722Y-82739958D01*
X154235212Y-82756703D01*
X154176433Y-82794477D01*
X154141499Y-82799500D01*
X154075833Y-82799500D01*
X154008794Y-82779815D01*
X153988152Y-82763181D01*
X153039395Y-81814424D01*
X153005910Y-81753101D01*
X153004339Y-81709094D01*
X153005647Y-81700000D01*
X152985165Y-81557543D01*
X152925377Y-81426627D01*
X152831128Y-81317857D01*
X152710053Y-81240047D01*
X152710051Y-81240046D01*
X152710049Y-81240045D01*
X152710050Y-81240045D01*
X152571963Y-81199500D01*
X152571961Y-81199500D01*
X152428039Y-81199500D01*
X152428036Y-81199500D01*
X152289949Y-81240045D01*
X152168873Y-81317856D01*
X152074623Y-81426626D01*
X152074622Y-81426628D01*
X152014834Y-81557543D01*
X151994353Y-81700000D01*
X147524971Y-81700000D01*
X146412651Y-80587680D01*
X146379166Y-80526357D01*
X146384150Y-80456665D01*
X146412648Y-80412321D01*
X146888152Y-79936819D01*
X146949475Y-79903334D01*
X146975833Y-79900500D01*
X147204750Y-79900500D01*
X147204751Y-79900499D01*
X147219485Y-79897568D01*
X147275210Y-79886485D01*
X147275464Y-79887762D01*
X147332009Y-79881680D01*
X147355899Y-79888694D01*
X147415247Y-79900499D01*
X147415250Y-79900500D01*
X147415252Y-79900500D01*
X148304750Y-79900500D01*
X148304751Y-79900499D01*
X148319568Y-79897552D01*
X148363229Y-79888868D01*
X148363229Y-79888867D01*
X148363231Y-79888867D01*
X148429552Y-79844552D01*
X148473867Y-79778231D01*
X148473867Y-79778229D01*
X148473868Y-79778229D01*
X148485499Y-79719752D01*
X148485500Y-79719750D01*
X148485500Y-78580249D01*
X148485499Y-78580247D01*
X149344500Y-78580247D01*
X149344500Y-79969752D01*
X149356131Y-80028229D01*
X149356132Y-80028230D01*
X149400447Y-80094552D01*
X149466769Y-80138867D01*
X149466770Y-80138868D01*
X149525247Y-80150499D01*
X149525250Y-80150500D01*
X149525252Y-80150500D01*
X151114750Y-80150500D01*
X151114751Y-80150499D01*
X151129568Y-80147552D01*
X151173229Y-80138868D01*
X151173229Y-80138867D01*
X151173231Y-80138867D01*
X151239552Y-80094552D01*
X151283867Y-80028231D01*
X151283867Y-80028229D01*
X151283868Y-80028229D01*
X151295499Y-79969752D01*
X151295500Y-79969750D01*
X151295500Y-78580249D01*
X151295499Y-78580247D01*
X151283868Y-78521770D01*
X151283867Y-78521769D01*
X151239552Y-78455447D01*
X151173230Y-78411132D01*
X151173229Y-78411131D01*
X151114752Y-78399500D01*
X151114748Y-78399500D01*
X149525252Y-78399500D01*
X149525247Y-78399500D01*
X149466770Y-78411131D01*
X149466769Y-78411132D01*
X149400447Y-78455447D01*
X149356132Y-78521769D01*
X149356131Y-78521770D01*
X149344500Y-78580247D01*
X148485499Y-78580247D01*
X148473868Y-78521770D01*
X148473867Y-78521769D01*
X148429552Y-78455447D01*
X148363230Y-78411132D01*
X148363229Y-78411131D01*
X148304752Y-78399500D01*
X148304748Y-78399500D01*
X147415252Y-78399500D01*
X147415249Y-78399500D01*
X147344791Y-78413515D01*
X147344537Y-78412239D01*
X147287977Y-78418317D01*
X147264089Y-78411303D01*
X147204751Y-78399500D01*
X147204748Y-78399500D01*
X146315252Y-78399500D01*
X146315249Y-78399500D01*
X146244791Y-78413515D01*
X146244537Y-78412239D01*
X146187977Y-78418317D01*
X146164089Y-78411303D01*
X146104751Y-78399500D01*
X146104748Y-78399500D01*
X145215252Y-78399500D01*
X145215249Y-78399500D01*
X145144791Y-78413515D01*
X145144537Y-78412239D01*
X145087977Y-78418317D01*
X145064089Y-78411303D01*
X145004751Y-78399500D01*
X145004748Y-78399500D01*
X144115252Y-78399500D01*
X144115249Y-78399500D01*
X144044791Y-78413515D01*
X144044537Y-78412239D01*
X143987977Y-78418317D01*
X143964089Y-78411303D01*
X143904751Y-78399500D01*
X143904748Y-78399500D01*
X143015252Y-78399500D01*
X143015249Y-78399500D01*
X142944791Y-78413515D01*
X142944537Y-78412239D01*
X142887977Y-78418317D01*
X142864089Y-78411303D01*
X142804751Y-78399500D01*
X142804748Y-78399500D01*
X142560833Y-78399500D01*
X142493794Y-78379815D01*
X142473152Y-78363181D01*
X142222152Y-78112181D01*
X142188667Y-78050858D01*
X142193651Y-77981166D01*
X142235523Y-77925233D01*
X142300987Y-77900816D01*
X142309833Y-77900500D01*
X159375500Y-77900500D01*
X159442539Y-77920185D01*
X159488294Y-77972989D01*
X159499500Y-78024500D01*
X159499500Y-92802691D01*
X159479815Y-92869730D01*
X159463181Y-92890372D01*
X159103553Y-93250000D01*
X159463181Y-93609627D01*
X159496666Y-93670950D01*
X159499500Y-93697308D01*
X159499500Y-98875500D01*
X159479815Y-98942539D01*
X159427011Y-98988294D01*
X159375500Y-98999500D01*
X136624500Y-98999500D01*
X136557461Y-98979815D01*
X136511706Y-98927011D01*
X136500500Y-98875500D01*
X136500500Y-97934108D01*
X151999500Y-97934108D01*
X151999500Y-98065891D01*
X152033608Y-98193187D01*
X152047005Y-98216391D01*
X152099500Y-98307314D01*
X152192686Y-98400500D01*
X152306814Y-98466392D01*
X152434108Y-98500500D01*
X152434110Y-98500500D01*
X152565890Y-98500500D01*
X152565892Y-98500500D01*
X152693186Y-98466392D01*
X152807314Y-98400500D01*
X152900500Y-98307314D01*
X152966392Y-98193186D01*
X153000500Y-98065892D01*
X153000500Y-97934108D01*
X152966392Y-97806814D01*
X152900500Y-97692686D01*
X152891922Y-97684108D01*
X158249500Y-97684108D01*
X158249500Y-97815891D01*
X158283608Y-97943187D01*
X158316554Y-98000250D01*
X158349500Y-98057314D01*
X158442686Y-98150500D01*
X158556814Y-98216392D01*
X158684108Y-98250500D01*
X158684110Y-98250500D01*
X158815890Y-98250500D01*
X158815892Y-98250500D01*
X158943186Y-98216392D01*
X159057314Y-98150500D01*
X159150500Y-98057314D01*
X159216392Y-97943186D01*
X159250500Y-97815892D01*
X159250500Y-97684108D01*
X159216392Y-97556814D01*
X159150500Y-97442686D01*
X159057314Y-97349500D01*
X159000250Y-97316554D01*
X158943187Y-97283608D01*
X158879539Y-97266554D01*
X158815892Y-97249500D01*
X158684108Y-97249500D01*
X158556812Y-97283608D01*
X158442686Y-97349500D01*
X158442683Y-97349502D01*
X158349502Y-97442683D01*
X158349500Y-97442686D01*
X158283608Y-97556812D01*
X158249500Y-97684108D01*
X152891922Y-97684108D01*
X152807314Y-97599500D01*
X152733380Y-97556814D01*
X152693187Y-97533608D01*
X152629539Y-97516554D01*
X152565892Y-97499500D01*
X152434108Y-97499500D01*
X152306812Y-97533608D01*
X152192686Y-97599500D01*
X152192683Y-97599502D01*
X152099502Y-97692683D01*
X152099500Y-97692686D01*
X152033608Y-97806812D01*
X151999500Y-97934108D01*
X136500500Y-97934108D01*
X136500500Y-96944785D01*
X138300001Y-96944785D01*
X138300002Y-96944808D01*
X138302908Y-96969869D01*
X138302909Y-96969873D01*
X138348211Y-97072474D01*
X138348214Y-97072479D01*
X138427520Y-97151785D01*
X138427525Y-97151788D01*
X138530123Y-97197089D01*
X138555206Y-97199999D01*
X139499999Y-97199999D01*
X140000000Y-97199999D01*
X140944786Y-97199999D01*
X140944808Y-97199997D01*
X140969869Y-97197091D01*
X140969873Y-97197090D01*
X141072474Y-97151788D01*
X141072479Y-97151785D01*
X141087319Y-97136946D01*
X141148642Y-97103461D01*
X141218334Y-97108445D01*
X141262681Y-97136946D01*
X141277520Y-97151785D01*
X141277525Y-97151788D01*
X141380123Y-97197089D01*
X141405206Y-97199999D01*
X142099999Y-97199999D01*
X142600000Y-97199999D01*
X143294786Y-97199999D01*
X143294808Y-97199997D01*
X143319869Y-97197091D01*
X143319873Y-97197090D01*
X143422475Y-97151788D01*
X143429919Y-97146689D01*
X143496349Y-97125040D01*
X143563939Y-97142742D01*
X143570081Y-97146689D01*
X143577524Y-97151788D01*
X143680123Y-97197089D01*
X143705206Y-97199999D01*
X144399999Y-97199999D01*
X144900000Y-97199999D01*
X145594786Y-97199999D01*
X145594808Y-97199997D01*
X145619869Y-97197091D01*
X145619873Y-97197090D01*
X145722474Y-97151788D01*
X145722479Y-97151785D01*
X145737319Y-97136946D01*
X145798642Y-97103461D01*
X145868334Y-97108445D01*
X145912681Y-97136946D01*
X145927520Y-97151785D01*
X145927525Y-97151788D01*
X146030123Y-97197089D01*
X146055206Y-97199999D01*
X146999999Y-97199999D01*
X147500000Y-97199999D01*
X148444786Y-97199999D01*
X148444808Y-97199997D01*
X148469869Y-97197091D01*
X148469873Y-97197090D01*
X148572474Y-97151788D01*
X148572479Y-97151785D01*
X148651785Y-97072479D01*
X148651788Y-97072474D01*
X148697089Y-96969877D01*
X148697089Y-96969875D01*
X148699999Y-96944794D01*
X148700000Y-96944791D01*
X148700000Y-96200000D01*
X147500000Y-96200000D01*
X147500000Y-97199999D01*
X146999999Y-97199999D01*
X147000000Y-97199998D01*
X147000000Y-96200000D01*
X144900000Y-96200000D01*
X144900000Y-97199999D01*
X144399999Y-97199999D01*
X144400000Y-97199998D01*
X144400000Y-96200000D01*
X142600000Y-96200000D01*
X142600000Y-97199999D01*
X142099999Y-97199999D01*
X142100000Y-97199998D01*
X142100000Y-96200000D01*
X140000000Y-96200000D01*
X140000000Y-97199999D01*
X139499999Y-97199999D01*
X139500000Y-97199998D01*
X139500000Y-96200000D01*
X138300001Y-96200000D01*
X138300001Y-96944785D01*
X136500500Y-96944785D01*
X136500500Y-84794108D01*
X136759500Y-84794108D01*
X136759500Y-84925891D01*
X136793608Y-85053187D01*
X136826554Y-85110250D01*
X136859500Y-85167314D01*
X136952686Y-85260500D01*
X137066814Y-85326392D01*
X137194108Y-85360500D01*
X137194110Y-85360500D01*
X137325890Y-85360500D01*
X137325892Y-85360500D01*
X137453186Y-85326392D01*
X137567314Y-85260500D01*
X137660500Y-85167314D01*
X137726392Y-85053186D01*
X137755725Y-84943709D01*
X137792090Y-84884050D01*
X137842119Y-84859747D01*
X137794297Y-84837908D01*
X137756523Y-84779130D01*
X137755725Y-84776288D01*
X137726392Y-84666814D01*
X137660500Y-84552686D01*
X137567314Y-84459500D01*
X137510250Y-84426554D01*
X137453187Y-84393608D01*
X137377667Y-84373373D01*
X137325892Y-84359500D01*
X137194108Y-84359500D01*
X137066812Y-84393608D01*
X136952686Y-84459500D01*
X136952683Y-84459502D01*
X136859502Y-84552683D01*
X136859500Y-84552686D01*
X136793608Y-84666812D01*
X136759500Y-84794108D01*
X136500500Y-84794108D01*
X136500500Y-78024500D01*
X136520185Y-77957461D01*
X136572989Y-77911706D01*
X136624500Y-77900500D01*
X136739275Y-77900500D01*
X136806314Y-77920185D01*
G37*
%TD.AperFunction*%
%TA.AperFunction,Conductor*%
G36*
X143142539Y-94020185D02*
G01*
X143188294Y-94072989D01*
X143199500Y-94124500D01*
X143199500Y-94439562D01*
X143200276Y-94442457D01*
X143219979Y-94515990D01*
X143223090Y-94523499D01*
X143221313Y-94524235D01*
X143235304Y-94581893D01*
X143212455Y-94647921D01*
X143157537Y-94691115D01*
X143111444Y-94700000D01*
X142459630Y-94700000D01*
X142392591Y-94680315D01*
X142346836Y-94627511D01*
X142336892Y-94558353D01*
X142346836Y-94524488D01*
X142352614Y-94511837D01*
X142375165Y-94462457D01*
X142395647Y-94320000D01*
X142383200Y-94233430D01*
X142393143Y-94164274D01*
X142438898Y-94111470D01*
X142461574Y-94101386D01*
X142461341Y-94100857D01*
X142572480Y-94051784D01*
X142572481Y-94051784D01*
X142587444Y-94036821D01*
X142648766Y-94003334D01*
X142675127Y-94000500D01*
X143075500Y-94000500D01*
X143142539Y-94020185D01*
G37*
%TD.AperFunction*%
%TA.AperFunction,Conductor*%
G36*
X141216152Y-87996602D02*
G01*
X141236796Y-88013238D01*
X141263181Y-88039623D01*
X141296666Y-88100946D01*
X141299500Y-88127304D01*
X141299500Y-88975500D01*
X141279815Y-89042539D01*
X141227011Y-89088294D01*
X141175500Y-89099500D01*
X140055247Y-89099500D01*
X139996770Y-89111131D01*
X139996769Y-89111132D01*
X139930447Y-89155447D01*
X139886132Y-89221769D01*
X139886131Y-89221770D01*
X139874500Y-89280247D01*
X139874500Y-90669752D01*
X139886131Y-90728229D01*
X139886132Y-90728230D01*
X139930447Y-90794552D01*
X139996769Y-90838867D01*
X139996770Y-90838868D01*
X140055247Y-90850499D01*
X140055250Y-90850500D01*
X140055252Y-90850500D01*
X141850500Y-90850500D01*
X141917539Y-90870185D01*
X141963294Y-90922989D01*
X141974500Y-90974500D01*
X141974500Y-91014562D01*
X141975383Y-91017856D01*
X141994979Y-91090990D01*
X141994980Y-91090991D01*
X142023541Y-91140460D01*
X142023542Y-91140462D01*
X142034537Y-91159507D01*
X142034539Y-91159510D01*
X142034540Y-91159511D01*
X142515489Y-91640460D01*
X142584012Y-91680022D01*
X142660438Y-91700500D01*
X143341499Y-91700500D01*
X143408538Y-91720185D01*
X143435211Y-91743296D01*
X143468872Y-91782143D01*
X143589947Y-91859953D01*
X143589950Y-91859954D01*
X143589949Y-91859954D01*
X143697107Y-91891417D01*
X143726673Y-91900099D01*
X143728036Y-91900499D01*
X143728038Y-91900500D01*
X143728039Y-91900500D01*
X143871961Y-91900500D01*
X143952186Y-91876944D01*
X144022053Y-91876944D01*
X144080831Y-91914718D01*
X144099913Y-91944409D01*
X144114781Y-91976965D01*
X144114784Y-91976971D01*
X144129798Y-91994297D01*
X144158824Y-92057852D01*
X144148881Y-92127011D01*
X144103126Y-92179815D01*
X144036087Y-92199500D01*
X143930249Y-92199500D01*
X143859791Y-92213515D01*
X143859537Y-92212239D01*
X143802977Y-92218317D01*
X143779089Y-92211303D01*
X143719751Y-92199500D01*
X143719748Y-92199500D01*
X143280252Y-92199500D01*
X143280249Y-92199500D01*
X143209791Y-92213515D01*
X143209537Y-92212239D01*
X143152977Y-92218317D01*
X143129089Y-92211303D01*
X143069751Y-92199500D01*
X143069748Y-92199500D01*
X142675127Y-92199500D01*
X142608088Y-92179815D01*
X142587446Y-92163181D01*
X142572479Y-92148214D01*
X142572474Y-92148211D01*
X142469876Y-92102910D01*
X142444794Y-92100000D01*
X142400000Y-92100000D01*
X142400000Y-93176000D01*
X142380315Y-93243039D01*
X142327511Y-93288794D01*
X142276000Y-93300000D01*
X141700001Y-93300000D01*
X141700001Y-93779449D01*
X141680316Y-93846488D01*
X141643041Y-93883764D01*
X141558874Y-93937855D01*
X141558872Y-93937856D01*
X141558872Y-93937857D01*
X141526399Y-93975333D01*
X141493921Y-94012815D01*
X141435143Y-94050589D01*
X141365273Y-94050589D01*
X141306495Y-94012815D01*
X141295824Y-94000500D01*
X141224214Y-93917857D01*
X141103139Y-93840047D01*
X141103137Y-93840046D01*
X141103135Y-93840045D01*
X141103136Y-93840045D01*
X140965049Y-93799500D01*
X140965047Y-93799500D01*
X140821125Y-93799500D01*
X140821123Y-93799500D01*
X140812345Y-93800762D01*
X140812149Y-93799402D01*
X140751581Y-93799397D01*
X140692807Y-93761617D01*
X140673733Y-93731935D01*
X140668328Y-93720100D01*
X140625640Y-93626627D01*
X140531391Y-93517857D01*
X140410316Y-93440047D01*
X140410314Y-93440046D01*
X140410312Y-93440045D01*
X140410313Y-93440045D01*
X140272226Y-93399500D01*
X140272224Y-93399500D01*
X140128302Y-93399500D01*
X140043346Y-93424444D01*
X139973476Y-93424443D01*
X139914699Y-93386667D01*
X139885675Y-93323111D01*
X139885675Y-93287825D01*
X139897069Y-93208578D01*
X139876587Y-93066121D01*
X139816799Y-92935205D01*
X139722550Y-92826435D01*
X139665926Y-92790045D01*
X139601473Y-92748623D01*
X139489565Y-92715765D01*
X139430787Y-92677991D01*
X139401762Y-92614435D01*
X139400500Y-92596788D01*
X139400500Y-92355205D01*
X141700000Y-92355205D01*
X141700000Y-92900000D01*
X142000000Y-92900000D01*
X142000000Y-92100000D01*
X141955203Y-92100000D01*
X141930130Y-92102908D01*
X141930126Y-92102909D01*
X141827525Y-92148211D01*
X141827520Y-92148214D01*
X141748214Y-92227520D01*
X141748211Y-92227525D01*
X141702910Y-92330122D01*
X141702910Y-92330124D01*
X141700000Y-92355205D01*
X139400500Y-92355205D01*
X139400500Y-88224500D01*
X139420185Y-88157461D01*
X139472989Y-88111706D01*
X139524500Y-88100500D01*
X140141499Y-88100500D01*
X140208538Y-88120185D01*
X140235211Y-88143296D01*
X140268872Y-88182143D01*
X140389947Y-88259953D01*
X140389950Y-88259954D01*
X140389949Y-88259954D01*
X140470509Y-88283608D01*
X140524633Y-88299500D01*
X140528036Y-88300499D01*
X140528038Y-88300500D01*
X140528039Y-88300500D01*
X140671962Y-88300500D01*
X140671962Y-88300499D01*
X140810053Y-88259953D01*
X140931128Y-88182143D01*
X141025377Y-88073373D01*
X141036322Y-88049405D01*
X141082073Y-87996605D01*
X141149112Y-87976919D01*
X141216152Y-87996602D01*
G37*
%TD.AperFunction*%
%TA.AperFunction,Conductor*%
G36*
X146623039Y-91319685D02*
G01*
X146668794Y-91372489D01*
X146680000Y-91424000D01*
X146680000Y-91993897D01*
X146735149Y-91985164D01*
X146848044Y-91927641D01*
X146854488Y-91922959D01*
X146920293Y-91899475D01*
X146941674Y-91900099D01*
X146943868Y-91900353D01*
X146945135Y-91900500D01*
X147294864Y-91900499D01*
X147294879Y-91900497D01*
X147294882Y-91900497D01*
X147319987Y-91897586D01*
X147319988Y-91897585D01*
X147319991Y-91897585D01*
X147422765Y-91852206D01*
X147422770Y-91852200D01*
X147429063Y-91847891D01*
X147495495Y-91826244D01*
X147563084Y-91843949D01*
X147586822Y-91862509D01*
X147651949Y-91927636D01*
X147651953Y-91927639D01*
X147764854Y-91985165D01*
X147777970Y-91987242D01*
X147841106Y-92017169D01*
X147878039Y-92076479D01*
X147877045Y-92146341D01*
X147846258Y-92197397D01*
X147480476Y-92563181D01*
X147419153Y-92596666D01*
X147392795Y-92599500D01*
X145324500Y-92599500D01*
X145257461Y-92579815D01*
X145211706Y-92527011D01*
X145200500Y-92475500D01*
X145200500Y-92380252D01*
X145194124Y-92348198D01*
X145200350Y-92278609D01*
X145243212Y-92223431D01*
X145309102Y-92200185D01*
X145319170Y-92200634D01*
X145319170Y-92200500D01*
X145471962Y-92200500D01*
X145471962Y-92200499D01*
X145597813Y-92163547D01*
X145610050Y-92159954D01*
X145610050Y-92159953D01*
X145610053Y-92159953D01*
X145731128Y-92082143D01*
X145825377Y-91973373D01*
X145855369Y-91907699D01*
X145901124Y-91854897D01*
X145968163Y-91835212D01*
X146035203Y-91854897D01*
X146055844Y-91871531D01*
X146111949Y-91927636D01*
X146111953Y-91927639D01*
X146224853Y-91985164D01*
X146280000Y-91993898D01*
X146280000Y-91424000D01*
X146299685Y-91356961D01*
X146352489Y-91311206D01*
X146404000Y-91300000D01*
X146556000Y-91300000D01*
X146623039Y-91319685D01*
G37*
%TD.AperFunction*%
%TA.AperFunction,Conductor*%
G36*
X148362341Y-84020185D02*
G01*
X148408096Y-84072989D01*
X148418040Y-84142147D01*
X148415116Y-84155587D01*
X148394353Y-84300000D01*
X148414834Y-84442456D01*
X148432959Y-84482143D01*
X148474623Y-84573373D01*
X148568872Y-84682143D01*
X148689947Y-84759953D01*
X148689950Y-84759954D01*
X148689949Y-84759954D01*
X148828036Y-84800499D01*
X148828038Y-84800500D01*
X148828039Y-84800500D01*
X148971962Y-84800500D01*
X148971962Y-84800499D01*
X149110053Y-84759953D01*
X149231128Y-84682143D01*
X149264788Y-84643296D01*
X149323567Y-84605523D01*
X149358501Y-84600500D01*
X149473731Y-84600500D01*
X149540770Y-84620185D01*
X149586525Y-84672989D01*
X149596904Y-84738794D01*
X149595000Y-84755193D01*
X149595000Y-85050000D01*
X151413843Y-85050000D01*
X151433656Y-85039181D01*
X151503348Y-85044165D01*
X151547695Y-85072666D01*
X152263181Y-85788152D01*
X152296666Y-85849475D01*
X152299500Y-85875833D01*
X152299500Y-87000666D01*
X152279815Y-87067705D01*
X152227011Y-87113460D01*
X152157853Y-87123404D01*
X152140566Y-87119643D01*
X152071964Y-87099500D01*
X152071961Y-87099500D01*
X151928039Y-87099500D01*
X151928036Y-87099500D01*
X151789949Y-87140045D01*
X151668873Y-87217856D01*
X151574623Y-87326626D01*
X151574622Y-87326628D01*
X151514834Y-87457543D01*
X151494353Y-87600000D01*
X151514834Y-87742456D01*
X151562066Y-87845877D01*
X151574623Y-87873373D01*
X151668872Y-87982143D01*
X151668875Y-87982144D01*
X151669213Y-87982535D01*
X151698238Y-88046091D01*
X151699500Y-88063738D01*
X151699500Y-89724167D01*
X151679815Y-89791206D01*
X151663181Y-89811848D01*
X150759541Y-90715487D01*
X150759535Y-90715495D01*
X150719982Y-90784004D01*
X150719979Y-90784009D01*
X150699500Y-90860439D01*
X150699500Y-90954822D01*
X150679815Y-91021861D01*
X150627011Y-91067616D01*
X150557853Y-91077560D01*
X150519205Y-91065307D01*
X150420145Y-91014833D01*
X150365000Y-91006099D01*
X150365000Y-91576000D01*
X150345315Y-91643039D01*
X150292511Y-91688794D01*
X150241000Y-91700000D01*
X150089000Y-91700000D01*
X150021961Y-91680315D01*
X149976206Y-91627511D01*
X149965000Y-91576000D01*
X149965000Y-91006101D01*
X149909853Y-91014835D01*
X149796952Y-91072361D01*
X149790496Y-91077051D01*
X149724687Y-91100525D01*
X149703337Y-91099902D01*
X149699876Y-91099500D01*
X149699865Y-91099500D01*
X149575833Y-91099500D01*
X149508794Y-91079815D01*
X149488152Y-91063181D01*
X148984510Y-90559539D01*
X148962053Y-90546574D01*
X148939595Y-90533608D01*
X148934604Y-90530726D01*
X148915990Y-90519979D01*
X148915986Y-90519978D01*
X148879289Y-90510144D01*
X148819629Y-90473778D01*
X148817672Y-90471572D01*
X148771129Y-90417858D01*
X148771128Y-90417857D01*
X148650053Y-90340047D01*
X148650051Y-90340046D01*
X148650049Y-90340045D01*
X148650050Y-90340045D01*
X148511963Y-90299500D01*
X148511961Y-90299500D01*
X148368039Y-90299500D01*
X148368035Y-90299500D01*
X148304434Y-90318175D01*
X148234564Y-90318175D01*
X148175786Y-90280400D01*
X148146762Y-90216844D01*
X148145500Y-90199198D01*
X148145500Y-89280249D01*
X148145499Y-89280247D01*
X148133868Y-89221770D01*
X148133867Y-89221769D01*
X148089552Y-89155447D01*
X148023230Y-89111132D01*
X148023229Y-89111131D01*
X147964752Y-89099500D01*
X147964748Y-89099500D01*
X146025252Y-89099500D01*
X146025247Y-89099500D01*
X145966770Y-89111131D01*
X145966769Y-89111132D01*
X145900447Y-89155447D01*
X145856132Y-89221769D01*
X145856131Y-89221770D01*
X145844500Y-89280247D01*
X145844500Y-90669752D01*
X145856131Y-90728229D01*
X145856132Y-90728230D01*
X145900447Y-90794552D01*
X145966769Y-90838867D01*
X145966770Y-90838868D01*
X146025247Y-90850499D01*
X146025250Y-90850500D01*
X146025252Y-90850500D01*
X146035685Y-90850500D01*
X146102724Y-90870185D01*
X146148479Y-90922989D01*
X146158423Y-90992147D01*
X146129398Y-91055703D01*
X146118813Y-91065416D01*
X146118855Y-91065458D01*
X146022363Y-91161949D01*
X146022360Y-91161953D01*
X145964834Y-91274855D01*
X145964644Y-91276056D01*
X145964007Y-91277397D01*
X145961818Y-91284137D01*
X145960947Y-91283853D01*
X145934713Y-91339190D01*
X145875400Y-91376120D01*
X145805538Y-91375120D01*
X145748458Y-91337857D01*
X145731129Y-91317858D01*
X145731128Y-91317857D01*
X145610053Y-91240047D01*
X145610051Y-91240046D01*
X145610049Y-91240045D01*
X145610050Y-91240045D01*
X145471963Y-91199500D01*
X145471961Y-91199500D01*
X145375833Y-91199500D01*
X145308794Y-91179815D01*
X145288152Y-91163181D01*
X145276978Y-91152007D01*
X145243493Y-91090684D01*
X145240659Y-91064326D01*
X145240659Y-90494227D01*
X145240659Y-90494226D01*
X145220180Y-90417799D01*
X145206623Y-90394317D01*
X145180623Y-90349283D01*
X145180617Y-90349275D01*
X144936819Y-90105477D01*
X144903334Y-90044154D01*
X144900500Y-90017796D01*
X144900500Y-89860439D01*
X144887480Y-89811848D01*
X144880021Y-89784011D01*
X144875124Y-89775529D01*
X144840464Y-89715495D01*
X144840458Y-89715487D01*
X144339395Y-89214424D01*
X144305910Y-89153101D01*
X144304339Y-89109094D01*
X144305647Y-89100000D01*
X144285165Y-88957543D01*
X144225377Y-88826627D01*
X144131128Y-88717857D01*
X144010053Y-88640047D01*
X144010051Y-88640046D01*
X144010049Y-88640045D01*
X144010050Y-88640045D01*
X143871963Y-88599500D01*
X143871961Y-88599500D01*
X143728039Y-88599500D01*
X143728036Y-88599500D01*
X143589949Y-88640045D01*
X143468873Y-88717856D01*
X143374623Y-88826626D01*
X143374621Y-88826630D01*
X143360295Y-88857998D01*
X143314539Y-88910801D01*
X143247499Y-88930484D01*
X143180460Y-88910798D01*
X143159821Y-88894165D01*
X142745903Y-88480247D01*
X149694500Y-88480247D01*
X149694500Y-89519752D01*
X149706131Y-89578229D01*
X149706132Y-89578230D01*
X149750447Y-89644552D01*
X149816769Y-89688867D01*
X149816770Y-89688868D01*
X149875247Y-89700499D01*
X149875250Y-89700500D01*
X149875252Y-89700500D01*
X151114750Y-89700500D01*
X151114751Y-89700499D01*
X151129568Y-89697552D01*
X151173229Y-89688868D01*
X151173229Y-89688867D01*
X151173231Y-89688867D01*
X151239552Y-89644552D01*
X151283867Y-89578231D01*
X151283867Y-89578229D01*
X151283868Y-89578229D01*
X151295499Y-89519752D01*
X151295500Y-89519750D01*
X151295500Y-88480249D01*
X151295499Y-88480247D01*
X151283868Y-88421770D01*
X151283867Y-88421769D01*
X151239552Y-88355447D01*
X151173230Y-88311132D01*
X151173229Y-88311131D01*
X151114752Y-88299500D01*
X151114748Y-88299500D01*
X149875252Y-88299500D01*
X149875247Y-88299500D01*
X149816770Y-88311131D01*
X149816769Y-88311132D01*
X149750447Y-88355447D01*
X149706132Y-88421769D01*
X149706131Y-88421770D01*
X149694500Y-88480247D01*
X142745903Y-88480247D01*
X142719662Y-88454006D01*
X142686177Y-88392683D01*
X142683343Y-88366325D01*
X142683343Y-87291812D01*
X142683343Y-87291810D01*
X142662865Y-87215384D01*
X142623303Y-87146861D01*
X141813140Y-86336698D01*
X141779655Y-86275375D01*
X141784639Y-86205683D01*
X141826511Y-86149750D01*
X141833731Y-86144736D01*
X141931128Y-86082143D01*
X142025377Y-85973373D01*
X142085165Y-85842457D01*
X142105647Y-85700000D01*
X142104339Y-85690905D01*
X142114279Y-85621749D01*
X142139390Y-85585579D01*
X142388153Y-85336816D01*
X142449475Y-85303334D01*
X142475833Y-85300500D01*
X145641499Y-85300500D01*
X145708538Y-85320185D01*
X145735211Y-85343296D01*
X145768872Y-85382143D01*
X145889947Y-85459953D01*
X145889950Y-85459954D01*
X145889949Y-85459954D01*
X145997107Y-85491417D01*
X146025280Y-85499690D01*
X146028036Y-85500499D01*
X146028038Y-85500500D01*
X146124167Y-85500500D01*
X146191206Y-85520185D01*
X146211848Y-85536819D01*
X147659540Y-86984511D01*
X147715489Y-87040460D01*
X147715491Y-87040461D01*
X147715495Y-87040464D01*
X147772493Y-87073371D01*
X147784011Y-87080021D01*
X147860438Y-87100500D01*
X148141499Y-87100500D01*
X148208538Y-87120185D01*
X148235211Y-87143296D01*
X148268872Y-87182143D01*
X148389947Y-87259953D01*
X148389950Y-87259954D01*
X148389949Y-87259954D01*
X148528036Y-87300499D01*
X148528038Y-87300500D01*
X148528039Y-87300500D01*
X148671962Y-87300500D01*
X148671962Y-87300499D01*
X148810053Y-87259953D01*
X148931128Y-87182143D01*
X149025377Y-87073373D01*
X149085165Y-86942457D01*
X149105647Y-86800000D01*
X149085165Y-86657543D01*
X149025377Y-86526627D01*
X148931128Y-86417857D01*
X148810053Y-86340047D01*
X148810051Y-86340046D01*
X148810049Y-86340045D01*
X148810050Y-86340045D01*
X148671963Y-86299500D01*
X148671961Y-86299500D01*
X148528039Y-86299500D01*
X148528036Y-86299500D01*
X148389949Y-86340045D01*
X148268873Y-86417856D01*
X148235212Y-86456703D01*
X148176433Y-86494477D01*
X148141499Y-86499500D01*
X148075833Y-86499500D01*
X148008794Y-86479815D01*
X147988152Y-86463181D01*
X147369756Y-85844785D01*
X149595001Y-85844785D01*
X149595002Y-85844808D01*
X149597908Y-85869869D01*
X149597909Y-85869873D01*
X149643211Y-85972474D01*
X149643214Y-85972479D01*
X149722520Y-86051785D01*
X149722525Y-86051788D01*
X149825123Y-86097089D01*
X149850206Y-86099999D01*
X150244999Y-86099999D01*
X150745000Y-86099999D01*
X151139786Y-86099999D01*
X151139808Y-86099997D01*
X151164869Y-86097091D01*
X151164873Y-86097090D01*
X151267474Y-86051788D01*
X151267479Y-86051785D01*
X151346785Y-85972479D01*
X151346788Y-85972474D01*
X151392089Y-85869877D01*
X151392089Y-85869875D01*
X151394999Y-85844794D01*
X151395000Y-85844791D01*
X151395000Y-85550000D01*
X150745000Y-85550000D01*
X150745000Y-86099999D01*
X150244999Y-86099999D01*
X150245000Y-86099998D01*
X150245000Y-85550000D01*
X149595001Y-85550000D01*
X149595001Y-85844785D01*
X147369756Y-85844785D01*
X146639395Y-85114424D01*
X146605910Y-85053101D01*
X146604339Y-85009094D01*
X146605647Y-85000000D01*
X146585165Y-84857543D01*
X146525377Y-84726627D01*
X146442689Y-84631199D01*
X146413666Y-84567647D01*
X146423610Y-84498489D01*
X146442687Y-84468802D01*
X146525377Y-84373373D01*
X146585165Y-84242457D01*
X146604662Y-84106853D01*
X146633687Y-84043297D01*
X146692465Y-84005523D01*
X146727400Y-84000500D01*
X148295302Y-84000500D01*
X148362341Y-84020185D01*
G37*
%TD.AperFunction*%
%TA.AperFunction,Conductor*%
G36*
X146243333Y-81284150D02*
G01*
X146287680Y-81312651D01*
X147653664Y-82678635D01*
X147687149Y-82739958D01*
X147682165Y-82809650D01*
X147677818Y-82818336D01*
X147678307Y-82818560D01*
X147614834Y-82957543D01*
X147594353Y-83100000D01*
X147616097Y-83251235D01*
X147614279Y-83251496D01*
X147614278Y-83310438D01*
X147576502Y-83369215D01*
X147512945Y-83398238D01*
X147495302Y-83399500D01*
X146460438Y-83399500D01*
X146429867Y-83407691D01*
X146384008Y-83419979D01*
X146384007Y-83419980D01*
X146348538Y-83440459D01*
X146315489Y-83459539D01*
X146211846Y-83563182D01*
X146150523Y-83596666D01*
X146124165Y-83599500D01*
X146028036Y-83599500D01*
X145889949Y-83640045D01*
X145768873Y-83717856D01*
X145674623Y-83826626D01*
X145674622Y-83826628D01*
X145614834Y-83957543D01*
X145594353Y-84100000D01*
X145614834Y-84242456D01*
X145641114Y-84300000D01*
X145674623Y-84373373D01*
X145692157Y-84393608D01*
X145757308Y-84468798D01*
X145786332Y-84532354D01*
X145776388Y-84601512D01*
X145757309Y-84631201D01*
X145735214Y-84656701D01*
X145676436Y-84694476D01*
X145641499Y-84699500D01*
X142260438Y-84699500D01*
X142222224Y-84709739D01*
X142184009Y-84719979D01*
X142184004Y-84719982D01*
X142115495Y-84759535D01*
X142115487Y-84759541D01*
X141711847Y-85163181D01*
X141650524Y-85196666D01*
X141624166Y-85199500D01*
X141528036Y-85199500D01*
X141389949Y-85240045D01*
X141381882Y-85243730D01*
X141381128Y-85242081D01*
X141324498Y-85258708D01*
X141257459Y-85239022D01*
X141211705Y-85186218D01*
X141200500Y-85134708D01*
X141200500Y-82606114D01*
X141220185Y-82539075D01*
X141272989Y-82493320D01*
X141292400Y-82486341D01*
X141315989Y-82480021D01*
X141384511Y-82440460D01*
X141440460Y-82384511D01*
X141488152Y-82336819D01*
X141549475Y-82303334D01*
X141575833Y-82300500D01*
X143139560Y-82300500D01*
X143139562Y-82300500D01*
X143215989Y-82280021D01*
X143284511Y-82240460D01*
X143340460Y-82184511D01*
X143888152Y-81636819D01*
X143949475Y-81603334D01*
X143975833Y-81600500D01*
X144412582Y-81600500D01*
X144479621Y-81620185D01*
X144525376Y-81672989D01*
X144535320Y-81742147D01*
X144506295Y-81805703D01*
X144479622Y-81828815D01*
X144418874Y-81867855D01*
X144324623Y-81976626D01*
X144324622Y-81976628D01*
X144264834Y-82107543D01*
X144244353Y-82250000D01*
X144264834Y-82392456D01*
X144307710Y-82486339D01*
X144324623Y-82523373D01*
X144418872Y-82632143D01*
X144539947Y-82709953D01*
X144539950Y-82709954D01*
X144539949Y-82709954D01*
X144642136Y-82739958D01*
X144675205Y-82749668D01*
X144678036Y-82750499D01*
X144678038Y-82750500D01*
X144678039Y-82750500D01*
X144821962Y-82750500D01*
X144821962Y-82750499D01*
X144960053Y-82709953D01*
X145081128Y-82632143D01*
X145175377Y-82523373D01*
X145235165Y-82392457D01*
X145255647Y-82250000D01*
X145254339Y-82240905D01*
X145264279Y-82171749D01*
X145289392Y-82135577D01*
X146112322Y-81312648D01*
X146173641Y-81279166D01*
X146243333Y-81284150D01*
G37*
%TD.AperFunction*%
%TD*%
M02*
