%TF.GenerationSoftware,KiCad,Pcbnew,8.0.4*%
%TF.CreationDate,2024-08-15T19:07:05-07:00*%
%TF.ProjectId,RoboBuddy_NoSIlkScreen,526f626f-4275-4646-9479-5f4e6f53496c,rev?*%
%TF.SameCoordinates,Original*%
%TF.FileFunction,Paste,Top*%
%TF.FilePolarity,Positive*%
%FSLAX46Y46*%
G04 Gerber Fmt 4.6, Leading zero omitted, Abs format (unit mm)*
G04 Created by KiCad (PCBNEW 8.0.4) date 2024-08-15 19:07:05*
%MOMM*%
%LPD*%
G01*
G04 APERTURE LIST*
G04 Aperture macros list*
%AMRoundRect*
0 Rectangle with rounded corners*
0 $1 Rounding radius*
0 $2 $3 $4 $5 $6 $7 $8 $9 X,Y pos of 4 corners*
0 Add a 4 corners polygon primitive as box body*
4,1,4,$2,$3,$4,$5,$6,$7,$8,$9,$2,$3,0*
0 Add four circle primitives for the rounded corners*
1,1,$1+$1,$2,$3*
1,1,$1+$1,$4,$5*
1,1,$1+$1,$6,$7*
1,1,$1+$1,$8,$9*
0 Add four rect primitives between the rounded corners*
20,1,$1+$1,$2,$3,$4,$5,0*
20,1,$1+$1,$4,$5,$6,$7,0*
20,1,$1+$1,$6,$7,$8,$9,0*
20,1,$1+$1,$8,$9,$2,$3,0*%
G04 Aperture macros list end*
%ADD10RoundRect,0.079500X0.100500X-0.079500X0.100500X0.079500X-0.100500X0.079500X-0.100500X-0.079500X0*%
%ADD11RoundRect,0.079500X-0.079500X-0.100500X0.079500X-0.100500X0.079500X0.100500X-0.079500X0.100500X0*%
%ADD12RoundRect,0.079500X0.079500X0.100500X-0.079500X0.100500X-0.079500X-0.100500X0.079500X-0.100500X0*%
%ADD13RoundRect,0.249999X-0.395001X-0.395001X0.395001X-0.395001X0.395001X0.395001X-0.395001X0.395001X0*%
%ADD14RoundRect,0.050000X-0.387500X-0.050000X0.387500X-0.050000X0.387500X0.050000X-0.387500X0.050000X0*%
%ADD15RoundRect,0.050000X-0.050000X-0.387500X0.050000X-0.387500X0.050000X0.387500X-0.050000X0.387500X0*%
%ADD16R,1.400000X1.200000*%
%ADD17RoundRect,0.150000X-0.650000X-0.150000X0.650000X-0.150000X0.650000X0.150000X-0.650000X0.150000X0*%
%ADD18RoundRect,0.087500X-0.225000X-0.087500X0.225000X-0.087500X0.225000X0.087500X-0.225000X0.087500X0*%
%ADD19RoundRect,0.087500X-0.087500X-0.225000X0.087500X-0.225000X0.087500X0.225000X-0.087500X0.225000X0*%
%ADD20RoundRect,0.375000X-0.375000X0.625000X-0.375000X-0.625000X0.375000X-0.625000X0.375000X0.625000X0*%
%ADD21RoundRect,0.500000X-1.400000X0.500000X-1.400000X-0.500000X1.400000X-0.500000X1.400000X0.500000X0*%
G04 APERTURE END LIST*
D10*
%TO.C,C15*%
X141000000Y-98645000D03*
X141000000Y-97955000D03*
%TD*%
D11*
%TO.C,C7*%
X151155000Y-80700000D03*
X151845000Y-80700000D03*
%TD*%
%TO.C,R1*%
X140355000Y-79100000D03*
X141045000Y-79100000D03*
%TD*%
D12*
%TO.C,R2*%
X146690000Y-95500000D03*
X146000000Y-95500000D03*
%TD*%
D11*
%TO.C,R6*%
X136955000Y-93800000D03*
X137645000Y-93800000D03*
%TD*%
D12*
%TO.C,R4*%
X148845000Y-84800000D03*
X148155000Y-84800000D03*
%TD*%
D10*
%TO.C,C16*%
X137300000Y-79645000D03*
X137300000Y-78955000D03*
%TD*%
D12*
%TO.C,R9*%
X140545000Y-82200000D03*
X139855000Y-82200000D03*
%TD*%
%TO.C,R8*%
X137500000Y-81400000D03*
X136810000Y-81400000D03*
%TD*%
%TO.C,R5*%
X137645000Y-93100000D03*
X136955000Y-93100000D03*
%TD*%
D13*
%TO.C,U1*%
X145262500Y-88637500D03*
X145262500Y-90237500D03*
X146862500Y-88637500D03*
X146862500Y-90237500D03*
D14*
X142625000Y-86837500D03*
X142625000Y-87237500D03*
X142625000Y-87637500D03*
X142625000Y-88037500D03*
X142625000Y-88437500D03*
X142625000Y-88837500D03*
X142625000Y-89237500D03*
X142625000Y-89637500D03*
X142625000Y-90037500D03*
X142625000Y-90437500D03*
X142625000Y-90837500D03*
X142625000Y-91237500D03*
X142625000Y-91637500D03*
X142625000Y-92037500D03*
D15*
X143462500Y-92875000D03*
X143862500Y-92875000D03*
X144262500Y-92875000D03*
X144662500Y-92875000D03*
X145062500Y-92875000D03*
X145462500Y-92875000D03*
X145862500Y-92875000D03*
X146262500Y-92875000D03*
X146662500Y-92875000D03*
X147062500Y-92875000D03*
X147462500Y-92875000D03*
X147862500Y-92875000D03*
X148262500Y-92875000D03*
X148662500Y-92875000D03*
D14*
X149500000Y-92037500D03*
X149500000Y-91637500D03*
X149500000Y-91237500D03*
X149500000Y-90837500D03*
X149500000Y-90437500D03*
X149500000Y-90037500D03*
X149500000Y-89637500D03*
X149500000Y-89237500D03*
X149500000Y-88837500D03*
X149500000Y-88437500D03*
X149500000Y-88037500D03*
X149500000Y-87637500D03*
X149500000Y-87237500D03*
X149500000Y-86837500D03*
D15*
X148662500Y-86000000D03*
X148262500Y-86000000D03*
X147862500Y-86000000D03*
X147462500Y-86000000D03*
X147062500Y-86000000D03*
X146662500Y-86000000D03*
X146262500Y-86000000D03*
X145862500Y-86000000D03*
X145462500Y-86000000D03*
X145062500Y-86000000D03*
X144662500Y-86000000D03*
X144262500Y-86000000D03*
X143862500Y-86000000D03*
X143462500Y-86000000D03*
%TD*%
D10*
%TO.C,R7*%
X138900000Y-81325000D03*
X138900000Y-80635000D03*
%TD*%
D11*
%TO.C,C5*%
X151155000Y-79100000D03*
X151845000Y-79100000D03*
%TD*%
D10*
%TO.C,C13*%
X151750000Y-96345000D03*
X151750000Y-95655000D03*
%TD*%
D11*
%TO.C,C3*%
X149555000Y-84800000D03*
X150245000Y-84800000D03*
%TD*%
%TO.C,R3*%
X146655000Y-84500000D03*
X147345000Y-84500000D03*
%TD*%
D16*
%TO.C,Y1*%
X148150000Y-97600000D03*
X150350000Y-97600000D03*
X150350000Y-95900000D03*
X148150000Y-95900000D03*
%TD*%
D17*
%TO.C,U3*%
X142500000Y-79200000D03*
X142500000Y-80470000D03*
X142500000Y-81740000D03*
X142500000Y-83010000D03*
X149700000Y-83010000D03*
X149700000Y-81740000D03*
X149700000Y-80470000D03*
X149700000Y-79200000D03*
%TD*%
D10*
%TO.C,C12*%
X146750000Y-98095000D03*
X146750000Y-97405000D03*
%TD*%
D11*
%TO.C,C1*%
X153455000Y-78300000D03*
X154145000Y-78300000D03*
%TD*%
D18*
%TO.C,U4*%
X142175000Y-96250000D03*
X142175000Y-96750000D03*
X142175000Y-97250000D03*
X142175000Y-97750000D03*
D19*
X142837500Y-97912500D03*
X143337500Y-97912500D03*
X143837500Y-97912500D03*
D18*
X144500000Y-97750000D03*
X144500000Y-97250000D03*
X144500000Y-96750000D03*
X144500000Y-96250000D03*
D19*
X143837500Y-96087500D03*
X143337500Y-96087500D03*
X142837500Y-96087500D03*
%TD*%
D11*
%TO.C,R10*%
X139455000Y-83000000D03*
X140145000Y-83000000D03*
%TD*%
%TO.C,C6*%
X151155000Y-79900000D03*
X151845000Y-79900000D03*
%TD*%
D10*
%TO.C,C14*%
X139000000Y-98265000D03*
X139000000Y-97575000D03*
%TD*%
D11*
%TO.C,C11*%
X151155000Y-78300000D03*
X151845000Y-78300000D03*
%TD*%
D20*
%TO.C,U2*%
X158100000Y-80050000D03*
X155800000Y-80050000D03*
D21*
X155800000Y-86350000D03*
D20*
X153500000Y-80050000D03*
%TD*%
D11*
%TO.C,C2*%
X156655000Y-78300000D03*
X157345000Y-78300000D03*
%TD*%
%TO.C,C8*%
X151155000Y-83200000D03*
X151845000Y-83200000D03*
%TD*%
M02*
